<svg xmlns="http://www.w3.org/2000/svg" width="40" height="40" viewBox="0 0 40 40">
    <path fill="#FFF" fill-rule="nonzero" d="M26.222 22.815s-.037 0 0 0l-.037-4.408c0-4.037-2.666-7.185-6.296-7.518V9.74c0-.98-1.482-.981-1.482 0v1.148c-3.776.368-6.296 3.626-6.296 7.37v4.593c-1.844.872-1.157 3.518.852 3.518h2.926c.296 1.519 1.63 2.63 3.26 2.63 1.629 0 2.962-1.111 3.258-2.63h3.037c2.139 0 2.639-2.87.778-3.555zm-7.074 4.704a1.827 1.827 0 0 1-1.704-1.149h3.445a1.918 1.918 0 0 1-1.74 1.149zm6.296-2.63H12.963c-.545 0-.552-.595-.222-.704.518-.222.852-.74.852-1.333v-4.593c0-7.822 11.11-8.03 11.11.148v4.445c0 .63.371 1.148 1 1.37.306.102.256.667-.259.667z"/>
</svg>
