<svg xmlns="http://www.w3.org/2000/svg" width="24" height="24" viewBox="0 0 24 24">
    <path fill="#B0B0B0" fill-rule="evenodd" d="M12 24C5.373 24 0 18.627 0 12S5.373 0 12 0s12 5.373 12 12-5.373 12-12 12zm4.318-9.26a.053.053 0 0 0-.041-.02h-5.015l.692-2.436 1.557-.572a.05.05 0 0 0 .033-.046v-1.024a.049.049 0 0 0-.022-.04.052.052 0 0 0-.047-.006L12.32 11l1.061-3.737a.047.047 0 0 0-.009-.043.053.053 0 0 0-.041-.02L10.275 7.2a.052.052 0 0 0-.05.037L8.94 12.184l-1.307.458a.05.05 0 0 0-.034.047v1.124a.05.05 0 0 0 .022.04c.014.01.032.012.047.006l.925-.34-.75 2.888c-.003.015 0 .031.01.043.01.012.025.02.04.02h7.868a.052.052 0 0 0 .05-.036l.513-1.649a.046.046 0 0 0-.007-.044z"/>
</svg>
