<svg xmlns="http://www.w3.org/2000/svg" width="40" height="40" viewBox="0 0 40 40">
    <path fill="#FFF" fill-rule="nonzero" d="M21.11 19.22c0 .495-.404.862-.883.884-.476.022-.883-.422-.883-.883v-.016c-.006-.377 0-.757 0-1.134v-2.327-2.691-2.223-.925c0-.494.404-.86.883-.883.477-.022.883.422.883.883v.016c.007.377 0 .757 0 1.134v8.166zm2.325-6.174c-.203-.099-.338-.318-.404-.525-.075-.227-.02-.475.088-.68a.901.901 0 0 1 .528-.406c.236-.066.463-.018.68.088.384.188.755.404 1.106.65 1.382.964 2.527 2.286 3.198 3.838.314.722.554 1.46.676 2.236.119.768.168 1.539.095 2.311-.148 1.563-.658 3.089-1.554 4.387-.912 1.32-2.153 2.426-3.607 3.115-1.409.664-2.97 1-4.528.902-1.563-.097-3.104-.571-4.424-1.419-1.35-.868-2.49-2.086-3.227-3.514a9.258 9.258 0 0 1-1.04-4.49 9.255 9.255 0 0 1 1.278-4.457 9.236 9.236 0 0 1 3.83-3.561.985.985 0 0 1 .68-.088c.225.05.406.218.528.406.119.187.145.468.088.68-.055.198-.216.435-.406.527-.51.25-.994.55-1.444.899l.179-.14a8.462 8.462 0 0 0-1.492 1.495l.139-.179a8.46 8.46 0 0 0-1.086 1.864c.028-.071.06-.142.088-.212a8.44 8.44 0 0 0-.576 2.121l.03-.234a8.528 8.528 0 0 0 0 2.212 8.486 8.486 0 0 0-.03-.234c.1.737.296 1.461.585 2.148-.029-.07-.06-.141-.088-.212a8.3 8.3 0 0 0 1.072 1.834l-.139-.178a8.525 8.525 0 0 0 1.506 1.505l-.179-.139a8.412 8.412 0 0 0 1.834 1.075c-.07-.029-.14-.06-.211-.088a8.333 8.333 0 0 0 2.147.587 8.485 8.485 0 0 1-.234-.03 8.432 8.432 0 0 0 2.212 0c-.077.008-.156.019-.234.03a8.447 8.447 0 0 0 2.148-.587c-.07.028-.141.06-.212.088a8.397 8.397 0 0 0 1.835-1.075l-.18.14a8.525 8.525 0 0 0 1.506-1.506l-.139.178a8.492 8.492 0 0 0 1.073-1.834c-.028.07-.06.141-.088.212.29-.687.486-1.409.585-2.148-.009.077-.02.157-.031.234a8.432 8.432 0 0 0 0-2.212l.03.234a8.482 8.482 0 0 0-.575-2.121c.028.07.06.14.088.212a8.324 8.324 0 0 0-1.086-1.864l.14.18a8.614 8.614 0 0 0-1.493-1.495l.179.139a8.48 8.48 0 0 0-1.444-.899z"/>
</svg>
