<svg xmlns="http://www.w3.org/2000/svg" width="24" height="24" viewBox="0 0 24 24">
    <g fill="none" fill-rule="evenodd">
        <circle cx="12" cy="12" r="9" fill="#FFD23D"/>
        <path fill="#000" fill-rule="nonzero" d="M12 24C5.373 24 0 18.627 0 12S5.373 0 12 0s12 5.373 12 12-5.373 12-12 12zm.474-3C16.97 21 21 16.97 21 12.474 21 7.029 16.97 3 12.474 3 7.029 3 3 7.03 3 12.474 3 16.97 7.03 21 12.474 21zm4.018-6.087v2.828H13.25v2.028h-2.577V17.74H7.517v-2.027l3.253-4.51a52.61 52.61 0 0 1 1.645-2.033v-.046h-4.54v-2.81h2.797V4.23h2.577v2.084h3.071V8.44l-3.104 4.324c-.568.75-1.1 1.473-1.687 2.102v.047h4.963z"/>
    </g>
</svg>
