<svg xmlns="http://www.w3.org/2000/svg" width="24" height="24" viewBox="0 0 24 24">
    <path fill="#2573C3" fill-rule="nonzero" d="M12 0C5.375 0 0 5.375 0 12s5.375 12 12 12 12-5.375 12-12S18.625 0 12 0zM4.808 12.984v-.075c.113-.303.227-.606.34-.947.114-.303.19-.606.303-.908.038-.076.076-.114.152-.114h5.11c0 .038-.038.114-.038.151l-.568 1.704c-.038.114-.075.151-.227.151H4.96c-.038.038-.114.038-.151.038zm14.384-3.482a664.764 664.764 0 0 0-1.476 4.58c-.303.946-1.59 2.196-2.99 2.158-3.142-.038-6.284 0-9.388 0h-.19c.038-.114.076-.227.114-.303.19-.53.378-1.098.53-1.628.038-.151.113-.151.227-.151h8.48c.113 0 .189-.038.227-.152.416-1.325.87-2.65 1.287-3.974 0-.038.037-.076.037-.152H7.23c0-.076.038-.113.038-.151.19-.606.417-1.212.606-1.817.038-.114.076-.152.19-.152h9.539c.189 0 .416.038.605.076.53.19.833.568.947 1.098 0 .038.037.075.037.113v.455z"/>
</svg>
