<svg xmlns="http://www.w3.org/2000/svg" width="24" height="24" viewBox="0 0 24 24">
    <g fill="#FFF" fill-rule="nonzero">
        <path d="M12 24C5.373 24 0 18.627 0 12S5.373 0 12 0s12 5.373 12 12-5.373 12-12 12zm.474-3C16.97 21 21 16.97 21 12.474 21 7.029 16.97 3 12.474 3 7.029 3 3 7.03 3 12.474 3 16.97 7.03 21 12.474 21z"/>
        <path d="M16.492 14.913H11.53v-.047c.588-.63 1.119-1.351 1.687-2.102L16.32 8.44V6.315h-3.071V4.23h-2.577v2.084H7.876v2.81h4.539v.046a52.61 52.61 0 0 0-1.645 2.032l-3.253 4.511v2.027h3.155v2.028h2.577V17.74h3.243v-2.828z"/>
    </g>
</svg>
