<svg xmlns="http://www.w3.org/2000/svg" width="24" height="24" viewBox="0 0 24 24">
    <path fill="#FFA300" fill-rule="evenodd" d="M12 24C5.373 24 0 18.627 0 12S5.373 0 12 0s12 5.373 12 12-5.373 12-12 12zm3.596-14.438c-.11-1.35-1.128-1.806-2.417-1.94l.006-1.871-.998-.004-.006 1.822c-.262-.002-.53.003-.797.008l.006-1.834-.997-.004-.006 1.87a26.86 26.86 0 0 1-.635.008l-1.377-.012-.003 1.216s.736-.013.724.003c.404.002.535.27.573.501l-.007 2.132c.028 0 .064.001.105.008h-.105l-.01 2.987c-.018.144-.093.376-.376.375.012.013-.726-.003-.726-.003l-.202 1.36 1.299.005c.241.001.48.007.713.01l-.006 1.892.997.005.006-1.873c.274.008.54.01.798.012l-.006 1.864.997.004.006-1.89c1.678-.103 2.855-.58 3.006-2.378.122-1.447-.472-2.096-1.424-2.361.58-.334.943-.925.862-1.912zM14 13.736c-.004 1.443-1.979 1.27-2.609 1.268l.008-2.558c.63.002 2.605-.215 2.601 1.29zm-.435-3.866c-.004 1.158-1.65 1.016-2.174 1.014l.007-2.046c.524.002 2.172-.175 2.167 1.032z"/>
</svg>
