<svg xmlns="http://www.w3.org/2000/svg" width="24" height="24" viewBox="0 0 24 24">
    <path fill="#FFF" fill-rule="evenodd" d="M12 24C5.373 24 0 18.627 0 12S5.373 0 12 0s12 5.373 12 12-5.373 12-12 12zm3.096-12.47l-3.009-4.812c-.097-.157-.346-.157-.443 0L8.65 11.502l3.244 2.313 3.202-2.285zm-3.036 2.843a.275.275 0 0 1-.153.043.268.268 0 0 1-.152-.043L8.4 11.988c0 .057.014.114.042.157l3.202 5.141c.055.072.138.129.221.129.083 0 .181-.043.222-.129l3.217-5.141c.027-.028.027-.072.041-.115l-3.285 2.343z"/>
</svg>
