<?xml version="1.0" encoding="UTF-8"?>
<svg width="24px" height="24px" viewBox="0 0 24 24" version="1.1" xmlns="http://www.w3.org/2000/svg" xmlns:xlink="http://www.w3.org/1999/xlink">
    <!-- Generator: sketchtool 49.3 (51167) - http://www.bohemiancoding.com/sketch -->
    <title>2DAF3251-EE54-464B-8AFA-0AA9491E16EA</title>
    <desc>Created with sketchtool.</desc>
    <defs></defs>
    <g id="desktop" stroke="none" stroke-width="1" fill="none" fill-rule="evenodd">
        <g id="Purchase3" transform="translate(-520.000000, -1069.000000)" fill="#02ABD8">
            <g id="Group-7" transform="translate(132.000000, 422.000000)">
                <g id="ETH" transform="translate(328.000000, 629.000000)">
                    <path d="M72,42 C65.372583,42 60,36.627417 60,30 C60,23.372583 65.372583,18 72,18 C78.627417,18 84,23.372583 84,30 C84,36.627417 78.627417,42 72,42 Z M75.0956572,29.5303147 L72.087075,24.7176832 C71.9904115,24.5607723 71.740528,24.5607723 71.6438645,24.7176832 L68.6498835,29.5021317 L71.8935632,31.8154245 L75.0956572,29.5303147 Z M72.0597209,32.3726104 C72.0177656,32.4009839 71.9628726,32.4158371 71.9074251,32.4158371 C71.8517927,32.4158371 71.7961604,32.4017456 71.7549444,32.3726104 L68.4,29.987908 C68.4,30.0452261 68.4136771,30.1023539 68.4419553,30.1448188 L71.6438645,35.2863158 C71.6994969,35.3577255 71.7824833,35.4150436 71.8654698,35.4150436 C71.9484562,35.4150436 72.0460438,35.371817 72.087075,35.2863158 L75.3035854,30.1448188 C75.3309395,30.1166358 75.3309395,30.0734092 75.3453559,30.0301825 L72.0597209,32.3726104 Z" id="Combined-Shape"></path>
                </g>
            </g>
        </g>
    </g>
</svg>