<?xml version="1.0" encoding="UTF-8"?>
<svg width="36px" height="22px" viewBox="0 0 36 22" version="1.1" xmlns="http://www.w3.org/2000/svg" xmlns:xlink="http://www.w3.org/1999/xlink">
    <!-- Generator: sketchtool 49.3 (51167) - http://www.bohemiancoding.com/sketch -->
    <title>45E01EBD-8D3B-4129-BBBE-D3B65535DE45</title>
    <desc>Created with sketchtool.</desc>
    <defs></defs>
    <g id="desktop" stroke="none" stroke-width="1" fill="none" fill-rule="evenodd">
        <g id="Purchase3" transform="translate(-1060.000000, -1070.000000)" fill="#F5A623">
            <g id="Group-7" transform="translate(132.000000, 422.000000)">
                <g id="BitcoinCash" transform="translate(888.000000, 629.000000)">
                    <g id="Group-18" transform="translate(40.000000, 18.000000)">
                        <path d="M9.18183108,3 C6.84804098,5.28693066 5.4,8.47436129 5.4,12 C5.4,15.5256387 6.84804098,18.7130693 9.18183108,21 L0,21 L0,3 L9.18183108,3 Z M26.8181689,3 L36,3 L36,21 L26.8181689,21 C29.151959,18.7130693 30.6,15.5256387 30.6,12 C30.6,8.47436129 29.151959,5.28693066 26.8181689,3 Z M18,23 C11.9248678,23 7,18.0751322 7,12 C7,5.92486775 11.9248678,1 18,1 C24.0751322,1 29,5.92486775 29,12 C29,18.0751322 24.0751322,23 18,23 Z M21.2958936,9.76524487 C21.1960577,8.52811319 20.261917,8.10954049 19.0810997,7.98683976 L19.0862636,6.27144721 L18.1713221,6.2679717 L18.1661582,7.93788035 C17.9257047,7.93667147 17.6799549,7.94135586 17.4353967,7.94543581 L17.4410903,6.26434508 L16.5270757,6.26086957 L16.5213821,7.97565767 C16.3232993,7.97973762 16.1287915,7.9827598 15.9390503,7.98215537 L14.6770667,7.97082217 L14.6738889,9.08585755 C14.6738889,9.08585755 15.3494361,9.07407102 15.338049,9.08827529 C15.7083951,9.0900886 15.828357,9.33624562 15.863048,9.54810083 L15.8568248,11.5019438 C15.8826444,11.5019438 15.9157465,11.503606 15.9534828,11.5094993 C15.9230289,11.5094993 15.8904565,11.5088948 15.8568248,11.5094993 L15.8479534,14.2472972 C15.8314024,14.3799712 15.7621528,14.5919775 15.5030298,14.591373 C15.5144169,14.6031596 14.8378104,14.5883508 14.8378104,14.5883508 L14.6521739,15.8350024 L15.8427895,15.8398379 C16.0641762,15.8408957 16.2825175,15.8463356 16.4966218,15.8486022 L16.4914578,17.5834879 L17.40534,17.5875678 L17.4110336,15.8711175 C17.6619473,15.8782197 17.905049,15.8810907 18.1419275,15.8822996 L18.1362339,17.5910433 L19.0506458,17.5940655 L19.0563393,15.8622021 C20.5945267,15.7677588 21.6729925,15.3298441 21.8114916,13.6822996 C21.9237738,12.355409 21.3786488,11.7609451 20.506078,11.5178103 C21.0373001,11.2121162 21.3708367,10.6702383 21.2958936,9.76524487 Z M19.8333273,13.5914389 C19.8299989,14.9141869 18.0193282,14.755821 17.442029,14.7539706 L17.449179,12.4083984 C18.0266014,12.4108656 19.8371488,12.2114819 19.8333273,13.5914389 Z M19.4347749,10.0476458 C19.4309567,11.1087203 17.9226331,10.9791618 17.442029,10.9769867 L17.4481874,9.10144746 C17.9289147,9.10348668 19.4387163,8.94102877 19.4347749,10.0476458 Z" id="Bitcoin-cash"></path>
                    </g>
                </g>
            </g>
        </g>
    </g>
</svg>