<?xml version="1.0" encoding="UTF-8"?>
<svg width="24px" height="24px" viewBox="0 0 24 24" version="1.1" xmlns="http://www.w3.org/2000/svg" xmlns:xlink="http://www.w3.org/1999/xlink">
    <!-- Generator: sketchtool 49.3 (51167) - http://www.bohemiancoding.com/sketch -->
    <title>BB23B2DD-E8D2-42E5-AC41-9F5F2D646BFF</title>
    <desc>Created with sketchtool.</desc>
    <defs></defs>
    <g id="desktop" stroke="none" stroke-width="1" fill="none" fill-rule="evenodd">
        <g id="Purchase3" transform="translate(-807.000000, -1069.000000)" fill="#B0B0B0">
            <g id="Group-7" transform="translate(132.000000, 422.000000)">
                <g id="litecoin" transform="translate(608.000000, 629.000000)">
                    <path d="M79,42 C72.372583,42 67,36.627417 67,30 C67,23.372583 72.372583,18 79,18 C85.627417,18 91,23.372583 91,30 C91,36.627417 85.627417,42 79,42 Z M83.3182578,32.7405176 C83.3082844,32.7279059 83.2930311,32.7205647 83.2769956,32.7205647 L78.2619733,32.7205647 L78.9540444,30.2838588 L80.5108622,29.7118118 C80.5308089,29.7044706 80.5444978,29.6860235 80.5444978,29.6655059 L80.5444978,28.6418824 C80.5444978,28.6256941 80.5360889,28.6102588 80.5224,28.6014118 C80.5079289,28.5918118 80.4911111,28.5897412 80.4750756,28.5955765 L79.3191467,29.0006588 L80.3802311,25.264 C80.3849244,25.2493176 80.3810133,25.2331294 80.37104,25.2205176 C80.3612622,25.2080941 80.3458133,25.2007529 80.3297778,25.2007529 L77.2750044,25.2 C77.2513422,25.2 77.2308089,25.2154353 77.2247467,25.2374588 L75.9413156,30.1837176 L74.6342222,30.6418824 C74.6136889,30.6492235 74.6,30.6676706 74.6,30.6889412 L74.6,31.8125176 C74.6,31.8287059 74.6084089,31.8441412 74.6220978,31.8537412 C74.6357867,31.8631529 74.6541689,31.8646588 74.6694222,31.8588235 L75.5938133,31.5190588 L74.8444444,34.4073412 C74.8405333,34.4220235 74.8436622,34.4382118 74.8536356,34.4500706 C74.8634133,34.4624941 74.8786667,34.4690824 74.8948978,34.4690824 L82.7620978,34.4690824 C82.7849778,34.4690824 82.8049244,34.4544 82.8117689,34.4338824 L83.3251022,32.7853176 C83.3311644,32.7698824 83.3280356,32.7536941 83.3182578,32.7405176 Z" id="Combined-Shape"></path>
                </g>
            </g>
        </g>
    </g>
</svg>