<?xml version="1.0" encoding="UTF-8"?>
<svg width="24px" height="24px" viewBox="0 0 24 24" version="1.1" xmlns="http://www.w3.org/2000/svg" xmlns:xlink="http://www.w3.org/1999/xlink">
    <!-- Generator: sketchtool 49.3 (51167) - http://www.bohemiancoding.com/sketch -->
    <title>C86CA49D-B109-4F27-924B-6EC086F7470E</title>
    <desc>Created with sketchtool.</desc>
    <defs></defs>
    <g id="desktop" stroke="none" stroke-width="1" fill="none" fill-rule="evenodd">
        <g id="Purchase3" transform="translate(-252.000000, -1070.000000)" fill="#F5A623">
            <g id="Group-7" transform="translate(132.000000, 422.000000)">
                <g id="BitcoinIcon" transform="translate(48.000000, 629.000000)">
                    <path d="M84,43 C77.372583,43 72,37.627417 72,31 C72,24.372583 77.372583,19 84,19 C90.627417,19 96,24.372583 96,31 C96,37.627417 90.627417,43 84,43 Z M87.5955203,28.5620853 C87.4866084,27.2124871 86.4675459,26.7558624 85.1793815,26.622007 L85.1850148,24.7506697 L84.1868969,24.7468782 L84.1812635,26.5685967 C83.9189506,26.567278 83.6508599,26.5723882 83.3840691,26.5768391 L83.3902803,24.7429219 L82.3931735,24.7391304 L82.3869623,26.6098084 C82.1708719,26.6142592 81.9586816,26.6175562 81.7516913,26.6168968 L80.3749818,26.6045333 L80.3715151,27.8209355 C80.3715151,27.8209355 81.1084758,27.8080775 81.0960534,27.823573 C81.5000673,27.8255512 81.6309349,28.0940861 81.6687796,28.3252009 L81.6619907,30.456666 C81.6901575,30.456666 81.7262689,30.4584793 81.7674358,30.4649083 C81.7342134,30.4649083 81.6986798,30.4642489 81.6619907,30.4649083 L81.6523128,33.451597 C81.6342571,33.5963322 81.5587122,33.8276118 81.2760325,33.8269524 C81.2884548,33.8398104 80.5503386,33.8236555 80.5503386,33.8236555 L80.3478261,35.183639 L81.6466794,35.1889141 C81.8881922,35.190068 82.1263827,35.1960025 82.359951,35.1984752 L82.3543176,37.0910777 L83.35128,37.0955285 L83.3574912,35.2230373 C83.6312153,35.2307851 83.8964171,35.2339172 84.15483,35.2352359 L84.1486188,37.09932 L85.146159,37.1026169 L85.1523702,35.2133114 C86.8303928,35.1102823 88.0069009,34.6325572 88.1579908,32.8352359 C88.2804805,31.3877189 87.6857987,30.7392129 86.7339033,30.4739749 C87.3134183,30.1404904 87.6772764,29.5493509 87.5955203,28.5620853 Z M85.9999934,32.7361152 C85.9963624,34.1791129 84.0210853,34.0063502 83.3913043,34.0043316 L83.3991043,31.4455255 C84.0290198,31.448217 86.0041624,31.2307076 85.9999934,32.7361152 Z M85.565209,28.8701591 C85.5610436,30.0276949 83.9155998,29.8863584 83.3913043,29.8839855 L83.3980226,27.8379427 C83.9224524,27.8401673 85.5695087,27.6629405 85.565209,28.8701591 Z" id="Combined-Shape"></path>
                </g>
            </g>
        </g>
    </g>
</svg>