<?xml version="1.0" encoding="UTF-8"?>
<svg width="1188px" height="800px" viewBox="0 0 1188 800" version="1.1" xmlns="http://www.w3.org/2000/svg" xmlns:xlink="http://www.w3.org/1999/xlink">
    <!-- Generator: sketchtool 48.2 (47327) - http://www.bohemiancoding.com/sketch -->
    <title>841765B0-9CF9-4710-BCA4-B498529B3ED3</title>
    <desc>Created with sketchtool.</desc>
    <defs>
        <path d="M1305.3178,482 C1306.93449,483.074922 1308,484.913029 1308,487 L1308,1183 C1308,1186.31371 1305.31371,1189 1302,1189 L138,1189 C134.686292,1189 132,1186.31371 132,1183 L132,481 L132,407 C132,403.686292 134.686292,401 138,401 L1308,401 L1308,482 L1305.3178,482 Z" id="path-1"></path>
        <filter x="-0.9%" y="-1.1%" width="101.8%" height="102.7%" filterUnits="objectBoundingBox" id="filter-2">
            <feMorphology radius="0.5" operator="dilate" in="SourceAlpha" result="shadowSpreadOuter1"></feMorphology>
            <feOffset dx="0" dy="2" in="shadowSpreadOuter1" result="shadowOffsetOuter1"></feOffset>
            <feGaussianBlur stdDeviation="3" in="shadowOffsetOuter1" result="shadowBlurOuter1"></feGaussianBlur>
            <feComposite in="shadowBlurOuter1" in2="SourceAlpha" operator="out" result="shadowBlurOuter1"></feComposite>
            <feColorMatrix values="0 0 0 0 0   0 0 0 0 0   0 0 0 0 0  0 0 0 0.1 0" type="matrix" in="shadowBlurOuter1"></feColorMatrix>
        </filter>
    </defs>
    <g id="Purchase2" stroke="none" stroke-width="1" fill="none" fill-rule="evenodd" transform="translate(-126.000000, -397.000000)">
        <g id="Combined-Shape">
            <use fill="black" fill-opacity="1" filter="url(#filter-2)" xlink:href="#path-1"></use>
            <use fill="#FFFFFF" fill-rule="evenodd" xlink:href="#path-1"></use>
            <path stroke-opacity="0.2" stroke="#000000" stroke-width="0.5" d="M1306.06259,482.25 C1307.43232,483.421403 1308.25,485.141398 1308.25,487 L1308.25,1183 C1308.25,1186.45178 1305.45178,1189.25 1302,1189.25 L138,1189.25 C134.54822,1189.25 131.75,1186.45178 131.75,1183 L131.75,407 C131.75,403.54822 134.54822,400.75 138,400.75 L1308.25,400.75 L1308.25,482.25 L1306.06259,482.25 Z"></path>
        </g>
    </g>
</svg>