<?xml version="1.0" encoding="UTF-8"?>
<svg width="184px" height="30px" viewBox="0 0 184 30" version="1.1" xmlns="http://www.w3.org/2000/svg" xmlns:xlink="http://www.w3.org/1999/xlink">
    <!-- Generator: Sketch 50 (54983) - http://www.bohemiancoding.com/sketch -->
    <title>Group 19</title>
    <desc>Created with Sketch.</desc>
    <defs></defs>
    <g id="desktop" stroke="none" stroke-width="1" fill="none" fill-rule="evenodd">
        <g id="Purchase3" transform="translate(-205.000000, -974.000000)">
            <g id="Group-18" transform="translate(132.000000, 422.000000)">
                <g id="Group-19" transform="translate(73.000000, 552.000000)">
                    <g id="MasterCard-dark" transform="translate(135.000000, 0.000000)">
                        <path d="M29.3464657,15.3640516 C29.3464657,23.4477433 22.7939777,30 14.7105173,30 C6.62682558,30 0.073875,23.4477433 0.073875,15.3640516 C0.073875,7.2805912 6.62682558,0.727640623 14.7105173,0.727640623 C22.7939777,0.727640623 29.3464657,7.2805912 29.3464657,15.3640516" id="Fill-333" fill="#CC0000"></path>
                        <path d="M34.3605796,0.727640623 C30.577905,0.727640623 27.1324654,2.16239239 24.5345076,4.5160977 C24.0059879,4.99581319 23.5126257,5.51392442 23.0571967,6.0655741 L26.0143628,6.0655741 C26.418212,6.55731718 26.7903732,7.07427191 27.1301524,7.61574441 L21.9411759,7.61574441 C21.6307717,8.11326997 21.3485861,8.6302247 21.0978573,9.16591471 L27.9730083,9.16591471 C28.2080088,9.66760366 28.4147907,10.1843271 28.5928914,10.7153911 L20.4779742,10.7153911 C20.3091255,11.220087 20.1666449,11.737273 20.0528455,12.2646362 L29.0175576,12.2646362 C29.2322036,13.2638507 29.3464657,14.3005358 29.3464657,15.3640516 C29.3464657,16.9889317 29.0816276,18.55298 28.5928914,20.0136373 L20.4779742,20.0136373 C20.656075,20.5442387 20.8628569,21.0616561 21.0973947,21.5640389 L27.9730083,21.5640389 C27.7218169,22.0983411 27.4410191,22.6157585 27.1287646,23.1139779 L21.9411759,23.1139779 C22.2795673,23.6538313 22.6524223,24.1714799 23.0571967,24.6625291 L26.0134376,24.6625291 C25.5589338,25.2146414 25.065109,25.7327526 24.5349702,26.2124681 C27.1326967,28.5661734 30.577905,30 34.3605796,30 C42.4438087,30 48.996528,23.4477433 48.996528,15.3640516 C48.996528,7.2812851 42.4438087,0.727640623 34.3605796,0.727640623" id="Fill-334" fill="#FF9900"></path>
                        <path d="M11.2926023,16.9664956 C11.1258352,16.9475291 11.0522819,16.9415153 10.9377886,16.9415153 C10.0371077,16.9415153 9.5816787,17.2505316 9.5816787,17.8609314 C9.5816787,18.2367933 9.80395767,18.4757259 10.1509072,18.4757259 C10.7983149,18.4757259 11.2648463,17.8595436 11.2926023,16.9664956 L11.2926023,16.9664956 Z M12.4484066,19.6567419 L11.1313864,19.6567419 L11.1616867,19.0310764 C10.7601504,19.5251324 10.2242291,19.7610581 9.49632912,19.7610581 C8.6354318,19.7610581 8.04492378,19.0889013 8.04492378,18.1121228 C8.04492378,16.6417509 9.07166295,15.7843231 10.8343976,15.7843231 C11.0150427,15.7843231 11.2458797,15.8009767 11.482268,15.8308143 C11.5313035,15.631434 11.5442563,15.5467783 11.5442563,15.439224 C11.5442563,15.0395382 11.2676219,14.889656 10.5253813,14.889656 C9.74798315,14.8817918 9.1068205,15.0753896 8.84337019,15.1618957 C8.86002377,15.0615117 9.06379876,13.8039354 9.06379876,13.8039354 C9.85530619,13.571248 10.3775808,13.4842793 10.9653132,13.4842793 C12.3299812,13.4842793 13.0527926,14.0967608 13.0511735,15.2546469 C13.0539491,15.5652823 13.0023693,15.947158 12.9225709,16.4509287 C12.7847163,17.3252414 12.4886528,19.2003877 12.4484066,19.6567419 L12.4484066,19.6567419 Z" id="Fill-336" fill="#000066"></path>
                        <polyline id="Fill-337" fill="#000066" points="7.37993726 19.6567419 5.79067732 19.6567419 6.70153537 13.9501168 4.66864268 19.6567419 3.58592899 19.6567419 3.45200649 13.9820362 2.49535111 19.6567419 1.00809431 19.6567419 2.25040477 12.2327169 4.53541408 12.2327169 4.67349998 16.3882465 6.06754301 12.2327169 8.60883234 12.2327169 7.37993726 19.6567419"></polyline>
                        <path d="M36.3238511,16.9664956 C36.1570841,16.9475291 36.084456,16.9415153 35.970194,16.9415153 C35.0688192,16.9415153 34.6138528,17.2505316 34.6138528,17.8609314 C34.6138528,18.2367933 34.8352065,18.4757259 35.1830812,18.4757259 C35.8300264,18.4757259 36.2967891,17.8595436 36.3238511,16.9664956 L36.3238511,16.9664956 Z M37.4803494,19.6567419 L36.1637918,19.6567419 L36.1936294,19.0310764 C35.7920932,19.5251324 35.2564032,19.7610581 34.5289658,19.7610581 C33.666912,19.7610581 33.0770978,19.0889013 33.0770978,18.1121228 C33.0770978,16.6417509 34.1042996,15.7843231 35.8665717,15.7843231 C36.0469854,15.7843231 36.2773599,15.8009767 36.5139794,15.8308143 C36.5632463,15.631434 36.5759678,15.5467783 36.5759678,15.439224 C36.5759678,15.0395382 36.2993334,14.889656 35.5570928,14.889656 C34.7796946,14.8817918 34.1387633,15.0753896 33.8743878,15.1618957 C33.8919665,15.0615117 34.0962041,13.8039354 34.0962041,13.8039354 C34.887249,13.571248 35.4099862,13.4842793 35.9967934,13.4842793 C37.3623866,13.4842793 38.0842728,14.0967608 38.082885,15.2546469 C38.0856606,15.5652823 38.0345434,15.947158 37.9542824,16.4509287 C37.8168904,17.3252414 37.520133,19.2003877 37.4803494,19.6567419 L37.4803494,19.6567419 Z" id="Fill-338" fill="#000066"></path>
                        <path d="M19.5099852,19.564916 C19.0749105,19.7018454 18.7360565,19.7610581 18.3682901,19.7610581 C17.556197,19.7610581 17.1127955,19.2942954 17.1127955,18.4345546 C17.1014618,18.1676348 17.2296019,17.4656403 17.3304485,16.8254028 C17.4225058,16.261263 18.0197215,12.7052621 18.0197215,12.7052621 L19.5988042,12.7052621 L19.4144584,13.619127 L20.3685695,13.619127 L20.1532295,15.070301 L19.1958802,15.070301 C19.0124596,16.2182412 18.7508597,17.6485983 18.7478528,17.838264 C18.7478528,18.1495934 18.913926,18.2855976 19.2921009,18.2855976 C19.4732085,18.2855976 19.6133761,18.2670936 19.7204679,18.2286979 L19.5099852,19.564916" id="Fill-339" fill="#000066"></path>
                        <path d="M24.3524748,19.5161118 C23.8098458,19.6819536 23.2868773,19.7629085 22.7319894,19.7610581 C20.9637035,19.7587451 20.0419744,18.8358595 20.0419744,17.0675736 C20.0419744,15.003918 21.2144323,13.4842793 22.8064679,13.4842793 C24.1084536,13.4842793 24.9404385,14.3349994 24.9404385,15.6686733 C24.9404385,16.1120747 24.8835388,16.5441425 24.7454529,17.1538484 L21.6002402,17.1538484 C21.4940736,18.0297802 22.0542814,18.3945397 22.9736975,18.3945397 C23.5383,18.3945397 24.048547,18.2779647 24.6154625,18.014977 L24.3524748,19.5161118 L24.3524748,19.5161118 Z M23.4647467,15.9369809 C23.4737674,15.8109225 23.6319764,14.8591245 22.7292138,14.8591245 C22.2268309,14.8591245 21.8666974,15.2426193 21.7207473,15.9369809 L23.4647467,15.9369809 L23.4647467,15.9369809 Z" id="Fill-340" fill="#000066"></path>
                        <path d="M13.4013612,15.5280431 C13.4013612,16.2911006 13.7714407,16.81777 14.6110584,17.2135237 C15.2543028,17.5162949 15.3544555,17.6058079 15.3544555,17.879898 C15.3544555,18.2557599 15.0704196,18.4264591 14.4419784,18.4264591 C13.9675828,18.4264591 13.5267256,18.3519806 13.0180977,18.1875265 C13.0180977,18.1875265 12.8096967,19.5188873 12.7997508,19.5824948 C13.1608096,19.660674 13.4827787,19.7335334 14.4533121,19.7610581 C16.129772,19.7610581 16.9041632,19.122671 16.9041632,17.7429686 C16.9041632,16.913528 16.5803437,16.4266422 15.7842103,16.0602636 C15.1182986,15.7547167 15.0412758,15.686252 15.0412758,15.4045291 C15.0412758,15.0781652 15.3056513,14.9113982 15.8189052,14.9113982 C16.1309285,14.9113982 16.5567511,14.9447053 16.9608316,15.0018363 L17.1868114,13.6015482 C16.7755606,13.5360904 16.1515142,13.4842793 15.7883737,13.4842793 C14.0110671,13.4842793 13.3955787,14.4124848 13.4013612,15.5280431" id="Fill-341" fill="#000066"></path>
                        <path d="M32.0804276,13.6436448 C32.5217474,13.6436448 32.9339234,13.7583694 33.5003762,14.0444871 L33.7605883,12.4332537 C33.5269757,12.341659 32.7079436,11.8048125 32.0140446,11.8048125 C30.9509914,11.8048125 30.0512357,12.3331009 29.4195564,13.2030189 C28.4971333,12.8977034 28.1175706,13.5148109 27.6531209,14.1300679 L27.240251,14.2262886 C27.2714765,14.0239014 27.2999263,13.822902 27.2909056,13.619127 L25.8309422,13.619127 C25.6320245,15.4882595 25.2788299,17.3807533 25.0024268,19.2505797 L24.93003,19.6567419 L26.5197526,19.6567419 C26.7850533,17.9326343 26.9300782,16.8291036 27.0184346,16.0815431 L27.6170381,15.7498594 C27.7070137,15.4165566 27.9861924,15.3046076 28.547788,15.3182543 C28.474466,15.7119263 28.4346824,16.1266466 28.4346824,16.5557074 C28.4346824,18.5312378 29.501899,19.7610581 31.2116661,19.7610581 C31.652292,19.7610581 32.0306982,19.7032332 32.6165802,19.5436364 L32.895065,17.8519107 C32.3681644,18.110735 31.9367905,18.23263 31.5456628,18.23263 C30.621852,18.23263 30.0628007,17.5505273 30.0628007,16.4238666 C30.0628007,14.7888094 30.8936291,13.6436448 32.0804276,13.6436448" id="Fill-342" fill="#000066"></path>
                        <path d="M45.5332783,12.2327169 L45.1800837,14.3775586 C44.7463968,13.8060171 44.2796341,13.3919907 43.6634518,13.3919907 C42.8617672,13.3919907 42.1320168,13.9998462 41.6541517,14.8949759 C40.9887026,14.75689 40.3010487,14.5221209 40.3010487,14.5221209 L40.3005861,14.5279034 C40.3535537,14.0276022 40.3759898,13.7232118 40.3706699,13.619127 L38.9109378,13.619127 C38.712714,15.4882595 38.3590568,17.3807533 38.082885,19.2505797 L38.0097943,19.6567419 L39.5999795,19.6567419 C39.8146255,18.2633928 39.978617,17.1050441 40.0995867,16.1877097 C40.6431409,15.6964292 40.9151493,15.2692188 41.4630982,15.2969747 C41.2200023,15.8849384 41.0782156,16.5617212 41.0782156,17.2560828 C41.0782156,18.7648505 41.8410418,19.7610581 42.9966149,19.7610581 C43.5790275,19.7610581 44.0258984,19.5600587 44.461667,19.0946838 L44.3867259,19.6562793 L45.8901736,19.6562793 L47.1005647,12.2327169 L45.5332783,12.2327169 L45.5332783,12.2327169 Z M43.5461829,18.262005 C43.0054043,18.262005 42.7315455,17.8609314 42.7315455,17.071737 C42.7315455,15.8849384 43.2434117,15.0437016 43.9639101,15.0437016 C44.5100086,15.0437016 44.8060721,15.4591158 44.8060721,16.2261054 C44.8060721,17.4230812 44.2856479,18.262005 43.5461829,18.262005 L43.5461829,18.262005 Z" id="Fill-343" fill="#000066"></path>
                        <polyline id="Fill-344" fill="#FFFFFF" points="7.83698538 19.2161161 6.24818804 19.2161161 7.15881479 13.509491 5.12638471 19.2161161 4.04320841 19.2161161 3.90951721 13.5425668 2.95263053 19.2161161 1.46537374 19.2161161 2.70768419 11.7927849 4.9926935 11.7927849 5.05653221 16.3882465 6.59837572 11.7927849 9.06611176 11.7927849 7.83698538 19.2161161"></polyline>
                        <path d="M11.7498817,16.526795 C11.5833459,16.5073658 11.5097926,16.5020459 11.3952993,16.5020459 C10.4946184,16.5020459 10.0389581,16.8105997 10.0389581,17.4205369 C10.0389581,17.7959362 10.2614684,18.0362565 10.6086492,18.0362565 C11.2558256,18.0362565 11.722357,17.4200743 11.7498817,16.526795 L11.7498817,16.526795 Z M12.9054548,19.2161161 L11.5891284,19.2161161 L11.6191974,18.5909131 C11.2176612,19.0847379 10.6817399,19.3208948 9.95383984,19.3208948 C9.09271122,19.3208948 8.5024345,18.6478128 8.5024345,17.6712657 C8.5024345,16.2006625 9.52940497,15.3443911 11.2921397,15.3443911 C11.4723221,15.3443911 11.7031591,15.3608134 11.9397787,15.391345 C11.9888142,15.1915021 12.001767,15.1066151 12.001767,14.9985982 C12.001767,14.5991436 11.7251326,14.450418 10.982892,14.450418 C10.2052626,14.441166 9.56433122,14.6347638 9.30064961,14.7210386 C9.31753449,14.6211171 9.52107819,13.3635409 9.52107819,13.3635409 C10.3128169,13.131316 10.8350915,13.0436535 11.422824,13.0436535 C12.7872606,13.0436535 13.5098408,13.6568288 13.5086843,14.8142523 C13.5112286,15.1244252 13.4601113,15.5081513 13.3800817,16.0105342 C13.2419958,16.884153 12.9459322,18.7604558 12.9054548,19.2161161 L12.9054548,19.2161161 Z" id="Fill-345" fill="#FFFFFF"></path>
                        <path d="M34.2176365,11.9926278 L33.9574243,13.6036299 C33.3900463,13.3184374 32.9790268,13.2030189 32.5381696,13.2030189 C31.3518337,13.2030189 30.5196175,14.3495713 30.5196175,15.9848599 C30.5196175,17.1115205 31.0789001,17.7922354 32.0027109,17.7922354 C32.39407,17.7922354 32.826369,17.6712657 33.3521131,17.4115162 L33.0729344,19.1032419 C32.4879776,19.2626073 32.1093401,19.3208948 31.6689455,19.3208948 C29.958022,19.3208948 28.8924244,18.0908433 28.8924244,16.1157755 C28.8924244,13.4618432 30.365572,11.6070513 32.471324,11.6070513 C33.165223,11.6070513 33.9847177,11.9010331 34.2176365,11.9926278" id="Fill-346" fill="#FFFFFF"></path>
                        <path d="M36.7808992,16.526795 C36.6152887,16.5073658 36.5415041,16.5020459 36.4272421,16.5020459 C35.5270238,16.5020459 35.0711322,16.8105997 35.0711322,17.4205369 C35.0711322,17.7959362 35.2934112,18.0362565 35.6403606,18.0362565 C36.2873058,18.0362565 36.7542998,17.4200743 36.7808992,16.526795 L36.7808992,16.526795 Z M37.9373975,19.2161161 L36.6210712,19.2161161 L36.6509088,18.5909131 C36.2493726,19.0847379 35.7134513,19.3208948 34.9862452,19.3208948 C34.1241914,19.3208948 33.5346086,18.6478128 33.5346086,17.6712657 C33.5346086,16.2006625 34.5606538,15.3443911 36.3238511,15.3443911 C36.5040336,15.3443911 36.734408,15.3608134 36.9707963,15.391345 C37.0200631,15.1915021 37.0330159,15.1066151 37.0330159,14.9985982 C37.0330159,14.5991436 36.7570754,14.450418 36.0143722,14.450418 C35.2374366,14.441166 34.5967366,14.6347638 34.3325924,14.7210386 C34.349246,14.6211171 34.553021,13.3635409 34.553021,13.3635409 C35.3447597,13.131316 35.8665717,13.0436535 36.4543041,13.0436535 C37.8187408,13.0436535 38.5420148,13.6568288 38.5401644,14.8142523 C38.5434026,15.1244252 38.4918228,15.5081513 38.4117931,16.0105342 C38.2741698,16.884153 37.9781063,18.7604558 37.9373975,19.2161161 L37.9373975,19.2161161 Z" id="Fill-347" fill="#FFFFFF"></path>
                        <path d="M19.9670333,19.1245214 C19.5324212,19.2614508 19.1931046,19.3208948 18.8258008,19.3208948 C18.0134764,19.3208948 17.5698436,18.8539008 17.5698436,17.9950852 C17.5587413,17.7272402 17.6871126,17.0264022 17.7881905,16.3854709 C17.8795539,15.8208684 18.4770009,12.2653301 18.4770009,12.2653301 L20.0565463,12.2653301 L19.8717378,13.1789638 L20.6826744,13.1789638 L20.4666405,14.6296752 L19.6531597,14.6296752 C19.469739,15.7787719 19.2081391,17.2082038 19.2049009,17.3978695 C19.2049009,17.710124 19.371668,17.845203 19.7493803,17.845203 C19.9304879,17.845203 20.0704242,17.827393 20.1779786,17.788072 L19.9670333,19.1245214" id="Fill-348" fill="#FFFFFF"></path>
                        <path d="M24.8104481,19.0766424 C24.2675878,19.2429469 23.7434628,19.3213574 23.1892688,19.3208948 C21.4207516,19.3197383 20.4997164,18.3956962 20.4997164,16.6276416 C20.4997164,14.5632922 21.6719431,13.0436535 23.2628221,13.0436535 C24.5661957,13.0436535 25.3977179,13.8943736 25.3977179,15.2296665 C25.3977179,15.6721428 25.339893,16.1039792 25.2034262,16.7139164 L22.0577509,16.7139164 C21.9511217,17.5898482 22.5120234,17.9553017 23.4305144,17.9553017 C23.9955794,17.9553017 24.5055952,17.838264 25.0732045,17.5745824 L24.8104481,19.0766424 L24.8104481,19.0766424 Z M23.9224887,15.496355 C23.9310468,15.3700654 24.0899497,14.4187299 23.1874184,14.4187299 C22.684573,14.4187299 22.3244394,14.8029186 22.1780267,15.496355 L23.9224887,15.496355 L23.9224887,15.496355 Z" id="Fill-349" fill="#FFFFFF"></path>
                        <path d="M13.8584094,15.0874172 C13.8584094,15.8518626 14.2289514,16.3773754 15.0688005,16.7735917 C15.7120448,17.0761317 15.811735,17.1656446 15.811735,17.439966 C15.811735,17.8162906 15.5279303,17.9860645 14.8990265,17.9860645 C14.4250935,17.9860645 13.9840051,17.9125112 13.4751458,17.7485198 C13.4751458,17.7485198 13.2669761,19.0789554 13.2572615,19.1416376 C13.618089,19.2207421 13.9402894,19.2929076 14.9103602,19.3208948 C16.5872827,19.3208948 17.361674,18.6827391 17.361674,17.3030366 C17.361674,16.4731335 17.0373918,15.986479 16.2414897,15.6210255 C15.5753467,15.3145535 15.4987865,15.2467827 15.4987865,14.9645971 C15.4987865,14.6382333 15.7629307,14.4703097 16.2766473,14.4703097 C16.5879766,14.4703097 17.0142619,14.5050047 17.4181111,14.5619044 L17.6443221,13.1618476 C17.23284,13.0968524 16.6092562,13.0436535 16.2458844,13.0436535 C14.4681152,13.0436535 13.8530895,13.9720903 13.8584094,15.0874172" id="Fill-350" fill="#FFFFFF"></path>
                        <path d="M46.3474531,19.2161161 L44.8444679,19.2161161 L44.9189464,18.6542892 C44.4829465,19.1198954 44.0363069,19.3208948 43.4538943,19.3208948 C42.2992465,19.3208948 41.5352637,18.3258437 41.5352637,16.815457 C41.5352637,14.8073133 42.7197492,13.1146624 44.1207313,13.1146624 C44.7369135,13.1146624 45.203445,13.3663165 45.638057,13.9380892 L45.9905577,11.7927849 L47.5576129,11.7927849 L46.3474531,19.2161161 L46.3474531,19.2161161 Z M44.003231,17.8211479 C44.7436212,17.8211479 45.2631203,16.9826866 45.2631203,15.7868674 C45.2631203,15.0196464 44.967288,14.6028444 44.4211895,14.6028444 C43.7004598,14.6028444 43.1888249,15.4443126 43.1888249,16.6315737 C43.1888249,17.4216934 43.462915,17.8211479 44.003231,17.8211479 L44.003231,17.8211479 Z" id="Fill-351" fill="#FFFFFF"></path>
                        <path d="M39.3686798,13.1789638 C39.1699934,15.0476337 38.8165675,16.9401275 38.5401644,18.8101852 L38.4677676,19.2161161 L40.0570276,19.2161161 C40.6255621,15.524111 40.7622602,14.8036125 41.6541517,14.8935881 C41.7959384,14.1379321 42.0603139,13.4761838 42.2571499,13.1426497 C41.5917008,13.0038699 41.2200023,13.3799632 40.7328852,14.0946791 C40.7717435,13.7854315 40.8418273,13.4854358 40.8286432,13.1789638 L39.3686798,13.1789638" id="Fill-352" fill="#FFFFFF"></path>
                        <path d="M26.2889155,13.1789638 C26.0893039,15.0476337 25.7354154,16.9401275 25.4594749,18.8101852 L25.3873094,19.2161161 L26.977032,19.2161161 C27.5457978,15.524111 27.6820333,14.8036125 28.572537,14.8935881 C28.7152489,14.1379321 28.980087,13.4761838 29.1764604,13.1426497 C28.5117052,13.0038699 28.1393128,13.3799632 27.6531209,14.0946791 C27.6915166,13.7854315 27.762063,13.4854358 27.748185,13.1789638 L26.2889155,13.1789638" id="Fill-353" fill="#FFFFFF"></path>
                    </g>
                    <g id="Group-11" transform="translate(78.000000, 2.000000)">
                        <rect id="Rectangle" fill="#0072CE" x="0" y="0" width="45" height="27" rx="2"></rect>
                        <path d="M38.7,15.9926472 L37.0886718,15.9926472 C36.9277955,15.9926472 36.8209166,15.9989459 36.7308839,16.0625165 C36.6376159,16.1251539 36.6016921,16.2181186 36.6016921,16.3408273 C36.6016921,16.486748 36.6804567,16.5860114 36.7950336,16.6289362 C36.8883016,16.6628794 36.9884867,16.672794 37.135752,16.672794 L37.6149222,16.686208 C38.0984434,16.6986888 38.4211999,16.7855881 38.618,16.9975289 C38.6538122,17.0270396 38.6753442,17.0601663 38.7,17.093293 L38.7,15.9926472 Z M38.7,18.5428189 C38.485238,18.8711697 38.066759,19.0376196 37.5002338,19.0376196 L35.7928484,19.0376196 L35.7928484,18.2081693 L37.4933167,18.2081693 C37.6620025,18.2081693 37.7800379,18.1849573 37.8511046,18.1124052 C37.9126883,18.0525672 37.9556407,17.965668 37.9556407,17.8601058 C37.9556407,17.7474284 37.9126883,17.6579631 37.8476461,17.6043072 C37.7834964,17.5452857 37.6901168,17.5184577 37.5361576,17.5184577 C36.706005,17.488947 35.6703504,17.5452857 35.6703504,16.3212312 C35.6703504,15.7601771 36.0110688,15.1696123 36.9388404,15.1696123 L38.6998884,15.1696123 L38.6998884,14.4 L37.0636813,14.4 C36.5698961,14.4 36.2112158,14.5236419 35.9571831,14.71587 L35.9571831,14.4 L33.5370111,14.4 C33.1499934,14.4 32.6957021,14.5003132 32.4808286,14.71587 L32.4808286,14.4 L28.1590372,14.4 L28.1590372,14.71587 C27.8150834,14.4564553 27.2347241,14.4 26.9668573,14.4 L24.1161574,14.4 L24.1161574,14.71587 C23.8440512,14.4403586 23.2389246,14.4 22.8700918,14.4 L19.6796775,14.4 L18.9495985,15.2260676 L18.2658187,14.4 L13.5,14.4 L13.5,19.7973172 L18.1761207,19.7973172 L18.9284012,18.9581855 L19.6370598,19.7973172 L22.5194441,19.8 L22.5194441,18.530338 L22.8028183,18.530338 C23.185262,18.5365201 23.6363178,18.5204234 24.0342689,18.3405595 L24.0342689,19.7972006 L26.4117116,19.7972006 L26.4117116,18.3904828 L26.5264001,18.3904828 C26.6727729,18.3904828 26.6871648,18.3967815 26.6871648,18.5497008 L26.6871648,19.7970839 L33.9094139,19.7970839 C34.3679446,19.7970839 34.8472264,19.6743752 35.1126387,19.4517032 L35.1126387,19.7970839 L37.4035072,19.7970839 C37.880223,19.7970839 38.3457822,19.7272146 38.7,19.5482838 L38.7,18.5428189 L38.7,18.5428189 Z M35.1733299,16.9975289 C35.3454741,17.1838082 35.4377381,17.418961 35.4377381,17.8170645 C35.4377381,18.6491975 34.9404944,19.0376196 34.0488697,19.0376196 L32.3268694,19.0376196 L32.3268694,18.2081693 L34.0419527,18.2081693 C34.2096344,18.2081693 34.3285623,18.1849573 34.4030875,18.1124052 C34.4638902,18.0525672 34.507512,17.965668 34.507512,17.8601058 C34.507512,17.7474284 34.4603202,17.6579631 34.399629,17.6043072 C34.3320208,17.5452857 34.2387528,17.5184577 34.0847936,17.5184577 C33.2579879,17.488947 32.2225564,17.5452857 32.2225564,16.3212312 C32.2225564,15.7601771 32.5597048,15.1696123 33.4865839,15.1696123 L35.2590115,15.1696123 L35.2590115,15.9928804 L33.6371962,15.9928804 C33.4764315,15.9928804 33.3718954,15.9991792 33.2829784,16.0627498 C33.1861403,16.1253872 33.1502165,16.2183519 33.1502165,16.3410606 C33.1502165,16.4869813 33.2324396,16.5862447 33.3436696,16.6291695 C33.4369376,16.6631126 33.5371227,16.6730273 33.687735,16.6730273 L34.1636698,16.6864413 C34.6436209,16.6986888 34.9730713,16.7854714 35.1733299,16.9975289 L35.1733299,16.9975289 Z M27.1955649,16.7586435 C27.0773063,16.8320121 26.9310451,16.8383108 26.7590124,16.8383108 L25.6849795,16.8383108 L25.6849795,15.9695518 L26.7736274,15.9695518 C26.9310451,15.9695518 27.0885744,15.9730511 27.1955649,16.0394211 C27.3101418,16.1020585 27.3786425,16.2218512 27.3786425,16.387368 C27.3786425,16.5528848 27.3101418,16.686208 27.1955649,16.7586435 L27.1955649,16.7586435 Z M27.7295133,17.2400302 C27.9263133,17.315965 28.0871895,17.4520877 28.1626072,17.5647651 C28.2874481,17.7536105 28.3055216,17.9298585 28.3090916,18.2708068 L28.3090916,19.0376196 L27.4214833,19.0376196 L27.4214833,18.5536667 C27.4214833,18.3209634 27.4429037,17.9763992 27.278569,17.7965353 C27.1493771,17.6579631 26.9524655,17.6248364 26.6299321,17.6248364 L25.6850911,17.6248364 L25.6850911,19.0376196 L24.7967018,19.0376196 L24.7967018,15.1694956 L26.8378886,15.1694956 C27.285486,15.1694956 27.6114779,15.1901415 27.9016575,15.3520423 C28.1806807,15.5282903 28.3561719,15.7697419 28.3561719,16.2110033 C28.3560604,16.8283962 27.9622371,17.1434496 27.7295133,17.2400302 L27.7295133,17.2400302 Z M28.846387,15.1694956 L31.7971604,15.1694956 L31.7971604,15.9694351 L29.7268552,15.9694351 L29.7268552,16.6726774 L31.7466216,16.6726774 L31.7466216,17.4618857 L29.7268552,17.4618857 L29.7268552,18.231498 L31.7971604,18.2349973 L31.7971604,19.0376196 L28.846387,19.0376196 L28.846387,15.1694956 L28.846387,15.1694956 Z M22.8813598,16.9546042 L21.7388263,16.9546042 L21.7388263,15.9695518 L22.8916238,15.9695518 C23.2108103,15.9695518 23.4323777,16.1055578 23.4323777,16.4438233 C23.4323777,16.7783562 23.2210742,16.9546042 22.8813598,16.9546042 L22.8813598,16.9546042 Z M20.8582465,18.6858235 L19.5008394,17.1102063 L20.8582465,15.584629 L20.8582465,18.6858235 L20.8582465,18.6858235 Z M17.3527736,18.231498 L15.179048,18.231498 L15.179048,17.4618857 L17.1200498,17.4618857 L17.1200498,16.6726774 L15.179048,16.6726774 L15.179048,15.9694351 L17.3956144,15.9694351 L18.3626568,17.0966757 L17.3527736,18.231498 L17.3527736,18.231498 Z M24.3815697,16.4438233 C24.3815697,17.5183411 23.6147859,17.7401966 22.8419775,17.7401966 L21.7388263,17.7401966 L21.7388263,19.0376196 L20.020396,19.0376196 L18.9317481,17.7571098 L17.800371,19.0376196 L14.2983566,19.0376196 L14.2983566,15.1694956 L17.8542567,15.1694956 L18.9420121,16.4374079 L20.0665837,15.1694956 L22.8916238,15.1694956 C23.5932539,15.1694956 24.3815697,15.3725716 24.3815697,16.4438233 L24.3815697,16.4438233 Z" id="EXPRESS" fill="#FFFFFF"></path>
                        <path d="M10.0079008,11.0672921 L9.40864624,9.52458499 L8.81281666,11.0672921 L10.0079008,11.0672921 Z M23.2093984,10.4529872 C23.0890835,10.5301401 22.9467826,10.5327079 22.7763089,10.5327079 L21.7126984,10.5327079 L21.7126984,9.67317136 L22.790782,9.67317136 C22.9433577,9.67317136 23.1025623,9.68040809 23.2059735,9.74297078 C23.319549,9.79934722 23.3898156,9.91933685 23.3898156,10.0850813 C23.3898156,10.2542106 23.3229739,10.3903078 23.2093984,10.4529872 L23.2093984,10.4529872 Z M30.7970832,11.0672921 L30.1911998,9.52458499 L29.5886308,11.0672921 L30.7970832,11.0672921 L30.7970832,11.0672921 Z M16.6531738,12.7371088 L15.7556178,12.7371088 L15.7523034,9.70632025 L14.4827544,12.7371088 L13.7140204,12.7371088 L12.441157,9.70363566 L12.441157,12.7371088 L10.6604076,12.7371088 L10.3239899,11.8739538 L8.50103637,11.8739538 L8.16119365,12.7371088 L7.21027483,12.7371088 L8.7781253,8.86732665 L10.0789407,8.86732665 L11.5680175,12.5312122 L11.5680175,8.86732665 L12.9969921,8.86732665 L14.1428012,11.4925082 L15.1953635,8.86732665 L16.6530634,8.86732665 L16.6530634,12.7371088 L16.6531738,12.7371088 Z M20.2304715,12.7371088 L17.3056807,12.7371088 L17.3056807,8.86732665 L20.2304715,8.86732665 L20.2304715,9.67317136 L18.1812508,9.67317136 L18.1812508,10.3706986 L20.181307,10.3706986 L20.181307,11.1639374 L18.1812508,11.1639374 L18.1812508,11.93675 L20.2304715,11.93675 L20.2304715,12.7371088 L20.2304715,12.7371088 Z M24.3543237,9.90953225 C24.3543237,10.5265217 23.9645431,10.8452879 23.737392,10.9409995 C23.9289679,11.0180356 24.0925918,11.1541328 24.1704816,11.2668857 C24.294111,11.4593593 24.315434,11.63129 24.315434,11.9769021 L24.315434,12.7371088 L23.4323511,12.7371088 L23.4290367,12.2490965 C23.4290367,12.0162372 23.4501388,11.6813635 23.2908237,11.4951928 C23.1628855,11.3590956 22.9678847,11.3295651 22.6526795,11.3295651 L21.7128088,11.3295651 L21.7128088,12.7371088 L20.8373492,12.7371088 L20.8373492,8.86732665 L22.8511052,8.86732665 C23.2985574,8.86732665 23.6282358,8.87981584 23.9112907,9.05268027 C24.1882692,9.2255447 24.3543237,9.47789642 24.3543237,9.90953225 L24.3543237,9.90953225 Z M25.7554568,12.7371088 L24.8620991,12.7371088 L24.8620991,8.86732665 L25.7554568,8.86732665 L25.7554568,12.7371088 L25.7554568,12.7371088 Z M36.1195549,12.7371088 L34.8788418,12.7371088 L33.2192912,9.83261283 L33.2192912,12.7371088 L31.4362217,12.7371088 L31.0954952,11.8739538 L29.27674,11.8739538 L28.9461778,12.7371088 L27.9216779,12.7371088 C27.4961011,12.7371088 26.9572803,12.6376621 26.6521289,12.3090913 C26.3444365,11.9805205 26.184348,11.5354617 26.184348,10.8317482 C26.184348,10.257829 26.2800254,9.73316618 26.6563272,9.31857168 C26.9393822,9.00972679 27.3826361,8.86732665 27.9859785,8.86732665 L28.8335966,8.86732665 L28.8335966,9.69651565 L28.0037661,9.69651565 C27.684252,9.69651565 27.5038349,9.74670586 27.3300466,9.92575653 C27.1807854,10.0886996 27.0783686,10.3967275 27.0783686,10.8023344 C27.0783686,11.2169289 27.1563689,11.5158525 27.3191089,11.7111274 C27.453897,11.864266 27.6988357,11.9107211 27.9293012,11.9107211 L28.3225067,11.9107211 L29.5564805,8.86744337 L30.8683441,8.86744337 L32.3506815,12.5277105 L32.3506815,8.86744337 L33.6837577,8.86744337 L35.2227723,11.5625411 L35.2227723,8.86744337 L36.1195549,8.86744337 L36.1195549,12.7371088 L36.1195549,12.7371088 Z M7.20011048,13.4971987 L8.69603715,13.4971987 L9.03333879,12.6376621 L9.78848346,12.6376621 L10.1249012,13.4971987 L13.068253,13.4971987 L13.068253,12.8400571 L13.3309792,13.5 L14.8589457,13.5 L15.121672,12.8302525 L15.121672,13.4971987 L22.4364661,13.4971987 L22.4330412,12.0862701 L22.5745687,12.0862701 C22.6736711,12.0898885 22.7026173,12.0995763 22.7026173,12.2724408 L22.7026173,13.4971987 L26.4858535,13.4971987 L26.4858535,13.1687446 C26.7910048,13.3414923 27.2656356,13.4971987 27.8901905,13.4971987 L29.4817946,13.4971987 L29.8224107,12.6376621 L30.5775554,12.6376621 L30.9106587,13.4971987 L33.9777503,13.4971987 L33.9777503,12.6807323 L34.4422168,13.4971987 L36.9,13.4971987 L36.9,8.1 L34.4676276,8.1 L34.4676276,8.7374157 L34.1270116,8.1 L31.631112,8.1 L31.631112,8.7374157 L31.3183374,8.1 L27.9469783,8.1 C27.3826361,8.1 26.8865718,8.18322238 26.4858535,8.41514785 L26.4858535,8.1 L24.1593229,8.1 L24.1593229,8.41514785 C23.9043304,8.17610237 23.5568644,8.1 23.1705087,8.1 L14.6707948,8.1 L14.1004866,9.49400398 L13.5148213,8.1 L10.8376208,8.1 L10.8376208,8.7374157 L10.5435176,8.1 L8.26029603,8.1 L7.2,10.6661205 L7.2,13.4971987 L7.20011048,13.4971987 Z" id="AMERICAN" fill="#FFFFFF"></path>
                    </g>
                    <g id="Group-12" transform="translate(0.000000, 4.000000)">
                        <polyline id="Fill-3" fill="#26337A" points="23.5295272 21.3468169 26.9117382 0.365323944 32.3180811 0.365323944 28.9361793 21.3468169 23.5295272 21.3468169"></polyline>
                        <path d="M48.5466954,0.880309859 C47.4777336,0.459211268 45.796523,0 43.7021991,0 C38.3570811,0 34.5945336,2.84729577 34.5633028,6.92442254 C34.5292889,9.94028169 37.2482304,11.6221972 39.2980272,12.6245915 C41.4047198,13.6520845 42.1125166,14.3096056 42.1041677,15.228338 C42.0896346,16.6335493 40.4226479,17.2774366 38.8682161,17.2774366 C36.7037,17.2774366 35.5537235,16.9604507 33.7757281,16.1771268 L33.0803,15.8430986 L32.3242654,20.5396338 C33.5849415,21.1240282 35.9220005,21.6312676 38.3474954,21.6579155 C44.0281134,21.6579155 47.7192318,18.8450141 47.7625221,14.4911831 C47.7820028,12.0996901 46.3413627,10.2870141 43.2213673,8.79039437 C41.3320539,7.81743662 40.1724917,7.17292958 40.185788,6.18819718 C40.1870249,5.31625352 41.1653862,4.38264789 43.2829014,4.38264789 C45.0513111,4.35414085 46.3314677,4.76253521 47.3290005,5.18890141 L47.8144705,5.42873239 L48.5466954,0.880309859" id="Fill-4" fill="#26337A"></path>
                        <path d="M55.7455668,13.9080282 C56.1936217,12.7020563 57.8992604,8.04332394 57.8992604,8.04332394 C57.8677203,8.09878873 58.3448415,6.82805634 58.6178797,6.0416338 L58.9827553,7.85121127 C58.9827553,7.85121127 60.020177,12.8591549 60.2338456,13.9080282 L55.7455668,13.9080282 L55.7455668,13.9080282 Z M62.4153687,0.386704225 L58.2372341,0.386704225 C56.9413074,0.386704225 55.9712949,0.757915493 55.4035733,2.12594366 L47.3747645,21.3542535 L53.053218,21.3542535 C53.053218,21.3542535 53.9796309,18.7675493 54.1898982,18.1998873 C54.809259,18.1998873 60.3269198,18.2107324 61.1144945,18.2107324 C61.276524,18.9429296 61.7728166,21.3542535 61.7728166,21.3542535 L66.7907834,21.3542535 L62.4153687,0.386704225 L62.4153687,0.386704225 Z" id="Fill-5" fill="#26337A"></path>
                        <path d="M18.9939382,0.382985915 L13.7023147,14.6873239 L13.1355207,11.7796056 C12.149429,8.42940845 9.07983594,4.79816901 5.64629493,2.97867606 L10.4873899,21.3285352 L16.2091336,21.3251268 L24.7231032,0.382985915 L18.9939382,0.382985915" id="Fill-6" fill="#26337A"></path>
                        <path d="M8.7901,0.368732394 L0.0717382488,0.368732394 L0,0.803464789 C6.78390276,2.54146479 11.2724908,6.73664789 13.1355207,11.7796056 L11.2409507,2.13895775 C10.9141088,0.809352113 9.96419539,0.415211268 8.7901,0.368732394" id="Fill-7" fill="#EC982D"></path>
                    </g>
                </g>
            </g>
        </g>
    </g>
</svg>