<?xml version="1.0" encoding="UTF-8"?>
<svg width="126px" height="35px" viewBox="0 0 126 35" version="1.1" xmlns="http://www.w3.org/2000/svg" xmlns:xlink="http://www.w3.org/1999/xlink">
    <!-- Generator: Sketch 50 (54983) - http://www.bohemiancoding.com/sketch -->
    <title>PayPal_2014_logo (1)</title>
    <desc>Created with Sketch.</desc>
    <defs></defs>
    <g id="desktop" stroke="none" stroke-width="1" fill="none" fill-rule="evenodd">
        <g id="PayPal_2014_logo-(1)" fill-rule="nonzero">
            <path d="M69.18243,9.94413 L64.51618,9.94413 C64.06993,9.94413 63.65243,10.16538 63.40243,10.53538 L56.96493,20.01538 L54.23743,10.90538 C54.06618,10.33538 53.54118,9.94413 52.94618,9.94413 L48.35993,9.94413 C47.80618,9.94413 47.41618,10.48913 47.59493,11.01288 L52.73243,26.09538 L47.89993,32.91413 C47.52118,33.44913 47.90393,34.18913 48.55993,34.18913 L53.22118,34.18913 C53.66243,34.18913 54.07618,33.97288 54.32868,33.61038 L69.84618,11.21288 C70.21743,10.67663 69.83488,9.94413 69.18243,9.94413 M37.98656,18.98025 C37.53781,21.63275 35.43281,23.414 32.74656,23.414 C31.40031,23.414 30.32156,22.98025 29.62906,22.16025 C28.94281,21.34775 28.68406,20.189 28.90156,18.90025 C29.31906,16.27025 31.45906,14.43275 34.10406,14.43275 C35.42281,14.43275 36.49281,14.87025 37.19906,15.69775 C37.91031,16.5315 38.19031,17.6965 37.98656,18.98025 M44.45656,9.944 L39.81406,9.944 C39.41656,9.944 39.07781,10.23275 39.01531,10.6265 L38.81156,11.924 L38.48781,11.454 C37.48156,9.99525 35.24031,9.5065 33.00281,9.5065 C27.87406,9.5065 23.49281,13.394 22.64031,18.84525 C22.19656,21.56525 22.82656,24.164 24.36906,25.97775 C25.78531,27.644 27.80656,28.33775 30.21531,28.33775 C34.35031,28.33775 36.64281,25.68275 36.64281,25.68275 L36.43531,26.97275 C36.35781,27.46275 36.73656,27.9065 37.23406,27.9065 L41.41406,27.9065 C42.07781,27.9065 42.64156,27.42525 42.74531,26.77025 L45.25531,10.87775 C45.33281,10.38775 44.95281,9.944 44.45656,9.944 M16.59743,10.0555 C16.06743,13.5355 13.40993,13.5355 10.83868,13.5355 L9.37618,13.5355 L10.40243,7.038 C10.46363,6.6455 10.80243,6.35675 11.19993,6.35675 L11.87118,6.35675 C13.62118,6.35675 15.27368,6.35675 16.12618,7.353 C16.63618,7.94925 16.78993,8.83425 16.59743,10.0555 M15.47868,0.9755 L5.78368,0.9755 C5.11993,0.9755 4.55618,1.458 4.45243,2.113 L0.53243,26.973 C0.45493,27.463 0.83368,27.90675 1.32993,27.90675 L5.95993,27.90675 C6.62243,27.90675 7.18618,27.42425 7.28993,26.7705 L8.34868,20.063 C8.45118,19.408 9.01618,18.9255 9.67868,18.9255 L12.74618,18.9255 C19.13243,18.9255 22.81868,15.8355 23.78118,9.70925 C24.21493,7.03175 23.79868,4.92675 22.54493,3.453 C21.16618,1.833 18.72243,0.9755 15.47868,0.9755" id="path14519" fill="#002F86"></path>
            <path d="M119.07806,1.65863 L115.09931,26.97363 C115.02181,27.46363 115.40056,27.90738 115.89681,27.90738 L119.89931,27.90738 C120.56181,27.90738 121.12681,27.42488 121.22931,26.76988 L125.15306,1.90988 C125.23056,1.41988 124.85181,0.97613 124.35431,0.97613 L119.87681,0.97613 C119.47806,0.97613 119.13931,1.26488 119.07806,1.65863 M107.13631,18.98025 C106.68756,21.63275 104.58256,23.414 101.89631,23.414 C100.55006,23.414 99.47131,22.98025 98.77881,22.16025 C98.09131,21.34775 97.83381,20.189 98.05131,18.90025 C98.46881,16.27025 100.60881,14.43275 103.25381,14.43275 C104.57256,14.43275 105.64256,14.87025 106.34881,15.69775 C107.06006,16.5315 107.34006,17.6965 107.13631,18.98025 M113.60631,9.944 L108.96381,9.944 C108.56631,9.944 108.22756,10.23275 108.16506,10.6265 L107.96131,11.924 L107.63631,11.454 C106.63131,9.99525 104.39006,9.5065 102.15256,9.5065 C97.02381,9.5065 92.64256,13.394 91.79006,18.84525 C91.34631,21.56525 91.97631,24.164 93.51881,25.97775 C94.93506,27.644 96.95631,28.33775 99.36506,28.33775 C103.50006,28.33775 105.79256,25.68275 105.79256,25.68275 L105.58506,26.97275 C105.50756,27.46275 105.88631,27.9065 106.38381,27.9065 L110.56381,27.9065 C111.22756,27.9065 111.79131,27.42525 111.89506,26.77025 L114.40506,10.87775 C114.48256,10.38775 114.10256,9.944 113.60631,9.944 M85.74706,10.0555 C85.21706,13.5355 82.55956,13.5355 79.98831,13.5355 L78.52581,13.5355 L79.55206,7.038 C79.61336,6.6455 79.95206,6.35675 80.34956,6.35675 L81.02081,6.35675 C82.77081,6.35675 84.42331,6.35675 85.27581,7.353 C85.78581,7.94925 85.93956,8.83425 85.74706,10.0555 M84.62831,0.9755 L74.93331,0.9755 C74.26956,0.9755 73.70581,1.458 73.60206,2.113 L69.68206,26.973 C69.60456,27.463 69.98456,27.90675 70.47956,27.90675 L75.45456,27.90675 C75.91831,27.90675 76.31331,27.56925 76.38581,27.11175 L77.49831,20.063 C77.60081,19.408 78.16581,18.9255 78.82831,18.9255 L81.89581,18.9255 C88.28206,18.9255 91.96831,15.8355 92.93081,9.70925 C93.36456,7.03175 92.94831,4.92675 91.69456,3.453 C90.31581,1.833 87.87206,0.9755 84.62831,0.9755" id="path14523" fill="#009CDE"></path>
        </g>
    </g>
</svg>