<?xml version="1.0" encoding="UTF-8"?>
<svg width="24px" height="24px" viewBox="0 0 24 24" version="1.1" xmlns="http://www.w3.org/2000/svg" xmlns:xlink="http://www.w3.org/1999/xlink">
    <!-- Generator: Sketch 48.2 (47327) - http://www.bohemiancoding.com/sketch -->
    <title>Group 4</title>
    <desc>Created with Sketch.</desc>
    <defs>
        <linearGradient x1="50%" y1="0.797193878%" x2="50%" y2="100%" id="linearGradient-1">
            <stop stop-color="#2C2934" stop-opacity="0" offset="0%"></stop>
            <stop stop-color="#FFFFFF" offset="100%"></stop>
        </linearGradient>
        <linearGradient x1="50%" y1="100%" x2="50%" y2="0.797193878%" id="linearGradient-2">
            <stop stop-color="#2C2934" stop-opacity="0" offset="0%"></stop>
            <stop stop-color="#FFFFFF" offset="100%"></stop>
        </linearGradient>
        <linearGradient x1="97.3465764%" y1="49.841992%" x2="2.6534236%" y2="49.841992%" id="linearGradient-3">
            <stop stop-color="#FFFFFF" stop-opacity="0" offset="0%"></stop>
            <stop stop-color="#2F2C37" offset="100%"></stop>
        </linearGradient>
        <linearGradient x1="1.80431272%" y1="48.9928812%" x2="98.1956873%" y2="48.9928812%" id="linearGradient-4">
            <stop stop-color="#FFFFFF" stop-opacity="0" offset="0%"></stop>
            <stop stop-color="#2F2C37" offset="100%"></stop>
        </linearGradient>
    </defs>
    <g id="iPhone-8-Copy-2" stroke="none" stroke-width="1" fill="none" fill-rule="evenodd" transform="translate(-24.000000, -32.000000)">
        <g id="Group-4" transform="translate(24.000000, 32.000000)">
            <path d="M6.54545455,24 L0,24 L0,18 L6.54545455,18 L6.54545455,24 Z M9.81818182,24 L9.81818182,18 L14.7272727,18 C16.5347501,18 18,16.5347501 18,14.7272727 L18,9.81818182 L24,9.81818182 L24,24 L9.81818182,24 Z M6.54545455,9.81818182 L6.54545455,14.7272727 L0,14.7272727 L0,0 L14.7272727,0 L14.7272727,6.54545455 L9.81818182,6.54545455 C8.01070446,6.54545455 6.54545455,8.01070446 6.54545455,9.81818182 Z M9.81818182,9.81818182 L14.7272727,9.81818182 L14.7272727,14.7272727 L9.81818182,14.7272727 L9.81818182,18 Z M24,6.54545455 L18,6.54545455 L18,1.11910481e-13 L24,0 L24,6.54545455 Z" id="Combined-Shape-Copy-5" fill="#2F2C37" transform="translate(12.000000, 12.000000) rotate(-360.000000) translate(-12.000000, -12.000000) "></path>
            <rect id="Rectangle-5-Copy-5" fill="url(#linearGradient-1)" x="14.7272727" y="18" width="3.27272727" height="6"></rect>
            <rect id="Rectangle-5-Copy-6" fill="url(#linearGradient-2)" x="6.54545455" y="0" width="3.27272727" height="6"></rect>
            <polygon id="Rectangle-5-Copy-7" fill="url(#linearGradient-3)" points="9.81818182 18 9.81818182 14.7272727 14.7272727 14.7272727 14.7272727 18"></polygon>
            <polygon id="Rectangle-5-Copy-8" fill="url(#linearGradient-4)" points="9.81818182 9.81818182 9.81818182 6.54545455 14.7272727 6.54545455 14.7272727 9.81818182"></polygon>
        </g>
    </g>
</svg>