<?xml version="1.0" encoding="UTF-8"?>
<svg width="100px" height="14px" viewBox="0 0 100 14" version="1.1" xmlns="http://www.w3.org/2000/svg" xmlns:xlink="http://www.w3.org/1999/xlink">
    <!-- Generator: Sketch 48.2 (47327) - http://www.bohemiancoding.com/sketch -->
    <title>Group 5</title>
    <desc>Created with Sketch.</desc>
    <defs></defs>
    <g id="iPhone-8-Copy-2" stroke="none" stroke-width="1" fill="none" fill-rule="evenodd" transform="translate(-56.000000, -37.000000)">
        <g id="Group-5" transform="translate(56.000000, 37.000000)">
            <path d="M9.33911582,0 L11.6695143,0 L11.6695143,14 L9.33911582,14 L9.33911582,8.1725 L2.33039851,8.1725 L2.33039851,14 L0,14 L0,8.1725 L2.33039851,5.8275 L9.33911582,5.8275 L9.33911582,0 Z M20.1675841,9.345 L19.0111457,11.655 L17.8196638,14 L15.2264384,14 L22.2351557,0 L26.9134745,9.345 L24.2852055,9.345 L22.2351557,5.2325 L20.1675841,9.345 Z M28.0699128,11.6725 L29.243873,14 L26.6331258,14 L25.4766874,11.6725 L28.0699128,11.6725 Z M36.8833748,8.1725 L33.396538,8.1725 C32.2576214,8.1725 31.2939228,7.77 30.5054421,6.9825 C29.7169614,6.1775 29.3139601,5.215 29.3139601,4.0775 C29.3139601,2.9575 29.7169614,2.0125 30.5054421,1.2075 C31.2939228,0.4025 32.2576214,0 33.396538,0 L33.396538,2.345 C33.1512329,2.345 32.9234496,2.38 32.713188,2.4675 C32.4854047,2.555 32.3101868,2.6775 32.1349689,2.8525 C31.9772727,3.01 31.8546202,3.2025 31.7670112,3.4125 C31.6794022,3.6225 31.6443587,3.85 31.6443587,4.0775 C31.6443587,4.5675 31.8020548,4.97 32.1349689,5.32 C32.4854047,5.67 32.888406,5.845 33.396538,5.845 L36.8833748,5.845 C38.0222914,5.845 38.98599,6.2475 39.7744707,7.035 C40.5804732,7.84 40.9834745,8.8025 40.9834745,9.9225 C40.9834745,11.0425 40.5804732,12.005 39.7744707,12.81 C38.98599,13.5975 38.0222914,14 36.8833748,14 L36.8833748,11.655 C37.12868,11.655 37.3564633,11.62 37.5667248,11.5325 C37.7945081,11.445 37.9872478,11.3225 38.144944,11.165 C38.3026401,11.0075 38.4252927,10.8325 38.5129016,10.605 C38.6005106,10.395 38.653076,10.1675 38.653076,9.9225 C38.653076,9.45 38.4603362,9.0475 38.1274222,8.6975 C37.7769863,8.3475 37.3739851,8.1725 36.8833748,8.1725 Z M53.9496015,0 L56.28,0 L56.28,14 L53.9496015,14 L53.9496015,8.1725 L46.9408842,8.1725 L46.9408842,14 L44.6104857,14 L44.6104857,8.1725 L46.9408842,5.8275 L53.9496015,5.8275 L53.9496015,0 Z" id="HASH-Copy" fill="#2F2C37"></path>
            <polygon id="Rectangle" fill="#00C6BC" points="0 0 2.24 0 2.24 4.48 0 6.72"></polygon>
            <polygon id="Rectangle-Copy" fill="#00C6BC" points="44.52 0 46.76 0 46.76 4.48 44.52 6.72"></polygon>
            <path d="M58.8,14 L58.8,12.04 L60.76,12.04 L60.76,14 L58.8,14 Z M72.5754955,1.6177 C73.4718318,2.52665 73.92,3.6071 73.92,4.85905 C73.92,6.111 73.4890691,7.2086 72.5754955,8.1004 C71.6791592,8.9922 70.5932132,9.4381 69.3348949,9.4381 L64.7325526,9.4381 L64.7325526,14 L62.44,14 L62.44,7.14 L69.3348949,7.14 C69.9554354,7.14 70.4897898,6.91705 70.937958,6.47115 C71.3861261,6.02525 71.6274474,5.4936 71.6274474,4.85905 C71.6274474,4.24165 71.4033634,3.69285 70.937958,3.24695 C70.4897898,2.80105 69.9554354,2.5781 69.3348949,2.5781 L62.44,2.5781 L62.44,0.28 L69.3348949,0.28 C70.5932132,0.28 71.6791592,0.7259 72.5754955,1.6177 Z M82.3494976,7.43155 C81.8149109,8.2033 81.1423663,8.7521 80.3318639,9.07795 L83.16,14 L80.5215559,14 L76.520778,7.12285 L78.5729011,7.14 C79.1937115,7.14 79.7282982,6.91705 80.1766613,6.47115 C80.642269,6.02525 80.8664506,5.47645 80.8664506,4.8419 C80.8664506,4.2245 80.642269,3.69285 80.1766613,3.24695 C79.7282982,2.80105 79.1937115,2.5781 78.5729011,2.5781 L73.9685575,2.5781 L73.7098865,2.32085 L72.52,0.28 L78.5729011,0.28 C79.8317666,0.28 80.9181848,0.7259 81.8149109,1.6177 C82.711637,2.52665 83.16,3.58995 83.16,4.8419 C83.16,5.8023 82.901329,6.6598 82.3494976,7.43155 Z M92.5314357,0.28 C94.4327091,0.28 96.0256679,0.966 97.3616979,2.3037 C98.7148564,3.6414 99.4,5.2535 99.4,7.14 C99.4,9.04365 98.7148564,10.65575 97.3616979,11.9763 C96.0256679,13.314 94.4327091,14 92.5314357,14 C90.6301623,14 89.0372035,13.314 87.7011735,11.9763 C86.3651436,10.6386 85.68,9.04365 85.68,7.14 C85.68,5.2535 86.3651436,3.6414 87.7011735,2.3037 C89.0200749,0.966 90.6301623,0.28 92.5314357,0.28 Z M92.54,2.52 C91.2721053,2.52 90.1778947,2.95421053 89.2573684,3.87473684 C88.3542105,4.77789474 87.92,5.87210526 87.92,7.14 C87.92,8.40789474 88.3542105,9.51947368 89.2573684,10.4226316 C90.1605263,11.3257895 91.2721053,11.76 92.54,11.76 C93.8078947,11.76 94.9021053,11.3257895 95.8052632,10.4226316 C96.7257895,9.50210526 97.16,8.40789474 97.16,7.14 C97.16,5.87210526 96.7084211,4.77789474 95.8052632,3.87473684 C94.9021053,2.97157895 93.8078947,2.52 92.54,2.52 Z" id=".PRO" fill="#2F2C37"></path>
        </g>
    </g>
</svg>