<?xml version="1.0" encoding="UTF-8"?>
<svg width="185px" height="26px" viewBox="0 0 185 26" version="1.1" xmlns="http://www.w3.org/2000/svg" xmlns:xlink="http://www.w3.org/1999/xlink">
    <!-- Generator: Sketch 48.2 (47327) - http://www.bohemiancoding.com/sketch -->
    <title>Group 5</title>
    <desc>Created with Sketch.</desc>
    <defs>
        <linearGradient x1="50%" y1="0%" x2="50%" y2="82.4437978%" id="linearGradient-1">
            <stop stop-color="#FFFFFF" offset="0%"></stop>
            <stop stop-color="#FFFFFF" stop-opacity="0" offset="100%"></stop>
        </linearGradient>
    </defs>
    <g id="iPhone-8-Copy" stroke="none" stroke-width="1" fill="none" fill-rule="evenodd" transform="translate(-95.000000, -160.000000)">
        <g id="Group-5" transform="translate(95.000000, 160.000000)">
            <path d="M17.3440722,0 L21.6719552,0 L21.6719552,26 L17.3440722,26 L17.3440722,15.1775 L4.32788294,15.1775 L4.32788294,26 L0,26 L0,15.1775 L4.32788294,10.8225 L17.3440722,10.8225 L17.3440722,0 Z M37.4540847,17.355 L35.3064134,21.645 L33.0936613,26 L28.2776712,26 L41.2938605,0 L49.9821669,17.355 L45.1010959,17.355 L41.2938605,9.7175 L37.4540847,17.355 Z M52.1298381,21.6775 L54.3100498,26 L49.4615193,26 L47.3138481,21.6775 L52.1298381,21.6775 Z M68.4976961,15.1775 L62.022142,15.1775 C59.9070112,15.1775 58.1172852,14.43 56.6529639,12.9675 C55.1886426,11.4725 54.4402117,9.685 54.4402117,7.5725 C54.4402117,5.4925 55.1886426,3.7375 56.6529639,2.2425 C58.1172852,0.7475 59.9070112,0 62.022142,0 L62.022142,4.355 C61.5665753,4.355 61.1435492,4.42 60.7530635,4.5825 C60.3300374,4.745 60.0046326,4.9725 59.6792279,5.2975 C59.3863636,5.59 59.1585803,5.9475 58.995878,6.3375 C58.8331756,6.7275 58.7680946,7.15 58.7680946,7.5725 C58.7680946,8.4825 59.0609589,9.23 59.6792279,9.88 C60.3300374,10.53 61.0784682,10.855 62.022142,10.855 L68.4976961,10.855 C70.6128269,10.855 72.4025529,11.6025 73.8668742,13.065 C75.363736,14.56 76.1121669,16.3475 76.1121669,18.4275 C76.1121669,20.5075 75.363736,22.295 73.8668742,23.79 C72.4025529,25.2525 70.6128269,26 68.4976961,26 L68.4976961,21.645 C68.9532628,21.645 69.3762889,21.58 69.7667746,21.4175 C70.1898007,21.255 70.547746,21.0275 70.8406102,20.735 C71.1334745,20.4425 71.3612578,20.1175 71.5239601,19.695 C71.6866625,19.305 71.7842839,18.8825 71.7842839,18.4275 C71.7842839,17.55 71.4263387,16.8025 70.8080697,16.1525 C70.1572603,15.5025 69.4088294,15.1775 68.4976961,15.1775 Z M100.192117,0 L104.52,0 L104.52,26 L100.192117,26 L100.192117,15.1775 L87.1759278,15.1775 L87.1759278,26 L82.8480448,26 L82.8480448,15.1775 L87.1759278,10.8225 L100.192117,10.8225 L100.192117,0 Z" id="HASH-Copy" fill="#FFFFFF"></path>
            <polygon id="Rectangle" fill="url(#linearGradient-1)" points="0 0 4.16 0 4.16 8.32 0 12.48"></polygon>
            <polygon id="Rectangle-Copy" fill="url(#linearGradient-1)" points="82.68 0 86.84 0 86.84 8.32 82.68 12.48"></polygon>
            <path d="M109.2,26 L109.2,22.36 L112.84,22.36 L112.84,26 L109.2,26 Z M134.783063,3.0043 C136.447688,4.69235 137.28,6.6989 137.28,9.02395 C137.28,11.349 136.4797,13.3874 134.783063,15.0436 C133.118438,16.6998 131.101682,17.5279 128.764805,17.5279 L120.217598,17.5279 L120.217598,26 L115.96,26 L115.96,13.26 L128.764805,13.26 C129.917237,13.26 130.90961,12.84595 131.741922,12.01785 C132.574234,11.18975 133.022402,10.2024 133.022402,9.02395 C133.022402,7.87735 132.606246,6.85815 131.741922,6.03005 C130.90961,5.20195 129.917237,4.7879 128.764805,4.7879 L115.96,4.7879 L115.96,0.52 L128.764805,0.52 C131.101682,0.52 133.118438,1.3481 134.783063,3.0043 Z M152.934781,13.80145 C151.941977,15.2347 150.692966,16.2539 149.187747,16.85905 L154.44,26 L149.540032,26 L142.110016,13.22815 L145.921102,13.26 C147.074036,13.26 148.06684,12.84595 148.899514,12.01785 C149.764214,11.18975 150.180551,10.17055 150.180551,8.9921 C150.180551,7.8455 149.764214,6.85815 148.899514,6.03005 C148.06684,5.20195 147.074036,4.7879 145.921102,4.7879 L137.370178,4.7879 L136.889789,4.31015 L134.68,0.52 L145.921102,0.52 C148.258995,0.52 150.276629,1.3481 151.941977,3.0043 C153.607326,4.69235 154.44,6.66705 154.44,8.9921 C154.44,10.7757 153.959611,12.3682 152.934781,13.80145 Z M171.844095,0.52 C175.375031,0.52 178.333383,1.794 180.814582,4.2783 C183.327591,6.7626 184.6,9.7565 184.6,13.26 C184.6,16.79535 183.327591,19.78925 180.814582,22.2417 C178.333383,24.726 175.375031,26 171.844095,26 C168.313159,26 165.354806,24.726 162.873608,22.2417 C160.392409,19.7574 159.12,16.79535 159.12,13.26 C159.12,9.7565 160.392409,6.7626 162.873608,4.2783 C165.322996,1.794 168.313159,0.52 171.844095,0.52 Z M171.86,4.68 C169.505338,4.68 167.473233,5.48639098 165.763684,7.19593985 C164.086391,8.87323308 163.28,10.9053383 163.28,13.26 C163.28,15.6146617 164.086391,17.6790226 165.763684,19.3563158 C167.440977,21.033609 169.505338,21.84 171.86,21.84 C174.214662,21.84 176.246767,21.033609 177.92406,19.3563158 C179.633609,17.6467669 180.44,15.6146617 180.44,13.26 C180.44,10.9053383 179.601353,8.87323308 177.92406,7.19593985 C176.246767,5.51864662 174.214662,4.68 171.86,4.68 Z" id=".PRO" fill="#FFFFFF"></path>
        </g>
    </g>
</svg>