<?xml version="1.0" encoding="UTF-8"?>
<svg width="355px" height="50px" viewBox="0 0 355 50" version="1.1" xmlns="http://www.w3.org/2000/svg" xmlns:xlink="http://www.w3.org/1999/xlink">
    <!-- Generator: Sketch 48.2 (47327) - http://www.bohemiancoding.com/sketch -->
    <title>Group 5</title>
    <desc>Created with Sketch.</desc>
    <defs>
        <linearGradient x1="50%" y1="0%" x2="50%" y2="82.4437978%" id="linearGradient-1">
            <stop stop-color="#FFFFFF" offset="0%"></stop>
            <stop stop-color="#FFFFFF" stop-opacity="0" offset="100%"></stop>
        </linearGradient>
    </defs>
    <g id="1" stroke="none" stroke-width="1" fill="none" fill-rule="evenodd" transform="translate(-118.000000, -239.000000)">
        <g id="Group-6" transform="translate(118.000000, 239.000000)">
            <g id="Group-5">
                <path d="M33.3539851,0 L41.6768369,0 L41.6768369,50 L33.3539851,50 L33.3539851,29.1875 L8.32285181,29.1875 L8.32285181,50 L0,50 L0,29.1875 L8.32285181,20.8125 L33.3539851,20.8125 L33.3539851,0 Z M72.0270859,33.375 L67.8969489,41.625 L63.6416563,50 L54.380137,50 L79.4112702,0 L96.1195517,33.375 L86.7328767,33.375 L79.4112702,18.6875 L72.0270859,33.375 Z M100.249689,41.6875 L104.442403,50 L95.1183064,50 L90.9881694,41.6875 L100.249689,41.6875 Z M131.726339,29.1875 L119.27335,29.1875 C115.205791,29.1875 111.76401,27.75 108.948007,24.9375 C106.132005,22.0625 104.692715,18.625 104.692715,14.5625 C104.692715,10.5625 106.132005,7.1875 108.948007,4.3125 C111.76401,1.4375 115.205791,0 119.27335,0 L119.27335,8.375 C118.39726,8.375 117.583748,8.5 116.832814,8.8125 C116.019303,9.125 115.393524,9.5625 114.767746,10.1875 C114.204545,10.75 113.766501,11.4375 113.453611,12.1875 C113.140722,12.9375 113.015567,13.75 113.015567,14.5625 C113.015567,16.3125 113.578767,17.75 114.767746,19 C116.019303,20.25 117.458593,20.875 119.27335,20.875 L131.726339,20.875 C135.793898,20.875 139.235679,22.3125 142.051681,25.125 C144.930262,28 146.369552,31.4375 146.369552,35.4375 C146.369552,39.4375 144.930262,42.875 142.051681,45.75 C139.235679,48.5625 135.793898,50 131.726339,50 L131.726339,41.625 C132.602428,41.625 133.41594,41.5 134.166874,41.1875 C134.980386,40.875 135.668742,40.4375 136.231943,39.875 C136.795143,39.3125 137.233188,38.6875 137.546077,37.875 C137.858966,37.125 138.0467,36.3125 138.0467,35.4375 C138.0467,33.75 137.358344,32.3125 136.169365,31.0625 C134.917808,29.8125 133.478518,29.1875 131.726339,29.1875 Z M192.677148,0 L201,0 L201,50 L192.677148,50 L192.677148,29.1875 L167.646015,29.1875 L167.646015,50 L159.323163,50 L159.323163,29.1875 L167.646015,20.8125 L192.677148,20.8125 L192.677148,0 Z" id="HASH-Copy" fill="#FFFFFF"></path>
                <polygon id="Rectangle" fill="url(#linearGradient-1)" points="0 0 8 0 8 16 0 24"></polygon>
                <polygon id="Rectangle-Copy" fill="url(#linearGradient-1)" points="159 0 167 0 167 16 159 24"></polygon>
                <path d="M210,50 L210,43 L217,43 L217,50 L210,50 Z M259.198198,5.7775 C262.399399,9.02375 264,12.8825 264,17.35375 C264,21.825 262.460961,25.745 259.198198,28.93 C255.996997,32.115 252.118619,33.7075 247.624625,33.7075 L231.187688,33.7075 L231.187688,50 L223,50 L223,25.5 L247.624625,25.5 C249.840841,25.5 251.749249,24.70375 253.34985,23.11125 C254.95045,21.51875 255.812312,19.62 255.812312,17.35375 C255.812312,15.14875 255.012012,13.18875 253.34985,11.59625 C251.749249,10.00375 249.840841,9.2075 247.624625,9.2075 L223,9.2075 L223,1 L247.624625,1 C252.118619,1 255.996997,2.5925 259.198198,5.7775 Z M294.105348,26.54125 C292.19611,29.2975 289.794165,31.2575 286.899514,32.42125 L297,50 L287.576985,50 L273.288493,25.43875 L280.617504,25.5 C282.834684,25.5 284.743922,24.70375 286.345219,23.11125 C288.008104,21.51875 288.808752,19.55875 288.808752,17.2925 C288.808752,15.0875 288.008104,13.18875 286.345219,11.59625 C284.743922,10.00375 282.834684,9.2075 280.617504,9.2075 L264.17342,9.2075 L263.249595,8.28875 L259,1 L280.617504,1 C285.113452,1 288.993517,2.5925 292.19611,5.7775 C295.398703,9.02375 297,12.82125 297,17.2925 C297,20.7225 296.076175,23.785 294.105348,26.54125 Z M330.469413,1 C337.259675,1 342.948814,3.45 347.72035,8.2275 C352.553059,13.005 355,18.7625 355,25.5 C355,32.29875 352.553059,38.05625 347.72035,42.7725 C342.948814,47.55 337.259675,50 330.469413,50 C323.679151,50 317.990012,47.55 313.218477,42.7725 C308.446941,37.995 306,32.29875 306,25.5 C306,18.7625 308.446941,13.005 313.218477,8.2275 C317.928839,3.45 323.679151,1 330.469413,1 Z M330.5,9 C325.971805,9 322.06391,10.5507519 318.776316,13.8383459 C315.550752,17.0639098 314,20.9718045 314,25.5 C314,30.0281955 315.550752,33.9981203 318.776316,37.2236842 C322.00188,40.4492481 325.971805,42 330.5,42 C335.028195,42 338.93609,40.4492481 342.161654,37.2236842 C345.449248,33.9360902 347,30.0281955 347,25.5 C347,20.9718045 345.387218,17.0639098 342.161654,13.8383459 C338.93609,10.612782 335.028195,9 330.5,9 Z" id=".PRO" fill="#FFFFFF"></path>
            </g>
        </g>
    </g>
</svg>