<?xml version="1.0" encoding="UTF-8"?>
<svg width="16px" height="16px" viewBox="0 0 16 16" version="1.1" xmlns="http://www.w3.org/2000/svg" xmlns:xlink="http://www.w3.org/1999/xlink">
    <!-- Generator: Sketch 48.2 (47327) - http://www.bohemiancoding.com/sketch -->
    <title>Group 23</title>
    <desc>Created with Sketch.</desc>
    <defs></defs>
    <g id="首页" stroke="none" stroke-width="1" fill="none" fill-rule="evenodd" transform="translate(-862.000000, -5037.000000)" opacity="0.54">
        <g id="Group-34" transform="translate(0.000000, 4964.000000)">
            <g id="Group-35" transform="translate(530.000000, 40.000000)">
                <g id="Group-33" transform="translate(332.000000, 0.000000)">
                    <g id="Group-27" transform="translate(0.000000, 32.000000)">
                        <g id="Group-23" transform="translate(0.000000, 1.000000)">
                            <circle id="Oval-2" fill="#FFFFFF" cx="8" cy="8" r="8"></circle>
                            <path d="M11.3184034,5.18322453 C11.3282868,5.17165676 11.3367326,5.15635745 11.3507491,5.15337222 C11.3507491,5.15337222 11.3485927,5.15785007 11.327568,5.19852384 C11.3381702,5.21680838 11.3485927,5.23434662 11.3584762,5.25244458 C11.7270379,5.32688878 12,5.42241618 12,5.48435973 C12,5.53305631 11.83306,5.62858371 11.5845369,5.7306413 C11.6891215,5.99371481 11.7753768,6.27805808 11.8357555,6.57975301 C12.0224623,7.51263776 11.92848,8.39887828 11.6308992,9.02204529 C11.1282823,10.7448969 9.58808599,12 7.76306745,12 C6.04892293,12 4.58743458,10.8898671 4,9.32579257 C4.67099441,9.8411181 5.49796716,10.1480372 6.39574114,10.1480372 C6.89692042,10.1480372 7.37419978,10.0487783 7.81715672,9.87544826 C7.33556459,9.91033815 6.83995597,9.84484964 6.35854354,9.65528746 C4.73694378,9.01756744 4.4352299,7.00384242 4.4352299,7.00384242 C4.31447247,6.1985763 4.48842067,6.14390925 4.82194119,6.88144794 C4.82194119,6.88144794 5.21709832,7.75462807 6.3766931,8.21080871 C6.40760125,8.22312279 6.4385094,8.2311456 6.47013635,8.24140733 C6.45036951,8.23189191 6.43006357,8.22312279 6.41047643,8.21230133 C4.88088232,7.36542855 4.82894944,5.32763509 4.82894944,5.32763509 C4.80792471,4.51341328 4.98762326,4.48225493 5.22770053,5.25692243 C5.22770053,5.25692243 5.51198365,6.17600049 6.60634785,6.78162927 C7.15586603,7.08630943 7.74833217,7.21747302 8.3294773,7.19844218 C8.05867158,5.63287498 8.57027337,4.22701766 9.50668254,4.02439509 C9.92789595,3.93334554 10.3645634,4.10163795 10.7491184,4.45445496 C10.8599924,4.43990196 10.983625,4.44064827 11.1148049,4.46023885 C11.6007098,4.53617567 11.9992812,4.66006276 11.9992812,4.735813 C11.9992812,4.80354044 11.6821133,4.95877246 11.2679081,5.09870517 C11.2855185,5.12930379 11.3015117,5.15486484 11.3184034,5.18322453 Z" id="Page-1" fill="#000000"></path>
                        </g>
                    </g>
                </g>
            </g>
        </g>
    </g>
</svg>