<?xml version="1.0" encoding="UTF-8"?>
<svg width="16px" height="16px" viewBox="0 0 16 16" version="1.1" xmlns="http://www.w3.org/2000/svg" xmlns:xlink="http://www.w3.org/1999/xlink">
    <!-- Generator: Sketch 48.2 (47327) - http://www.bohemiancoding.com/sketch -->
    <title>Group 21</title>
    <desc>Created with Sketch.</desc>
    <defs></defs>
    <g id="首页" stroke="none" stroke-width="1" fill="none" fill-rule="evenodd" transform="translate(-862.000000, -5066.000000)" opacity="0.54">
        <g id="Group-34" transform="translate(0.000000, 4964.000000)">
            <g id="Group-35" transform="translate(530.000000, 40.000000)">
                <g id="Group-33" transform="translate(332.000000, 0.000000)">
                    <g id="Group-29" transform="translate(0.000000, 61.000000)">
                        <g id="Group-21" transform="translate(0.000000, 1.000000)">
                            <circle id="Oval-2-Copy" fill="#FFFFFF" cx="8" cy="8" r="8"></circle>
                            <path d="M5.59027176,4.04740586 L12.0061651,7.47993919 C12.1982718,7.58287252 12.3178451,7.78287252 12.3178451,8.00036586 C12.3178451,8.21785919 12.1982718,8.41743252 12.0061651,8.52036586 L5.58984509,11.9524725 C5.39485843,12.0570059 5.15197843,11.9832992 5.04733843,11.7883125 C4.99859176,11.6970059 4.98696509,11.5903392 5.01491176,11.4908192 L5.72531176,8.95823252 L8.70035176,7.99993919 L5.72531176,7.03076586 L5.01576509,4.50905919 C4.95571176,4.29615252 5.07987176,4.07492586 5.29277843,4.01497919 C5.39240509,3.98703252 5.49907176,3.99865919 5.59027176,4.04740586 Z" id="Page-1" fill="#000000"></path>
                        </g>
                    </g>
                </g>
            </g>
        </g>
    </g>
</svg>