<svg xmlns="http://www.w3.org/2000/svg" width="20" height="20" viewBox="0 0 20 20">
    <path fill="#FFF" fill-rule="evenodd" d="M10 20C4.477 20 0 15.523 0 10S4.477 0 10 0s10 4.477 10 10-4.477 10-10 10zM6.784 7.151c.67 0 1.086-.444 1.086-.998-.012-.566-.417-.997-1.073-.997-.656 0-1.086.43-1.086.997 0 .554.417.998 1.061.998h.012zm7.88 6.561v-3.31c0-1.773-.947-2.599-2.21-2.599-1.018 0-1.475.56-1.729.954v-.818H8.806c.025.542 0 5.773 0 5.773h1.92v-3.224c0-.172.012-.344.062-.468.139-.344.455-.701.985-.701.694 0 .972.529.972 1.305v3.089h1.919zm-6.92 0V7.94H5.825v5.773h1.919z" opacity=".5"/>
</svg>
