<svg xmlns="http://www.w3.org/2000/svg" width="20" height="20" viewBox="0 0 20 20">
    <path fill="#FFF" fill-rule="nonzero" d="M10 20C4.477 20 0 15.523 0 10S4.477 0 10 0s10 4.477 10 10-4.477 10-10 10zm5.333-12.772c-.338.188-.752.3-1.128.338.414-.263.715-.677.865-1.166a4.35 4.35 0 0 1-1.279.527c-.376-.414-.865-.677-1.429-.677-1.09 0-1.993.94-1.993 2.144 0 .15 0 .338.037.489-1.655-.075-3.121-.94-4.1-2.22-.187.302-.262.678-.262 1.091 0 .753.338 1.392.865 1.768a1.81 1.81 0 0 1-.903-.263v.037c0 1.016.677 1.881 1.58 2.107a2.22 2.22 0 0 1-.527.075c-.113 0-.263 0-.376-.038.263.865.978 1.467 1.843 1.467a3.84 3.84 0 0 1-2.445.903c-.15 0-.3 0-.489-.038a5.343 5.343 0 0 0 3.047.978c3.648 0 5.641-3.235 5.641-6.055V8.43c.452-.376.79-.752 1.053-1.203z"/>
</svg>
