<svg xmlns="http://www.w3.org/2000/svg" width="20" height="20" viewBox="0 0 20 20">
    <path fill="#FFF" fill-rule="nonzero" d="M10 20C4.477 20 0 15.523 0 10S4.477 0 10 0s10 4.477 10 10-4.477 10-10 10zm.328-7.61c.038.027.074.05.108.076l2.138 1.579c.426.314.79.179.9-.339L14.86 7.17c.058-.276.13-.551.158-.831.042-.437-.269-.657-.673-.5l-6.377 2.46c-.838.323-1.677.643-2.511.974a1.384 1.384 0 0 0-.398.249c-.125.11-.104.265.035.36.09.061.196.105.301.138.68.217 1.362.43 2.044.638.089.028.13.07.158.157.288.9.582 1.798.872 2.697.04.123.112.18.242.187.19.01.338-.062.47-.192.379-.372.76-.741 1.146-1.116zm-1.601.662l-.445-1.363c-.111-.341-.218-.683-.336-1.022-.035-.1-.018-.147.072-.204 1.6-1.006 3.199-2.015 4.798-3.022a.884.884 0 0 1 .24-.118c.061-.016.134.011.202.019-.03.056-.05.124-.094.165-.722.656-1.447 1.309-2.172 1.963-.654.59-1.308 1.181-1.965 1.77a.363.363 0 0 0-.13.262c-.04.495-.088.988-.133 1.482-.002.02-.009.04-.013.061a.956.956 0 0 0-.024.007z" opacity=".5"/>
</svg>
