<?xml version="1.0" encoding="UTF-8"?>
<svg width="202px" height="26px" viewBox="0 0 202 26" version="1.1" xmlns="http://www.w3.org/2000/svg" xmlns:xlink="http://www.w3.org/1999/xlink">
    <!-- Generator: Sketch 48.2 (47327) - http://www.bohemiancoding.com/sketch -->
    <title>logo 横版 黑0313</title>
    <desc>Created with Sketch.</desc>
    <defs></defs>
    <g id="首页" stroke="none" stroke-width="1" fill="none" fill-rule="evenodd" transform="translate(-208.000000, -5004.000000)">
        <g id="Group-34" transform="translate(0.000000, 4964.000000)">
            <g id="Group-36" transform="translate(208.000000, 40.000000)">
                <g id="Group-14-Copy">
                    <g id="logo-横版-黑0313">
                        <path d="M40.9433667,6.91189684 L41.9066597,6.91189684 L33.3637714,14.669868 L43.0220516,25.1329211 L42.160158,25.1329211 L32.9074748,15.0781822 L29.0036029,18.6254124 L29.0036029,25.1329211 L28.3952074,25.1329211 L28.3952074,6.91189684 L29.0036029,6.91189684 L29.0036029,17.8343035 L40.9433667,6.91189684 Z M50.4748979,6.91189684 L51.286092,6.91189684 L58.7389382,25.1329211 L58.0291433,25.1329211 L55.5955609,19.1358052 L46.1654289,19.1358052 L43.7318466,25.1329211 L43.0220516,25.1329211 L50.4748979,6.91189684 Z M46.4189272,18.5233339 L55.3420627,18.5233339 L50.9311946,7.57540752 L50.855145,7.57540752 L46.4189272,18.5233339 Z M60.6401744,6.91189684 L61.5781176,6.91189684 L73.8727789,24.4949301 L73.9234784,24.4949301 L73.9234784,6.91189684 L74.5318741,6.91189684 L74.5318741,25.1329211 L73.6192807,25.1329211 L61.2992696,7.47332895 L61.2485701,7.47332895 L61.2485701,25.1329211 L60.6401744,25.1329211 L60.6401744,6.91189684 Z M85.8632422,6.55462185 C87.9926269,6.55462185 89.7417642,7.14157361 91.0853045,8.36651642 C92.3020957,9.48938066 93.0879399,10.9950395 93.4174877,12.9090127 L92.7837423,12.9090127 C92.4795444,11.173677 91.7697496,9.821136 90.6543576,8.82586996 C89.4375664,7.70300573 87.8405279,7.16709325 85.8632422,7.16709325 C83.4550096,7.16709325 81.5537732,8.06028072 80.1341836,9.87217529 C78.8159931,11.5054324 78.1822477,13.598043 78.1822477,16.1244875 C78.1822477,18.6509321 78.8666928,20.718023 80.2355829,22.3002408 C81.7058723,24.0100569 83.7338576,24.8777247 86.3195389,24.8777247 C87.4856305,24.8777247 88.6770718,24.6990873 89.8431635,24.3418121 C91.009255,23.9845372 91.9218484,23.5251836 92.6316432,23.0147909 L92.6316432,16.8900768 L85.5083448,16.8900768 L85.5083448,16.2776054 L93.240039,16.2776054 L93.240039,23.3210265 C92.4795444,23.933498 91.4909016,24.4694104 90.2487605,24.8777247 C88.93057,25.2860389 87.6377293,25.4901961 86.3195389,25.4901961 C83.4803595,25.4901961 81.3002751,24.5459693 79.7285865,22.7085551 C78.283647,20.998739 77.5738521,18.8040499 77.5738521,16.1244875 C77.5738521,13.4704448 78.2582971,11.2502359 79.6778869,9.48938066 C81.1988758,7.52436825 83.252211,6.55462185 85.8632422,6.55462185 Z M102.518072,6.91189684 L103.329266,6.91189684 L110.782112,25.1329211 L110.072317,25.1329211 L107.638735,19.1358052 L98.208603,19.1358052 L95.7750205,25.1329211 L95.0652257,25.1329211 L102.518072,6.91189684 Z M98.4621012,18.5233339 L107.385237,18.5233339 L102.974369,7.57540752 L102.898319,7.57540752 L98.4621012,18.5233339 Z" id="KANGAPOOL" fill="#FFFFFF" fill-rule="nonzero"></path>
                        <path d="M112.45949,6.92533811 L115.921484,6.92533811 L122.0621,21.1713559 L122.163181,21.1713559 L128.278527,6.92533811 L131.740521,6.92533811 L131.740521,25.0890108 L128.783928,25.0890108 L128.783928,12.5728666 L128.682847,12.5728666 L123.376142,25.0890108 L120.823869,25.0890108 L115.517163,12.5728666 L115.416083,12.5728666 L115.416083,25.0890108 L112.45949,25.0890108 L112.45949,6.92533811 Z M135.278325,6.92533811 L138.234918,6.92533811 L138.234918,25.0890108 L135.278325,25.0890108 L135.278325,6.92533811 Z M141.772721,6.92533811 L144.729315,6.92533811 L153.649634,20.0265867 L153.750714,20.0265867 L153.750714,6.92533811 L156.732577,6.92533811 L156.732577,25.0890108 L153.851794,25.0890108 L144.830395,11.8096871 L144.729315,11.8096871 L144.729315,25.0890108 L141.772721,25.0890108 L141.772721,6.92533811 Z M160.270381,6.92533811 L163.226974,6.92533811 L163.226974,25.0890108 L160.270381,25.0890108 L160.270381,6.92533811 Z M166.764778,6.92533811 L169.721371,6.92533811 L178.641691,20.0265867 L178.742771,20.0265867 L178.742771,6.92533811 L181.724634,6.92533811 L181.724634,25.0890108 L178.843851,25.0890108 L169.822451,11.8096871 L169.721371,11.8096871 L169.721371,25.0890108 L166.764778,25.0890108 L166.764778,6.92533811 Z M193.096146,6.56918768 C195.420988,6.56918768 197.240432,7.07797403 198.579741,8.12098604 C199.868513,9.13855873 200.677154,10.6394785 201.005665,12.6746239 L198.023801,12.6746239 C197.771102,11.5044153 197.21516,10.6394785 196.40652,10.0543742 C195.572609,9.46926986 194.460727,9.18943738 193.096146,9.18943738 C191.403055,9.18943738 190.063744,9.74910236 189.078211,10.919311 C187.991601,12.1403982 187.46093,13.8448325 187.46093,16.0834924 C187.46093,18.2203951 187.941061,19.8739506 188.901322,21.0187199 C189.937392,22.2398072 191.554675,22.8503509 193.753167,22.8503509 C194.612348,22.8503509 195.420988,22.7485935 196.179089,22.545079 C196.886651,22.3415646 197.518401,22.0617319 198.124881,21.7055816 L198.124881,17.9660019 L193.348847,17.9660019 L193.348847,15.4220701 L201.081475,15.4220701 L201.081475,23.104744 C200.121214,23.8679235 199.034602,24.4275885 197.796372,24.8346175 C196.48233,25.2416466 195.041939,25.4451613 193.424657,25.4451613 C190.543874,25.4451613 188.320112,24.5293459 186.728099,22.6977149 C185.237168,20.9932807 184.504336,18.78006 184.504336,16.0834924 C184.504336,13.3614854 185.237168,11.1228255 186.728099,9.3675126 C188.294842,7.4850031 190.417523,6.56918768 193.096146,6.56918768 Z" id="MINING" fill="#FFFFFF" fill-rule="nonzero"></path>
                        <g id="袋鼠">
                            <path d="M10.2739567,0.0780682183 C11.0390386,0.0780682183 11.6037419,0.939966935 11.9680666,2.68210263 C11.9862828,2.81047053 12.077364,2.92050016 12.1866614,2.95717669 C16.2853144,4.80934203 18.3437489,5.98299135 18.3437489,6.47812464 C18.3437489,7.04661104 18.0522892,7.34002337 17.4511534,7.34002337 L13.9536362,7.34002337 C13.7350414,7.34002337 13.5528791,7.52340606 13.5528791,7.74346531 L13.5528791,16.4908204 C13.5528791,16.7108796 13.7350414,16.8942623 13.9536362,16.8942623 L18.1980191,16.8942623 C18.4166139,16.8942623 18.5987762,17.077645 18.5987762,17.2977043 L18.5987762,19.9017388 C18.5987762,21.9372868 17.0503962,22.8908768 13.9718525,22.7625089 C13.7532577,22.7625089 13.5710953,22.9275534 13.5710953,23.1476126 L13.5710953,23.239304 C13.5710953,23.4593632 13.7532577,23.6427459 13.9718525,23.6427459 L18.1433704,23.6427459 C18.817371,23.6427459 19.1999119,24.0645261 19.2909933,24.9264249 C19.3092094,25.1648223 19.1270471,25.3665433 18.9084523,25.3665433 L4.335464,25.3665433 C1.87627223,25.3665433 -0.145729883,22.2490374 0.182162352,19.2048843 C0.491838353,16.3257759 2.78708399,15.0604353 2.93281388,13.006549 C2.95103013,12.7314749 2.95103013,12.4747391 2.95103013,12.2363416 C2.95103013,11.7412083 3.67967952,11.6861935 3.73432824,12.1813268 C4.00757177,15.2254797 1.67589365,16.6375265 2.25881317,19.2048843 C2.53205671,20.3785338 3.09676001,21.2404325 3.95292306,21.7905805 C4.28081529,21.9923016 4.68157248,21.6622126 4.51762636,21.2954473 C4.09865294,20.3235189 3.93470683,19.3882672 4.04400423,18.5080301 C4.60870753,13.5750354 6.99503436,13.5383588 9.74568589,9.46726275 C9.78211835,9.39390966 9.81855083,9.32055658 9.81855083,9.2472035 L9.8003346,3.12222112 C9.8003346,1.0866731 9.96428072,0.0780682183 10.2739567,0.0780682183 Z" id="Path-2" fill="#FFFFFF" fill-rule="nonzero"></path>
                            <ellipse id="Oval" fill="#464646" fill-rule="nonzero" cx="12.2413101" cy="5.10275436" rx="1" ry="1"></ellipse>
                            <g id="Rectangle" transform="translate(14.937313, 9.346405)">
                                <path d="M0.473622119,0.146706165 L5.66524918,0.146706165 C5.86562777,0.146706165 6.02957389,0.3117506 6.02957389,0.513471575 L6.02957389,5.73987869 C6.02957389,5.94159966 5.86562777,6.10664409 5.66524918,6.10664409 L0.473622119,6.10664409 C0.27324353,6.10664409 0.109297412,5.94159966 0.109297412,5.73987869 L0.109297412,0.513471575 C0.109297412,0.3117506 0.27324353,0.146706165 0.473622119,0.146706165 Z" id="path-1" fill="#FFFFFF" fill-rule="nonzero"></path>
                                <path d="M0.710433176,0.385103681 L5.46487058,0.385103681 C5.66524918,0.385103681 5.82919529,0.550148116 5.82919529,0.751869092 L5.82919529,5.53815771 C5.82919529,5.73987869 5.66524918,5.90492312 5.46487058,5.90492312 L0.710433176,5.90492312 C0.510054588,5.90492312 0.34610847,5.73987869 0.34610847,5.53815771 L0.34610847,0.751869092 C0.34610847,0.550148116 0.510054588,0.385103681 0.710433176,0.385103681 Z" id="Shape" stroke="#FFFFFF"></path>
                            </g>
                        </g>
                    </g>
                </g>
            </g>
        </g>
    </g>
</svg>