<svg xmlns="http://www.w3.org/2000/svg" width="99" height="70" viewBox="0 0 99 70">
    <g fill="none" fill-rule="evenodd">
        <g fill-rule="nonzero">
            <path fill="#00C6BC" d="M20.135 45.353l4.57-2.023c2.85-1.262 5.704-2.518 8.549-3.791.284-.128.424-.084.617.158 2.942 3.699 5.895 7.388 8.846 11.08.055.068.107.138.16.206-6.827 5.172-18.131 3.421-22.742-5.63z"/>
            <path fill="#2F2C37" d="M50.82 36.148a15.241 15.241 0 0 0-.476-3.141 16.58 16.58 0 0 0-.62-1.906 14.37 14.37 0 0 0-.427-.971 14.28 14.28 0 0 0-.643-1.217c-.289-.497-.6-.967-.935-1.414a15.189 15.189 0 0 0-2.162-2.356 13.36 13.36 0 0 0-1.197-.957 15.178 15.178 0 0 0-1.675-1.066c-.532-.294-1.07-.55-1.61-.768-1.713-.706-3.422-1.043-4.915-1.052-.009.107-.022.22-.022.33v6.394c0 .505 0 1.011.003 1.516-.003.617-.003 1.23 0 1.848-.003.506 0 1.01.004 1.517-.004.617-.004 1.23 0 1.847l.003 1.516c.003.237.08.467.2.618l.66.829c.293.368.586.738.884 1.104.355.449.714.899 1.074 1.347.292.368.585.735.883 1.104.355.449.715.899 1.077 1.347l.883 1.105c.359.448.719.894 1.078 1.343l.884 1.106.6.752c.432.54.867 1.077 1.298 1.616 1.532-1.328 2.806-3.041 3.706-4.988a16.16 16.16 0 0 0 1.233-3.938c.09-.528.156-1.065.194-1.61.043-.61.05-1.23.017-1.855z"/>
            <path fill="#00C6BC" d="M32.631 18.102c-1.825 0-3.582.28-5.238.8a17.134 17.134 0 0 0-5.03 2.57 17.689 17.689 0 0 0-3.94 4.01 17.635 17.635 0 0 0-2.381 4.748 17.66 17.66 0 0 0-.854 5.45c0 .22 0 .44.01.649.06.88.169 1.75.367 2.61.149.65.357 1.59.565 2.45.118.359.259.718.397 1.07 5.18-2.04 10.338-4.47 16.104-6.78v-6.998c0-3.52 0-7.05.01-10.568v-.01h-.01z"/>
        </g>
        <g fill="#000" fill-rule="nonzero">
            <path d="M81.5 26a2.5 2.5 0 0 1 2.5 2.5v21a2.5 2.5 0 1 1-5 0v-21a2.5 2.5 0 0 1 2.5-2.5zM71.5 20a2.5 2.5 0 0 1 2.5 2.5v27a2.5 2.5 0 1 1-5 0v-27a2.5 2.5 0 0 1 2.5-2.5zM61.5 32a2.5 2.5 0 0 1 2.5 2.5v15a2.5 2.5 0 1 1-5 0v-15a2.5 2.5 0 0 1 2.5-2.5z"/>
        </g>
        <rect width="95" height="66" x="2" y="2" stroke="#2F2C37" stroke-width="4" rx="6"/>
    </g>
</svg>
