<svg xmlns="http://www.w3.org/2000/svg" width="79" height="80" viewBox="0 0 79 80">
    <g fill="none" fill-rule="evenodd">
        <path fill="#2F2C37" fill-rule="nonzero" d="M30.882 15.071a18.192 18.192 0 0 0-.054-4.571h27.675c8.821 0 15.997 7.177 15.997 16s-7.176 16-15.997 16h-9.14v-4.571h9.14c6.303 0 11.427-5.13 11.427-11.429 0-6.304-5.124-11.429-11.427-11.429h-27.62zM4.5 53.5c0-8.823 7.176-16 15.997-16h9.14v4.571h-9.14c-6.303 0-11.427 5.13-11.427 11.429 0 6.304 5.124 11.429 11.427 11.429H57.5V69.5H20.497c-8.821 0-15.997-7.177-15.997-16z"/>
        <circle cx="67" cy="68" r="10" stroke="#2F2C37" stroke-width="4"/>
        <circle cx="40" cy="40" r="10" stroke="#2F2C37" stroke-width="4"/>
        <circle cx="13" cy="13" r="13" fill="#00C6BC"/>
        <path fill="#FFF" fill-rule="nonzero" d="M17.672 8.39a1.257 1.257 0 0 1 1.76-.06l-.022-.019c.502.463.532 1.243.069 1.74l-7.507 8.048a1.47 1.47 0 0 1-2.216-.028l-3.442-3.88c-.452-.51-.411-1.3.09-1.762l-.021.02a1.209 1.209 0 0 1 1.729.08l2.325 2.607a.557.557 0 0 0 .835.014l6.4-6.76z"/>
    </g>
</svg>
