<svg xmlns="http://www.w3.org/2000/svg" width="87" height="86" viewBox="0 0 87 86">
    <g fill="none" fill-rule="evenodd">
        <path fill="#2F2C37" fill-rule="nonzero" d="M26 54.861V60a10.258 10.258 0 0 0 11 11c6.304.43 11.429-4.694 11-11V42.977a31.955 31.955 0 0 0 5-8.817V60c0 8.824-7.177 16-16 16s-16-7.176-16-16v-5.061a32.491 32.491 0 0 0 5-.078zm28.43-37.904a31.76 31.76 0 0 0-1.555-5.447A15.946 15.946 0 0 1 64 7c8.823 0 16 7.176 16 16v37h-5V23c.429-6.306-4.696-11.43-11-11-4.076-.278-7.662 1.77-9.57 4.957z"/>
        <path fill="#00C6BC" fill-rule="nonzero" d="M77 86c-5.515 0-10-4.485-10-10V61c0-2.76 2.24-5 5-5h10c2.76 0 5 2.24 5 5v15c0 5.515-4.485 10-10 10z"/>
        <path fill="#2F2C37" fill-rule="nonzero" d="M23 46C10.32 46 0 35.68 0 23S10.32 0 23 0s23 10.32 23 23-10.32 23-23 23zm0-42C12.523 4 4 12.523 4 23s8.523 19 19 19 19-8.523 19-19S33.477 4 23 4z"/>
        <path fill="#2F2C37" fill-rule="nonzero" d="M42.389 25H4.61C3.17 25 2 24.104 2 23s1.17-2 2.611-2H42.39C43.83 21 45 21.896 45 23s-1.17 2-2.611 2z"/>
        <path stroke="#2F2C37" stroke-width="4" d="M23 44.715c-9.768-15.29-9.768-29.4 0-42.33M23 44.331c9.768-15.29 9.768-29.4 0-42.331"/>
    </g>
</svg>
