<svg xmlns="http://www.w3.org/2000/svg" width="90" height="90" viewBox="0 0 90 90">
    <g fill="none" fill-rule="evenodd">
        <path fill="#FFF" d="M0 0h90v90H0z"/>
        <path fill="#2F2C37" d="M38.077 60.896a29.765 29.765 0 0 0 3.93-1.404C42.267 69.742 50.686 78 61 78c10.477 0 19-8.523 19-19s-8.523-19-19-19c-.715 0-1.42.04-2.115.117.373-1.326.657-2.69.845-4.082.42-.023.844-.035 1.27-.035 12.683 0 23 10.317 23 23S73.683 82 61 82c-12.045 0-21.956-9.305-22.923-21.104z"/>
        <path fill="#2F2C37" d="M68.253 57.901l-7.294 5.053-7.39-5.115 6.82-10.579c.221-.347.79-.347 1.01 0l6.854 10.641zm-6.916 6.285l7.485-5.18c-.033.096-.033.192-.095.254L61.4 70.63c-.094.189-.316.284-.505.284-.19 0-.378-.126-.505-.284L53.096 59.26a.622.622 0 0 1-.096-.347l7.643 5.273c.094.065.22.096.347.096a.641.641 0 0 0 .347-.096z"/>
        <path fill="#00C6BC" d="M30 57C16.214 57 5 45.786 5 32S16.214 7 30 7s25 11.214 25 25-11.214 25-25 25z"/>
        <path fill="#FFF" d="M38.044 27.076c-.23-2.851-2.383-3.816-5.104-4.099l.012-3.953-2.108-.008-.012 3.849c-.554-.003-1.12.008-1.684.017l.013-3.874L27.055 19l-.013 3.952c-.457.01-.905.016-1.342.015v-.013l-2.909-.013-.007 2.57s1.557-.028 1.53.005c.854.004 1.13.571 1.21 1.06l-.014 4.502c.06 0 .136.004.223.017h-.223l-.02 6.31c-.039.305-.198.794-.795.792.026.027-1.533-.007-1.533-.007l-.428 2.873 2.744.011c.51.003 1.013.015 1.506.02l-.011 3.999 2.106.009.013-3.956c.578.017 1.138.023 1.684.026l-.013 3.938 2.107.007.013-3.991c3.545-.218 6.03-1.227 6.35-5.024.258-3.057-.998-4.427-3.009-4.988 1.224-.704 1.993-1.953 1.82-4.038zm-3.37 8.817c-.008 3.048-4.18 2.683-5.51 2.679l.016-5.405c1.33.005 5.503-.454 5.494 2.726zm-.919-8.167c-.008 2.446-3.484 2.147-4.592 2.142l.014-4.322c1.108.005 4.587-.37 4.578 2.18z"/>
    </g>
</svg>
