<?xml version="1.0" encoding="UTF-8"?>
<svg width="18px" height="24px" viewBox="0 0 18 24" version="1.1" xmlns="http://www.w3.org/2000/svg" xmlns:xlink="http://www.w3.org/1999/xlink">
    <!-- Generator: Sketch 48.2 (47327) - http://www.bohemiancoding.com/sketch -->
    <title>Page 1</title>
    <desc>Created with Sketch.</desc>
    <defs></defs>
    <g id="首页" stroke="none" stroke-width="1" fill="none" fill-rule="evenodd" transform="translate(-239.000000, -1762.000000)">
        <g id="Group-11" transform="translate(239.000000, 1760.000000)" fill="#FFFFFF">
            <path d="M16.6696966,9.42112 C16.4191994,6.80128 14.0753555,5.91488 11.1125774,5.65504 L11.1255341,2.0224 L8.82986283,2.01504 L8.81690607,5.55136 C8.21358638,5.5488 7.5969777,5.55872 6.98335904,5.56736 L6.9976447,2.00736 L4.70429896,2 L4.6900133,5.63136 C4.19300545,5.64 3.70496765,5.6464 3.22888994,5.64512 L3.22888994,5.6336 L0.0624582065,5.62112 L0.0544848184,7.9824 C0.0544848184,7.9824 1.74949423,7.95744 1.72092292,7.98752 C2.65015486,7.99136 2.95115026,8.51264 3.03819308,8.96128 L3.02257852,13.09888 C3.0873623,13.09888 3.17041843,13.1024 3.26510241,13.11488 C3.18869078,13.11488 3.10696355,13.1136 3.02257852,13.11488 L3.00031948,18.91264 C2.95879142,19.1936 2.78503801,19.64256 2.13487465,19.64128 C2.16344596,19.66624 0.465778753,19.63488 0.465778753,19.63488 L0,22.27488 L2.98736273,22.28512 C3.5428421,22.28736 4.0906803,22.29888 4.62788732,22.30368 L4.61493057,25.9776 L6.90794408,25.98624 L6.92222974,22.35136 C7.55179517,22.3664 8.16175936,22.37248 8.75610899,22.37504 L8.74182334,25.9936 L11.0361658,26 L11.0504514,22.33248 C14.9099035,22.13248 17.615872,21.20512 17.9633789,17.71616 C18.2451052,14.90624 16.877337,13.64736 14.6879775,13.13248 C16.0208622,12.48512 16.8577357,11.3376 16.6696966,9.42112 Z M12.9999848,17.5237468 C12.9916335,20.324894 8.44849619,19.989527 7,19.9856084 L7.01793995,15.0184541 C8.46674544,15.0236789 13.0095734,14.6014495 12.9999848,17.5237468 Z M11.9999807,10.0191529 C11.9904004,12.2661613 8.20587951,11.9917989 7,11.9871926 L7.01545207,8.01541434 C8.22164062,8.01973275 12.00987,7.67570006 11.9999807,10.0191529 Z" id="Page-1"></path>
        </g>
    </g>
</svg>