<?xml version="1.0" encoding="UTF-8"?>
<svg width="24px" height="24px" viewBox="0 0 24 24" version="1.1" xmlns="http://www.w3.org/2000/svg" xmlns:xlink="http://www.w3.org/1999/xlink">
    <!-- Generator: Sketch 48.2 (47327) - http://www.bohemiancoding.com/sketch -->
    <title>Page 1</title>
    <desc>Created with Sketch.</desc>
    <defs></defs>
    <g id="首页" stroke="none" stroke-width="1" fill="none" fill-rule="evenodd" transform="translate(-644.000000, -2302.000000)">
        <g id="Group-16" transform="translate(644.000000, 2300.000000)" fill="#FFFFFF">
            <path d="M11.52,2.96 C5.1664,2.96 0,8.1264 0,14.48 C0,20.8336 5.1664,26 11.52,26 C17.8736,26 23.04,20.8336 23.04,14.48 C23.04,8.1264 17.8736,2.96 11.52,2.96 Z M11.52,4.4 C17.09504,4.4 21.6,8.90496 21.6,14.48 C21.6,15.13504 21.53888,15.77984 21.42016,16.4 L17.28,16.4 L17.28,10.88 C17.28384,10.57248 17.0912,10.2976 16.80256,10.1936 C16.51264,10.08992 16.19008,10.1824 15.99744,10.4224 L11.52,15.96512 L7.04256,10.4224 C6.88864,10.23264 6.64864,10.13376 6.40512,10.16 C6.03744,10.19872 5.75744,10.51008 5.76,10.88 L5.76,16.4 L1.61984,16.4 C1.50112,15.77984 1.44,15.13504 1.44,14.48 C1.44,8.90496 5.94496,4.4 11.52,4.4 Z M7.2,12.92 L10.95744,17.56992 C11.09376,17.74112 11.30112,17.84 11.52,17.84 C11.73888,17.84 11.94624,17.74112 12.08256,17.56992 L15.84,12.92 L15.84,17.12 C15.84,17.51744 16.16256,17.84 16.56,17.84 L21.03008,17.84 C19.64992,21.76 15.91744,24.56 11.52,24.56 C7.12256,24.56 3.39008,21.76 2.00992,17.84 L6.48,17.84 C6.87744,17.84 7.2,17.51744 7.2,17.12 L7.2,12.92 Z" id="Page-1"></path>
        </g>
    </g>
</svg>