<?xml version="1.0" encoding="UTF-8"?>
<svg width="17px" height="24px" viewBox="0 0 17 24" version="1.1" xmlns="http://www.w3.org/2000/svg" xmlns:xlink="http://www.w3.org/1999/xlink">
    <!-- Generator: Sketch 48.2 (47327) - http://www.bohemiancoding.com/sketch -->
    <title>Page 1</title>
    <desc>Created with Sketch.</desc>
    <defs></defs>
    <g id="首页" stroke="none" stroke-width="1" fill="none" fill-rule="evenodd" transform="translate(-628.000000, -1762.000000)">
        <g id="Group-12" transform="translate(628.000000, 1760.000000)" fill="#FFFFFF">
            <g id="Page-1" transform="translate(0.000000, 2.000000)">
                <path d="M15.5692632,10.9570526 L8.71536842,0.315789474 C8.49515789,-0.0311578947 7.92589474,-0.0311578947 7.70568421,0.315789474 L0.885052632,10.8947368 L8.27452632,16.0096842 L15.5692632,10.9570526 Z" id="Fill-1"></path>
                <path d="M8.65305263,17.2416842 C8.55747368,17.3044211 8.43242105,17.3372632 8.30610526,17.3372632 C8.17936842,17.3372632 8.05263158,17.3061053 7.95873684,17.2416842 L0.315789474,11.9688421 C0.315789474,12.0955789 0.346947368,12.2218947 0.411368421,12.3157895 L7.70568421,23.6842105 C7.83242105,23.8421053 8.02147368,23.9688421 8.21052632,23.9688421 C8.39957895,23.9688421 8.62189474,23.8732632 8.71536842,23.6842105 L16.0429474,12.3157895 C16.1052632,12.2534737 16.1052632,12.1578947 16.1381053,12.0623158 L8.65305263,17.2416842 Z" id="Fill-2"></path>
            </g>
        </g>
    </g>
</svg>