<?xml version="1.0" encoding="UTF-8"?>
<svg width="31px" height="24px" viewBox="0 0 31 24" version="1.1" xmlns="http://www.w3.org/2000/svg" xmlns:xlink="http://www.w3.org/1999/xlink">
    <!-- Generator: Sketch 48.2 (47327) - http://www.bohemiancoding.com/sketch -->
    <title>Page 1</title>
    <desc>Created with Sketch.</desc>
    <defs></defs>
    <g id="首页" stroke="none" stroke-width="1" fill="none" fill-rule="evenodd" transform="translate(-233.000000, -2302.000000)">
        <g id="Group-15" transform="translate(233.000000, 2300.000000)">
            <g id="Page-1" transform="translate(0.000000, 2.000000)">
                <g id="Group-3" transform="translate(5.520548, 0.000000)">
                    <path d="M4.28479452,0.220210526 L22.0622329,0.220210526 C23.853863,0.220210526 25.3070411,1.66105263 25.3070411,3.43747368 L22.2745616,20.5625263 C22.2745616,22.3389474 20.8213836,23.7797895 19.0297534,23.7797895 L0.202561644,23.7797895 L1.25571233,18.0362105 L15.9331507,18.0362105 L17.7757397,6.06905263 L3.23461644,6.04294737 L4.28479452,0.220210526 Z" id="Fill-1" fill="#FFFFFF"></path>
                    <path d="M4.28479452,0.220210526 L22.0622329,0.220210526 C23.853863,0.220210526 25.3070411,1.66105263 25.3070411,3.43747368 L22.2745616,20.5625263 C22.2745616,22.3389474 20.8213836,23.7797895 19.0297534,23.7797895 L0.202561644,23.7797895 L1.25571233,18.0362105 L15.9331507,18.0362105 L17.7757397,6.06905263 L3.23461644,6.04294737 L4.28479452,0.220210526 Z" id="Stroke-2" stroke="#FFFFFF" stroke-width="0.146484"></path>
                </g>
                <g id="Group-6" transform="translate(0.000000, 9.684211)">
                    <polygon id="Fill-4" fill="#FFFFFF" points="13.2106712 4.30273684 0.170712329 4.30273684 1.33045205 0.328842105 14.1712466 0.328842105"></polygon>
                    <polygon id="Stroke-5" stroke="#FFFFFF" stroke-width="0.146484" points="13.2106712 4.30273684 0.170712329 4.30273684 1.33045205 0.328842105 14.1712466 0.328842105"></polygon>
                </g>
            </g>
        </g>
    </g>
</svg>