<?xml version="1.0" encoding="UTF-8"?>
<svg width="22px" height="24px" viewBox="0 0 22 24" version="1.1" xmlns="http://www.w3.org/2000/svg" xmlns:xlink="http://www.w3.org/1999/xlink">
    <!-- Generator: Sketch 48.2 (47327) - http://www.bohemiancoding.com/sketch -->
    <title>Page 1</title>
    <desc>Created with Sketch.</desc>
    <defs></defs>
    <g id="首页" stroke="none" stroke-width="1" fill="none" fill-rule="evenodd" transform="translate(-1053.000000, -1762.000000)">
        <g id="Group-13" transform="translate(1053.000000, 1760.000000)" fill="#FFFFFF" fill-rule="nonzero">
            <g id="Page-1" transform="translate(0.000000, 2.000000)">
                <path d="M21.7956444,19.208 C21.7707111,19.1764706 21.7325778,19.1581176 21.6924889,19.1581176 L9.15493333,19.1581176 L10.8851111,13.0663529 L14.7771556,11.6362353 C14.8270222,11.6178824 14.8612444,11.5717647 14.8612444,11.5204706 L14.8612444,8.96141176 C14.8612444,8.92094118 14.8402222,8.88235294 14.806,8.86023529 C14.7698222,8.83623529 14.7277778,8.83105882 14.6876889,8.84564706 L11.7978667,9.85835294 L14.4505778,0.516705882 C14.4623111,0.48 14.4525333,0.439529412 14.4276,0.408 C14.4031556,0.376941176 14.3645333,0.358588235 14.3244444,0.358588235 L6.68751111,0.356705882 C6.62835556,0.356705882 6.57702222,0.395294118 6.56186667,0.450352941 L3.35328889,12.816 L0.0855555556,13.9614118 C0.0342222222,13.9797647 0,14.0258824 0,14.0790588 L0,16.888 C0,16.9284706 0.0210222222,16.9670588 0.0552444444,16.9910588 C0.0894666667,17.0145882 0.135422222,17.0183529 0.173555556,17.0037647 L2.48453333,16.1543529 L0.611111111,23.3750588 C0.601333333,23.4117647 0.609155556,23.4522353 0.634088889,23.4818824 C0.658533333,23.5129412 0.696666667,23.5294118 0.737244444,23.5294118 L20.4052444,23.5294118 C20.4624444,23.5294118 20.5123111,23.4927059 20.5294222,23.4414118 L21.8127556,19.32 C21.8279111,19.2814118 21.8200889,19.2409412 21.7956444,19.208 Z"></path>
            </g>
        </g>
    </g>
</svg>