<svg xmlns="http://www.w3.org/2000/svg" width="30" height="30" viewBox="0 0 30 30">
    <path fill="#FE6D6D" fill-rule="nonzero" d="M15 0C6.716 0 0 6.716 0 15c0 8.284 6.716 15 15 15 8.284 0 15-6.716 15-15 0-8.284-6.716-15-15-15zm6.75 19.5c.11.762.11 1.478 0 2.25-.552-.11-.84 0-1.5 0 .081 0-.208-.11-.75 0L15 16.5l-4.5 5.25c-.542-.111-.831 0-.75 0-.66 0-.948-.111-1.5 0a7.688 7.688 0 0 1 0-2.25L13.5 15l-5.25-4.5a7.688 7.688 0 0 1 0-2.25 7.708 7.708 0 0 1 2.25 0L15 13.5l4.5-5.25a7.695 7.695 0 0 1 2.25 0c.11.772.11 1.487 0 2.25L16.5 15l5.25 4.5z"/>
</svg>
