<?xml version="1.0" encoding="UTF-8"?>
<svg width="20px" height="20px" viewBox="0 0 20 20" version="1.1" xmlns="http://www.w3.org/2000/svg" xmlns:xlink="http://www.w3.org/1999/xlink">
    <!-- Generator: Sketch 50 (54983) - http://www.bohemiancoding.com/sketch -->
    <title>Page 1</title>
    <desc>Created with Sketch.</desc>
    <defs></defs>
    <g id="plug" stroke="none" stroke-width="1" fill="none" fill-rule="evenodd">
        <g id="控制面板" transform="translate(-462.000000, -425.000000)" fill="#231F20">
            <g id="Group-17" transform="translate(132.000000, 405.000000)">
                <g id="Page-1" transform="translate(330.000000, 20.000000)">
                    <polygon id="Fill-1" points="5.2305 10.5969231 14.8925 10.5969231 14.8925 9.27487179 5.2305 9.27487179"></polygon>
                    <polygon id="Fill-2" points="9.416 14.8897436 10.705 14.8897436 10.705 4.98 9.416 4.98"></polygon>
                    <path d="M10.0605,19.8435897 C4.7325,19.8435897 0.3985,15.3984615 0.3985,9.93384615 C0.3985,4.46923077 4.7325,0.0241025641 10.0605,0.0241025641 C15.3865,0.0241025641 19.7205,4.47128205 19.7205,9.93384615 C19.7205,15.3984615 15.3885,19.8435897 10.0605,19.8435897 Z M10.0605,1.34615385 C5.4435,1.34615385 1.6875,5.19846154 1.6875,9.93384615 C1.6875,14.6692308 5.4435,18.5215385 10.0605,18.5215385 C14.6775,18.5215385 18.4335,14.6692308 18.4335,9.93384615 C18.4335,5.19846154 14.6775,1.34615385 10.0605,1.34615385 Z" id="Fill-3"></path>
                </g>
            </g>
        </g>
    </g>
</svg>