<svg xmlns="http://www.w3.org/2000/svg" width="174" height="42" viewBox="0 0 174 42">
    <defs>
        <linearGradient id="a" x1="50%" x2="50%" y1="100%" y2="3.378%">
            <stop offset="0%" stop-color="#D3BF74"/>
            <stop offset="100%" stop-color="#F7E089"/>
        </linearGradient>
    </defs>
    <g fill="none" fill-rule="evenodd">
        <path fill="#F7E089" d="M45.238 31.508c.763 0 1.36-.202 1.793-.605.433-.403.649-.942.649-1.617 0-.704-.216-1.254-.649-1.65-.433-.396-1.03-.594-1.793-.594H42.84v4.466h2.398zm-2.42 2.618V40h-3.036V24.402h5.83c.763 0 1.46.121 2.09.363.63.242 1.173.58 1.628 1.012.455.433.803.946 1.045 1.54.242.594.363 1.243.363 1.947s-.121 1.357-.363 1.958a4.252 4.252 0 0 1-1.045 1.54 4.946 4.946 0 0 1-1.628 1.001 5.79 5.79 0 0 1-2.09.363h-2.794zm18.326 2.31h-6.336L53.51 40h-3.212l5.984-15.598h3.52L65.742 40h-3.3l-1.298-3.564zm-5.324-2.772h4.312l-2.156-5.896-2.156 5.896zm16.566.33h-1.584V40h-3.058V24.402h6.094c.763 0 1.448.125 2.057.374.609.25 1.13.587 1.562 1.012.433.425.766.931 1.001 1.518.235.587.352 1.217.352 1.892 0 1.1-.297 2.039-.891 2.816-.594.777-1.404 1.313-2.431 1.606L78.832 40h-3.388l-3.058-6.006zm.88-2.618c.777 0 1.379-.198 1.804-.594.425-.396.638-.917.638-1.562 0-.66-.213-1.188-.638-1.584-.425-.396-1.027-.594-1.804-.594h-2.464v4.334h2.464zm14.784-4.092V40h-3.058V27.284h-4.928v-2.882h12.914v2.882H88.05zM105.232 40l-7.084-11.066V40h-3.036V24.402h3.784l6.49 10.318V24.402h3.036V40h-3.19zm6.754 0V24.402h9.768v2.86h-6.732v3.564h6.094v2.706h-6.094v3.608h6.732V40h-9.768zm17.446-6.006h-1.584V40h-3.058V24.402h6.094c.763 0 1.448.125 2.057.374.609.25 1.13.587 1.562 1.012.433.425.766.931 1.001 1.518.235.587.352 1.217.352 1.892 0 1.1-.297 2.039-.891 2.816-.594.777-1.404 1.313-2.431 1.606l3.344 6.38h-3.388l-3.058-6.006zm.88-2.618c.777 0 1.379-.198 1.804-.594.425-.396.638-.917.638-1.562 0-.66-.213-1.188-.638-1.584-.425-.396-1.027-.594-1.804-.594h-2.464v4.334h2.464zM61.116 7.08h-1.232V11H58.19V1.074h3.808c.476 0 .908.077 1.295.231.387.154.714.369.98.644s.471.595.616.959c.145.364.217.756.217 1.176 0 .71-.198 1.316-.595 1.82-.397.504-.945.84-1.645 1.008L65.106 11h-1.904l-2.086-3.92zm.574-1.484c.523 0 .938-.138 1.246-.413.308-.275.462-.642.462-1.099 0-.467-.154-.838-.462-1.113-.308-.275-.723-.413-1.246-.413h-1.806v3.038h1.806zm13.018 2.912h-4.2L69.584 11h-1.778l3.864-9.926h1.946L77.48 11h-1.834l-.938-2.492zm-3.612-1.554h3.024l-1.512-4.06-1.512 4.06zM87.39 11l-4.9-7.518V11h-1.68V1.074h2.142l4.508 7.042V1.074h1.68V11h-1.75zm9.126-4.298L95.2 8.144V11h-1.68V1.074h1.68v4.76l4.27-4.76h2.212l-4.018 4.382 4.06 5.544H99.61l-3.094-4.298zm14.976 1.134c.047.56.259 1.022.637 1.386.378.364.866.546 1.463.546.28 0 .541-.044.784-.133a1.94 1.94 0 0 0 .637-.378c.182-.163.324-.362.427-.595.103-.233.154-.495.154-.784 0-.317-.056-.597-.168-.84a1.844 1.844 0 0 0-.441-.609 1.752 1.752 0 0 0-.644-.364 2.483 2.483 0 0 0-.763-.119c-.355 0-.681.063-.98.189a2.084 2.084 0 0 0-.742.511 6.937 6.937 0 0 1-.378-.14c-.14-.056-.285-.112-.434-.168a63.233 63.233 0 0 0-.798-.294l1.26-4.97h5.32v1.498h-4.2l-.672 2.66c.215-.233.502-.408.861-.525.36-.117.721-.175 1.085-.175.485 0 .936.075 1.351.224.415.15.772.364 1.071.644.299.28.532.625.7 1.036.168.41.252.873.252 1.386 0 .467-.086.905-.259 1.316-.173.41-.418.77-.735 1.078-.317.308-.705.55-1.162.728a4.19 4.19 0 0 1-1.526.266 4.144 4.144 0 0 1-1.456-.245 3.834 3.834 0 0 1-1.141-.651 3.114 3.114 0 0 1-.763-.938 2.993 2.993 0 0 1-.336-1.12l1.596-.42z"/>
        <path fill="url(#a)" d="M10.63 6.377c.988-1.829 2.747-2.964 4.822-3.377.774 1.916.844 4.042-.146 5.87-.843 1.632-2.474 2.68-4.353 3.239-.26.842-.627 1.668-.78 2.532-.134.755-.375 1.49-.4 2.265-.025.775-.158 1.529-.184 2.304-.05 1.549.006 3.115.28 4.722l.24 1.155.243 1.157c.191.81.4 1.515.718 2.239l.475 1.084c.16.362.318.724.476 1.086.318.723.654 1.339 1.1 1.974.444.633.78 1.25 1.243 1.775.179.256.463.528.641.782s.464.526.64.78c.464.526.93 1.054 1.321 1.346.483.418.966.837 1.341 1.237.501.311.875.712 1.376 1.021.395.294.896.603 1.308.788.393.292.806.476 1.11.641.414.184.718.349 1.022.515.63.22 1.15.424 1.454.589.305.165.52.202.52.202l-1.421 1.753s-.215-.04-.52-.203c-.304-.165-.933-.387-1.543-.717-.304-.165-.716-.35-1.11-.642-.413-.184-.806-.476-1.2-.767-.393-.293-.895-.603-1.398-.915 0 0-.106-.018-.087-.126-2.126 1.962-4.677 3.181-7.413 2.92-2.863-.17-5.35-1.833-7.127-4.372 2.163-2.177 4.842-3.485 7.792-3.186a6.844 6.844 0 0 1 2.857.838l-.09-.129a2.537 2.537 0 0 1-.62-.887l-.623-.89c-.356-.506-.693-1.123-1.137-1.756-2.405 1.021-4.875 1.143-7.133.076C2.064 32.235.554 30.077 0 27.531c2.426-1.13 5-1.232 7.262-.165 1.021.515 1.896 1.225 2.519 2.113-.177-.254-.228-.596-.28-.94-.19-.811-.506-1.536-.59-2.33l-.102-.684c-1.999-.018-3.903-.576-5.204-2.031-1.409-1.471-1.91-3.674-1.638-5.85 2.254-.16 4.245.526 5.744 2.124.375.402.64.782.8 1.143.005-.666.032-1.441.037-2.106.076-.432.153-.863.228-1.295-1.688-.52-2.957-1.523-3.7-2.99-.723-1.574-.527-3.318.297-4.843 1.688.522 3.066 1.542 3.79 3.116l.42 1.409c.26-.843.501-1.579.85-2.298-.667-1.897-.775-3.807.196-5.527zm152.42 5.733a6.937 6.937 0 0 1-4.355-3.238c-.99-1.83-.9-3.848-.144-5.87 2.075.412 3.832 1.548 4.821 3.375.864 1.74.863 3.631.197 5.528.35.718.609 1.562.85 2.298.032-.45.171-.92.419-1.409.724-1.574 2.102-2.595 3.79-3.115.844 1.631.933 3.394.298 4.842-.636 1.447-1.995 2.576-3.7 2.989.076.432.15.864.227 1.296.006.665.032 1.44.038 2.107.267-.381.533-.764.8-1.143 1.408-1.472 3.51-2.178 5.743-2.125.273 2.177-.247 4.271-1.638 5.85-1.301 1.454-3.204 2.012-5.204 2.03l-.102.686c-.19.813-.38 1.626-.59 2.329-.05.343-.229.597-.28.94.73-.908 1.498-1.6 2.52-2.113 2.26-1.066 4.837-.964 7.26.165-1.073 2.748-2.602 4.799-4.843 5.973-2.26 1.064-4.73.944-7.133-.077-.336.614-.674 1.23-1.136 1.757l-.623.888-.62.888-.09.128a13.567 13.567 0 0 1 2.855-.838c2.862-.17 5.63 1.011 7.794 3.187-1.778 2.539-4.265 4.201-7.128 4.372-2.735.26-5.395-.94-7.412-2.92 0 0-.108.019-.09.127-.501.31-.896.603-1.397.914-.393.29-.786.585-1.199.768-.412.183-.697.457-1.11.64-.61.33-1.238.553-1.542.718-.413.183-.629.22-.629.22l-.794-1.974s.216-.037.521-.202c.305-.164.825-.367 1.454-.589.304-.165.609-.33 1.022-.515a5.385 5.385 0 0 0 1.111-.64c.393-.293.805-.476 1.307-.788.393-.291.876-.711 1.377-1.02.482-.42.857-.82 1.34-1.238.482-.42.839-.926 1.32-1.347.286-.272.464-.524.641-.78.179-.254.464-.526.64-.78.466-.526.8-1.143 1.245-1.776.336-.617.781-1.251 1.1-1.975l.475-1.084c.159-.363.317-.725.477-1.086.209-.704.525-1.428.717-2.24l.241-1.155.242-1.155c.273-1.607.329-3.173.279-4.723-.025-.774-.159-1.529-.183-2.304l-.4-2.265-.78-2.531z" transform="translate(0 -3)"/>
    </g>
</svg>
