<svg xmlns="http://www.w3.org/2000/svg" width="174" height="42" viewBox="0 0 174 42">
    <defs>
        <linearGradient id="a" x1="50%" x2="50%" y1="100%" y2="5.647%">
            <stop offset="0%" stop-color="#B0B0B0"/>
            <stop offset="100%" stop-color="#969696"/>
        </linearGradient>
    </defs>
    <g fill="none" fill-rule="evenodd">
        <path fill="#474A4E" d="M57.696 28.328c-.048-.24-.132-.5-.252-.78s-.3-.54-.54-.78c-.24-.24-.548-.44-.924-.6-.376-.16-.836-.24-1.38-.24-.4 0-.764.06-1.092.18-.328.12-.608.28-.84.48-.232.2-.412.428-.54.684a1.8 1.8 0 0 0-.192.816c0 .464.152.868.456 1.212.304.344.768.58 1.392.708l2.376.456c.768.144 1.448.376 2.04.696.592.32 1.088.7 1.488 1.14.4.44.704.932.912 1.476a4.73 4.73 0 0 1 .312 1.704 4.994 4.994 0 0 1-1.596 3.612c-.52.488-1.16.884-1.92 1.188-.76.304-1.636.456-2.628.456-1.136 0-2.112-.164-2.928-.492-.816-.328-1.5-.748-2.052-1.26a5.374 5.374 0 0 1-1.26-1.716 5.997 5.997 0 0 1-.528-1.86l3.072-.816c.032.416.132.816.3 1.2.168.384.404.724.708 1.02.304.296.68.532 1.128.708.448.176.976.264 1.584.264.896 0 1.58-.196 2.052-.588.472-.392.708-.892.708-1.5 0-.496-.176-.924-.528-1.284-.352-.36-.864-.604-1.536-.732l-2.376-.48c-1.36-.272-2.444-.828-3.252-1.668-.808-.84-1.212-1.908-1.212-3.204 0-.752.156-1.452.468-2.1a5.305 5.305 0 0 1 1.284-1.692 6.086 6.086 0 0 1 1.896-1.128 6.397 6.397 0 0 1 2.28-.408c1.024 0 1.9.14 2.628.42.728.28 1.332.636 1.812 1.068.48.432.852.908 1.116 1.428.264.52.444 1.02.54 1.5l-2.976.912zm6.024 12.048V23.36h3.36v17.016h-3.36zm7.248 0V23.36h3.312v13.848h7.584v3.168H70.968zM93.624 23.36h3.504l-6.312 17.016h-3.408L81.12 23.36h3.624l4.44 12.648 4.44-12.648zm5.688 17.016V23.36h10.656v3.12h-7.344v3.888h6.648v2.952h-6.648v3.936h7.344v3.12H99.312zm19.032-6.552h-1.728v6.552h-3.336V23.36h6.648c.832 0 1.58.136 2.244.408.664.272 1.232.64 1.704 1.104a4.783 4.783 0 0 1 1.092 1.656c.256.64.384 1.328.384 2.064 0 1.2-.324 2.224-.972 3.072-.648.848-1.532 1.432-2.652 1.752l3.648 6.96h-3.696l-3.336-6.552zm.96-2.856c.848 0 1.504-.216 1.968-.648.464-.432.696-1 .696-1.704 0-.72-.232-1.296-.696-1.728-.464-.432-1.12-.648-1.968-.648h-2.688v4.728h2.688zM60.926 7.216h-1.232v3.92H58V1.21h3.808c.476 0 .908.077 1.295.231.387.154.714.369.98.644s.471.595.616.959c.145.364.217.756.217 1.176 0 .71-.198 1.316-.595 1.82-.397.504-.945.84-1.645 1.008l2.24 4.088h-1.904l-2.086-3.92zm.574-1.484c.523 0 .938-.138 1.246-.413.308-.275.462-.642.462-1.099 0-.467-.154-.838-.462-1.113-.308-.275-.723-.413-1.246-.413h-1.806v3.038H61.5zm13.018 2.912h-4.2l-.924 2.492h-1.778L71.48 1.21h1.946l3.864 9.926h-1.834l-.938-2.492zM70.906 7.09h3.024l-1.512-4.06-1.512 4.06zM87.2 11.136l-4.9-7.518v7.518h-1.68V1.21h2.142l4.508 7.042V1.21h1.68v9.926H87.2zm9.126-4.298L95.01 8.28v2.856h-1.68V1.21h1.68v4.76l4.27-4.76h2.212l-4.018 4.382 4.06 5.544H99.42l-3.094-4.298zm13.534-2.114a2.523 2.523 0 0 1-.042-.49c0-.43.077-.838.231-1.225.154-.387.38-.73.679-1.029a3.293 3.293 0 0 1 1.099-.714A3.876 3.876 0 0 1 113.304 1c.532 0 1.01.082 1.435.245.425.163.782.385 1.071.665.29.28.511.607.665.98.154.373.231.77.231 1.19 0 .653-.168 1.239-.504 1.757a4.247 4.247 0 0 1-1.372 1.309l-1.946 1.232c-.252.168-.478.35-.679.546-.2.196-.338.43-.413.7h4.97v1.512h-7.042c.01-.42.056-.814.14-1.183.084-.369.22-.719.406-1.05.187-.331.427-.644.721-.938a6.215 6.215 0 0 1 1.085-.847l1.638-1.05c.448-.28.777-.583.987-.91.21-.327.315-.677.315-1.05 0-.215-.035-.42-.105-.616a1.446 1.446 0 0 0-.329-.525 1.586 1.586 0 0 0-.553-.364 2.025 2.025 0 0 0-.763-.133c-.308 0-.576.049-.805.147a1.44 1.44 0 0 0-.56.413 1.86 1.86 0 0 0-.329.616 2.42 2.42 0 0 0-.098.98l.028.252-1.638-.154z"/>
        <path fill="url(#a)" d="M10.63 3.377C11.617 1.548 13.376.413 15.451 0c.774 1.916.844 4.042-.146 5.87-.843 1.632-2.474 2.68-4.353 3.239-.26.842-.627 1.668-.78 2.532-.134.755-.375 1.49-.4 2.265-.025.775-.158 1.529-.184 2.304-.05 1.549.006 3.115.28 4.722l.24 1.155.243 1.157c.191.81.4 1.515.718 2.239l.475 1.084c.16.362.318.724.476 1.086.318.723.654 1.339 1.1 1.974.444.633.78 1.25 1.243 1.775.179.256.463.528.641.782s.464.526.64.78c.464.526.93 1.054 1.321 1.346.483.418.966.837 1.341 1.237.501.311.875.712 1.376 1.021.395.294.896.603 1.308.788.393.292.806.476 1.11.641.414.184.718.349 1.022.515.63.22 1.15.424 1.454.589.305.165.52.202.52.202l-1.421 1.753s-.215-.04-.52-.203c-.304-.165-.933-.387-1.543-.717-.304-.165-.716-.35-1.11-.642-.413-.184-.806-.476-1.2-.767-.393-.293-.895-.603-1.398-.915 0 0-.106-.018-.087-.126-2.126 1.962-4.677 3.181-7.413 2.92-2.863-.17-5.35-1.833-7.127-4.372 2.163-2.177 4.842-3.485 7.792-3.186a6.844 6.844 0 0 1 2.857.838l-.09-.129a2.537 2.537 0 0 1-.62-.887l-.623-.89c-.356-.506-.693-1.123-1.137-1.756-2.405 1.021-4.875 1.143-7.133.076C2.064 29.235.554 27.077 0 24.531c2.426-1.13 5-1.232 7.262-.165 1.021.515 1.896 1.225 2.519 2.113-.177-.254-.228-.596-.28-.94-.19-.811-.506-1.536-.59-2.33l-.102-.684c-1.999-.018-3.903-.576-5.204-2.031-1.409-1.471-1.91-3.674-1.638-5.85 2.254-.16 4.245.526 5.744 2.124.375.402.64.782.8 1.143.005-.666.032-1.441.037-2.106.076-.432.153-.863.228-1.295-1.688-.52-2.957-1.523-3.7-2.99-.723-1.574-.527-3.318.297-4.843 1.688.522 3.066 1.542 3.79 3.116l.42 1.409c.26-.843.501-1.579.85-2.298-.667-1.897-.775-3.807.196-5.527zM163.05 9.11a6.937 6.937 0 0 1-4.355-3.238c-.99-1.83-.9-3.848-.144-5.87 2.075.412 3.832 1.548 4.821 3.375.864 1.74.863 3.631.197 5.528.35.718.609 1.562.85 2.298.032-.45.171-.92.419-1.409.724-1.574 2.102-2.595 3.79-3.115.844 1.631.933 3.394.298 4.842-.636 1.447-1.995 2.576-3.7 2.989.076.432.15.864.227 1.296.006.665.032 1.44.038 2.107.267-.381.533-.764.8-1.143 1.408-1.472 3.51-2.178 5.743-2.125.273 2.177-.247 4.271-1.638 5.85-1.301 1.454-3.204 2.012-5.204 2.03l-.102.686c-.19.813-.38 1.626-.59 2.329-.05.343-.229.597-.28.94.73-.908 1.498-1.6 2.52-2.113 2.26-1.066 4.837-.964 7.26.165-1.073 2.748-2.602 4.799-4.843 5.973-2.26 1.064-4.73.944-7.133-.077-.336.614-.674 1.23-1.136 1.757l-.623.888-.62.888-.09.128a13.567 13.567 0 0 1 2.855-.838c2.862-.17 5.63 1.011 7.794 3.187-1.778 2.539-4.265 4.201-7.128 4.372-2.735.26-5.395-.94-7.412-2.92 0 0-.108.019-.09.127-.501.31-.896.603-1.397.914-.393.29-.786.585-1.199.768-.412.183-.697.457-1.11.64-.61.33-1.238.553-1.542.718-.413.183-.629.22-.629.22l-.794-1.974s.216-.037.521-.202c.305-.164.825-.367 1.454-.589.304-.165.609-.33 1.022-.515a5.385 5.385 0 0 0 1.111-.64c.393-.293.805-.476 1.307-.788.393-.291.876-.711 1.377-1.02.482-.42.857-.82 1.34-1.238.482-.42.839-.926 1.32-1.347.286-.272.464-.524.641-.78.179-.254.464-.526.64-.78.466-.526.8-1.143 1.245-1.776.336-.617.781-1.251 1.1-1.975l.475-1.084c.159-.363.317-.725.477-1.086.209-.704.525-1.428.717-2.24l.241-1.155.242-1.155c.273-1.607.329-3.173.279-4.723-.025-.774-.159-1.529-.183-2.304l-.4-2.265-.78-2.531z"/>
    </g>
</svg>
