<svg xmlns="http://www.w3.org/2000/svg" width="174" height="42" viewBox="0 0 174 42">
    <g fill="#9490A5" fill-rule="evenodd">
        <path d="M48.888 28.884a3.65 3.65 0 0 0-.231-.715 2.284 2.284 0 0 0-.495-.715 2.646 2.646 0 0 0-.847-.55c-.345-.147-.766-.22-1.265-.22-.367 0-.7.055-1.001.165-.3.11-.557.257-.77.44a2.014 2.014 0 0 0-.495.627 1.65 1.65 0 0 0-.176.748c0 .425.14.796.418 1.111.279.315.704.532 1.276.649l2.178.418a6.384 6.384 0 0 1 1.87.638c.543.293.997.642 1.364 1.045.367.403.645.854.836 1.353.19.499.286 1.02.286 1.562a4.578 4.578 0 0 1-1.463 3.311c-.477.447-1.063.81-1.76 1.089-.697.279-1.5.418-2.409.418-1.041 0-1.936-.15-2.684-.451-.748-.3-1.375-.686-1.881-1.155a4.926 4.926 0 0 1-1.155-1.573A5.497 5.497 0 0 1 40 35.374l2.816-.748c.03.381.121.748.275 1.1.154.352.37.664.649.935s.623.488 1.034.649c.41.161.895.242 1.452.242.821 0 1.448-.18 1.881-.539.433-.36.649-.818.649-1.375 0-.455-.161-.847-.484-1.177-.323-.33-.792-.554-1.408-.671l-2.178-.44c-1.247-.25-2.24-.759-2.981-1.529-.74-.77-1.111-1.749-1.111-2.937 0-.69.143-1.331.429-1.925a4.863 4.863 0 0 1 1.177-1.551 5.579 5.579 0 0 1 1.738-1.034 5.864 5.864 0 0 1 2.09-.374c.939 0 1.742.128 2.409.385.667.257 1.221.583 1.661.979.44.396.781.832 1.023 1.309.242.477.407.935.495 1.375l-2.728.836zm12.034-1.672v12.716h-3.058V27.212h-4.928V24.33H65.85v2.882h-4.928zm14.916 9.152h-6.336l-1.298 3.564h-3.212l5.984-15.598h3.52l5.94 15.598h-3.3l-1.298-3.564zm-5.324-2.772h4.312l-2.156-5.896-2.156 5.896zm16.566.33h-1.584v6.006h-3.058V24.33h6.094c.763 0 1.448.125 2.057.374.609.25 1.13.587 1.562 1.012.433.425.766.931 1.001 1.518.235.587.352 1.217.352 1.892 0 1.1-.297 2.039-.891 2.816-.594.777-1.404 1.313-2.431 1.606l3.344 6.38h-3.388l-3.058-6.006zm.88-2.618c.777 0 1.379-.198 1.804-.594.425-.396.638-.917.638-1.562 0-.66-.213-1.188-.638-1.584-.425-.396-1.027-.594-1.804-.594h-2.464v4.334h2.464zm14.784-4.092v12.716h-3.058V27.212h-4.928V24.33h12.914v2.882h-4.928zm7.062 12.716V24.33h9.768v2.86h-6.732v3.564h6.094v2.706h-6.094v3.608h6.732v2.86h-9.768zm17.446-6.006h-1.584v6.006h-3.058V24.33h6.094c.763 0 1.448.125 2.057.374.609.25 1.13.587 1.562 1.012.433.425.766.931 1.001 1.518.235.587.352 1.217.352 1.892 0 1.1-.297 2.039-.891 2.816-.594.777-1.404 1.313-2.431 1.606l3.344 6.38h-3.388l-3.058-6.006zm.88-2.618c.777 0 1.379-.198 1.804-.594.425-.396.638-.917.638-1.562 0-.66-.213-1.188-.638-1.584-.425-.396-1.027-.594-1.804-.594h-2.464v4.334h2.464zM61.926 7.006h-1.232v3.92H59V1h3.808c.476 0 .908.077 1.295.231.387.154.714.369.98.644s.471.595.616.959c.145.364.217.756.217 1.176 0 .71-.198 1.316-.595 1.82-.397.504-.945.84-1.645 1.008l2.24 4.088h-1.904l-2.086-3.92zm.574-1.484c.523 0 .938-.138 1.246-.413.308-.275.462-.642.462-1.099 0-.467-.154-.838-.462-1.113-.308-.275-.723-.413-1.246-.413h-1.806v3.038H62.5zm13.018 2.912h-4.2l-.924 2.492h-1.778L72.48 1h1.946l3.864 9.926h-1.834l-.938-2.492zM71.906 6.88h3.024l-1.512-4.06-1.512 4.06zM88.2 10.926l-4.9-7.518v7.518h-1.68V1h2.142l4.508 7.042V1h1.68v9.926H88.2zm9.126-4.298L96.01 8.07v2.856h-1.68V1h1.68v4.76L100.28 1h2.212l-4.018 4.382 4.06 5.544h-2.114l-3.094-4.298zm15.676 4.298V4.024h-2.394V2.862a3.3 3.3 0 0 0 .959-.161c.294-.098.553-.229.777-.392.224-.163.406-.357.546-.581.14-.224.238-.467.294-.728h1.47v9.926h-1.652zM10.63 3.377C11.617 1.548 13.376.413 15.451 0c.774 1.916.844 4.042-.146 5.87-.843 1.632-2.474 2.68-4.353 3.239-.26.842-.627 1.668-.78 2.532-.134.755-.375 1.49-.4 2.265-.025.775-.158 1.529-.184 2.304-.05 1.549.006 3.115.28 4.722l.24 1.155.243 1.157c.191.81.4 1.515.718 2.239l.475 1.084c.16.362.318.724.476 1.086.318.723.654 1.339 1.1 1.974.444.633.78 1.25 1.243 1.775.179.256.463.528.641.782s.464.526.64.78c.464.526.93 1.054 1.321 1.346.483.418.966.837 1.341 1.237.501.311.875.712 1.376 1.021.395.294.896.603 1.308.788.393.292.806.476 1.11.641.414.184.718.349 1.022.515.63.22 1.15.424 1.454.589.305.165.52.202.52.202l-1.421 1.753s-.215-.04-.52-.203c-.304-.165-.933-.387-1.543-.717-.304-.165-.716-.35-1.11-.642-.413-.184-.806-.476-1.2-.767-.393-.293-.895-.603-1.398-.915 0 0-.106-.018-.087-.126-2.126 1.962-4.677 3.181-7.413 2.92-2.863-.17-5.35-1.833-7.127-4.372 2.163-2.177 4.842-3.485 7.792-3.186a6.844 6.844 0 0 1 2.857.838l-.09-.129a2.537 2.537 0 0 1-.62-.887l-.623-.89c-.356-.506-.693-1.123-1.137-1.756-2.405 1.021-4.875 1.143-7.133.076C2.064 29.235.554 27.077 0 24.531c2.426-1.13 5-1.232 7.262-.165 1.021.515 1.896 1.225 2.519 2.113-.177-.254-.228-.596-.28-.94-.19-.811-.506-1.536-.59-2.33l-.102-.684c-1.999-.018-3.903-.576-5.204-2.031-1.409-1.471-1.91-3.674-1.638-5.85 2.254-.16 4.245.526 5.744 2.124.375.402.64.782.8 1.143.005-.666.032-1.441.037-2.106.076-.432.153-.863.228-1.295-1.688-.52-2.957-1.523-3.7-2.99-.723-1.574-.527-3.318.297-4.843 1.688.522 3.066 1.542 3.79 3.116l.42 1.409c.26-.843.501-1.579.85-2.298-.667-1.897-.775-3.807.196-5.527zM163.05 9.11a6.937 6.937 0 0 1-4.355-3.238c-.99-1.83-.9-3.848-.144-5.87 2.075.412 3.832 1.548 4.821 3.375.864 1.74.863 3.631.197 5.528.35.718.609 1.562.85 2.298.032-.45.171-.92.419-1.409.724-1.574 2.102-2.595 3.79-3.115.844 1.631.933 3.394.298 4.842-.636 1.447-1.995 2.576-3.7 2.989.076.432.15.864.227 1.296.006.665.032 1.44.038 2.107.267-.381.533-.764.8-1.143 1.408-1.472 3.51-2.178 5.743-2.125.273 2.177-.247 4.271-1.638 5.85-1.301 1.454-3.204 2.012-5.204 2.03l-.102.686c-.19.813-.38 1.626-.59 2.329-.05.343-.229.597-.28.94.73-.908 1.498-1.6 2.52-2.113 2.26-1.066 4.837-.964 7.26.165-1.073 2.748-2.602 4.799-4.843 5.973-2.26 1.064-4.73.944-7.133-.077-.336.614-.674 1.23-1.136 1.757l-.623.888-.62.888-.09.128a13.567 13.567 0 0 1 2.855-.838c2.862-.17 5.63 1.011 7.794 3.187-1.778 2.539-4.265 4.201-7.128 4.372-2.735.26-5.395-.94-7.412-2.92 0 0-.108.019-.09.127-.501.31-.896.603-1.397.914-.393.29-.786.585-1.199.768-.412.183-.697.457-1.11.64-.61.33-1.238.553-1.542.718-.413.183-.629.22-.629.22l-.794-1.974s.216-.037.521-.202c.305-.164.825-.367 1.454-.589.304-.165.609-.33 1.022-.515a5.385 5.385 0 0 0 1.111-.64c.393-.293.805-.476 1.307-.788.393-.291.876-.711 1.377-1.02.482-.42.857-.82 1.34-1.238.482-.42.839-.926 1.32-1.347.286-.272.464-.524.641-.78.179-.254.464-.526.64-.78.466-.526.8-1.143 1.245-1.776.336-.617.781-1.251 1.1-1.975l.475-1.084c.159-.363.317-.725.477-1.086.209-.704.525-1.428.717-2.24l.241-1.155.242-1.155c.273-1.607.329-3.173.279-4.723-.025-.774-.159-1.529-.183-2.304l-.4-2.265-.78-2.531z"/>
    </g>
</svg>
