<svg xmlns="http://www.w3.org/2000/svg" width="174" height="42" viewBox="0 0 174 42">
    <g fill="#FFF" fill-rule="evenodd">
        <path d="M67.664 41l-.216-1.944a4.848 4.848 0 0 1-1.836 1.596c-.424.216-.9.388-1.428.516a7.44 7.44 0 0 1-1.752.192 8.736 8.736 0 0 1-3.264-.612 8.106 8.106 0 0 1-2.7-1.752c-.776-.76-1.392-1.688-1.848-2.784-.456-1.096-.684-2.332-.684-3.708 0-1.376.236-2.612.708-3.708s1.112-2.028 1.92-2.796a8.452 8.452 0 0 1 2.784-1.764 9.016 9.016 0 0 1 3.3-.612c1.12 0 2.116.148 2.988.444.872.296 1.628.692 2.268 1.188a7.13 7.13 0 0 1 1.584 1.68 7.6 7.6 0 0 1 .936 1.92l-3.168 1.128a4.866 4.866 0 0 0-.516-1.152 4.138 4.138 0 0 0-.912-1.044 4.723 4.723 0 0 0-1.356-.768c-.528-.2-1.136-.3-1.824-.3-.64 0-1.28.112-1.92.336a4.812 4.812 0 0 0-1.716 1.044c-.504.472-.916 1.072-1.236 1.8-.32.728-.48 1.596-.48 2.604 0 .96.148 1.804.444 2.532.296.728.688 1.336 1.176 1.824a4.818 4.818 0 0 0 1.704 1.104 5.691 5.691 0 0 0 2.052.372c.784 0 1.456-.116 2.016-.348.56-.232 1.02-.516 1.38-.852.36-.336.632-.696.816-1.08.184-.384.3-.728.348-1.032h-5.376v-2.88h8.496V41h-2.688zm8.448-8.52c0 .96.152 1.796.456 2.508.304.712.708 1.3 1.212 1.764a5.079 5.079 0 0 0 1.704 1.044 5.566 5.566 0 0 0 3.876 0 5.052 5.052 0 0 0 1.716-1.044c.504-.464.908-1.052 1.212-1.764.304-.712.456-1.548.456-2.508s-.152-1.796-.456-2.508c-.304-.712-.708-1.3-1.212-1.764a5.052 5.052 0 0 0-1.716-1.044 5.566 5.566 0 0 0-3.876 0c-.632.232-1.2.58-1.704 1.044-.504.464-.908 1.052-1.212 1.764-.304.712-.456 1.548-.456 2.508zm-3.432.024c0-1.376.24-2.612.72-3.708s1.12-2.028 1.92-2.796a8.29 8.29 0 0 1 2.784-1.764 9.11 9.11 0 0 1 3.312-.612c1.152 0 2.26.204 3.324.612A8.264 8.264 0 0 1 87.536 26c.8.768 1.44 1.7 1.92 2.796.48 1.096.72 2.332.72 3.708 0 1.376-.24 2.608-.72 3.696s-1.12 2.016-1.92 2.784a8.264 8.264 0 0 1-2.796 1.764 9.205 9.205 0 0 1-3.324.612 9.11 9.11 0 0 1-3.312-.612 8.29 8.29 0 0 1-2.784-1.764c-.8-.768-1.44-1.696-1.92-2.784-.48-1.088-.72-2.32-.72-3.696zM93.056 41V23.984h3.312v13.848h7.584V41H93.056zm19.392-3.072c.688 0 1.344-.108 1.968-.324a4.383 4.383 0 0 0 1.632-.996c.464-.448.832-1.012 1.104-1.692.272-.68.408-1.484.408-2.412 0-.928-.136-1.732-.408-2.412-.272-.68-.636-1.244-1.092-1.692a4.402 4.402 0 0 0-1.62-1.008 5.78 5.78 0 0 0-1.968-.336h-2.664v10.872h2.64zM106.496 41V23.984h6.096c1.216 0 2.336.192 3.36.576a7.513 7.513 0 0 1 2.652 1.668c.744.728 1.328 1.62 1.752 2.676.424 1.056.636 2.256.636 3.6 0 1.344-.212 2.544-.636 3.6-.424 1.056-1.012 1.944-1.764 2.664a7.725 7.725 0 0 1-2.664 1.656c-1.024.384-2.144.576-3.36.576h-6.072zM61.116 8.08h-1.232V12H58.19V2.074h3.808c.476 0 .908.077 1.295.231.387.154.714.369.98.644s.471.595.616.959c.145.364.217.756.217 1.176 0 .71-.198 1.316-.595 1.82-.397.504-.945.84-1.645 1.008L65.106 12h-1.904l-2.086-3.92zm.574-1.484c.523 0 .938-.138 1.246-.413.308-.275.462-.642.462-1.099 0-.467-.154-.838-.462-1.113-.308-.275-.723-.413-1.246-.413h-1.806v3.038h1.806zm13.018 2.912h-4.2L69.584 12h-1.778l3.864-9.926h1.946L77.48 12h-1.834l-.938-2.492zm-3.612-1.554h3.024l-1.512-4.06-1.512 4.06zM87.39 12l-4.9-7.518V12h-1.68V2.074h2.142l4.508 7.042V2.074h1.68V12h-1.75zm9.126-4.298L95.2 9.144V12h-1.68V2.074h1.68v4.76l4.27-4.76h2.212l-4.018 4.382 4.06 5.544H99.61l-3.094-4.298zm15.466-1.568l2.828-2.562h-4.62V2.074h6.804v1.442l-2.758 2.478c.364.01.726.08 1.085.21a2.89 2.89 0 0 1 1.659 1.512c.177.373.266.807.266 1.302a3.086 3.086 0 0 1-.952 2.233 3.365 3.365 0 0 1-1.141.7c-.453.173-.973.259-1.561.259-.57 0-1.078-.086-1.526-.259a3.68 3.68 0 0 1-1.148-.686 3.084 3.084 0 0 1-.742-.994 3.29 3.29 0 0 1-.308-1.183l1.638-.35c.01.308.07.588.182.84.112.252.261.464.448.637s.404.308.651.406c.247.098.511.147.791.147.317 0 .6-.047.847-.14a1.84 1.84 0 0 0 .623-.378 1.54 1.54 0 0 0 .378-.553c.084-.21.126-.436.126-.679 0-.308-.056-.572-.168-.791a1.638 1.638 0 0 0-.441-.546 1.763 1.763 0 0 0-.609-.315 2.438 2.438 0 0 0-.686-.098c-.308 0-.597.06-.868.182l-.798-1.316zM10.63 3.377C11.617 1.548 13.376.413 15.451 0c.774 1.916.844 4.042-.146 5.87-.843 1.632-2.474 2.68-4.353 3.239-.26.842-.627 1.668-.78 2.532-.134.755-.375 1.49-.4 2.265-.025.775-.158 1.529-.184 2.304-.05 1.549.006 3.115.28 4.722l.24 1.155.243 1.157c.191.81.4 1.515.718 2.239l.475 1.084c.16.362.318.724.476 1.086.318.723.654 1.339 1.1 1.974.444.633.78 1.25 1.243 1.775.179.256.463.528.641.782s.464.526.64.78c.464.526.93 1.054 1.321 1.346.483.418.966.837 1.341 1.237.501.311.875.712 1.376 1.021.395.294.896.603 1.308.788.393.292.806.476 1.11.641.414.184.718.349 1.022.515.63.22 1.15.424 1.454.589.305.165.52.202.52.202l-1.421 1.753s-.215-.04-.52-.203c-.304-.165-.933-.387-1.543-.717-.304-.165-.716-.35-1.11-.642-.413-.184-.806-.476-1.2-.767-.393-.293-.895-.603-1.398-.915 0 0-.106-.018-.087-.126-2.126 1.962-4.677 3.181-7.413 2.92-2.863-.17-5.35-1.833-7.127-4.372 2.163-2.177 4.842-3.485 7.792-3.186a6.844 6.844 0 0 1 2.857.838l-.09-.129a2.537 2.537 0 0 1-.62-.887l-.623-.89c-.356-.506-.693-1.123-1.137-1.756-2.405 1.021-4.875 1.143-7.133.076C2.064 29.235.554 27.077 0 24.531c2.426-1.13 5-1.232 7.262-.165 1.021.515 1.896 1.225 2.519 2.113-.177-.254-.228-.596-.28-.94-.19-.811-.506-1.536-.59-2.33l-.102-.684c-1.999-.018-3.903-.576-5.204-2.031-1.409-1.471-1.91-3.674-1.638-5.85 2.254-.16 4.245.526 5.744 2.124.375.402.64.782.8 1.143.005-.666.032-1.441.037-2.106.076-.432.153-.863.228-1.295-1.688-.52-2.957-1.523-3.7-2.99-.723-1.574-.527-3.318.297-4.843 1.688.522 3.066 1.542 3.79 3.116l.42 1.409c.26-.843.501-1.579.85-2.298-.667-1.897-.775-3.807.196-5.527zM163.05 9.11a6.937 6.937 0 0 1-4.355-3.238c-.99-1.83-.9-3.848-.144-5.87 2.075.412 3.832 1.548 4.821 3.375.864 1.74.863 3.631.197 5.528.35.718.609 1.562.85 2.298.032-.45.171-.92.419-1.409.724-1.574 2.102-2.595 3.79-3.115.844 1.631.933 3.394.298 4.842-.636 1.447-1.995 2.576-3.7 2.989.076.432.15.864.227 1.296.006.665.032 1.44.038 2.107.267-.381.533-.764.8-1.143 1.408-1.472 3.51-2.178 5.743-2.125.273 2.177-.247 4.271-1.638 5.85-1.301 1.454-3.204 2.012-5.204 2.03l-.102.686c-.19.813-.38 1.626-.59 2.329-.05.343-.229.597-.28.94.73-.908 1.498-1.6 2.52-2.113 2.26-1.066 4.837-.964 7.26.165-1.073 2.748-2.602 4.799-4.843 5.973-2.26 1.064-4.73.944-7.133-.077-.336.614-.674 1.23-1.136 1.757l-.623.888-.62.888-.09.128a13.567 13.567 0 0 1 2.855-.838c2.862-.17 5.63 1.011 7.794 3.187-1.778 2.539-4.265 4.201-7.128 4.372-2.735.26-5.395-.94-7.412-2.92 0 0-.108.019-.09.127-.501.31-.896.603-1.397.914-.393.29-.786.585-1.199.768-.412.183-.697.457-1.11.64-.61.33-1.238.553-1.542.718-.413.183-.629.22-.629.22l-.794-1.974s.216-.037.521-.202c.305-.164.825-.367 1.454-.589.304-.165.609-.33 1.022-.515a5.385 5.385 0 0 0 1.111-.64c.393-.293.805-.476 1.307-.788.393-.291.876-.711 1.377-1.02.482-.42.857-.82 1.34-1.238.482-.42.839-.926 1.32-1.347.286-.272.464-.524.641-.78.179-.254.464-.526.64-.78.466-.526.8-1.143 1.245-1.776.336-.617.781-1.251 1.1-1.975l.475-1.084c.159-.363.317-.725.477-1.086.209-.704.525-1.428.717-2.24l.241-1.155.242-1.155c.273-1.607.329-3.173.279-4.723-.025-.774-.159-1.529-.183-2.304l-.4-2.265-.78-2.531z"/>
    </g>
</svg>
