<svg xmlns="http://www.w3.org/2000/svg" width="174" height="42" viewBox="0 0 174 42">
    <defs>
        <linearGradient id="a" x1="50%" x2="50%" y1="100%" y2="5.647%">
            <stop offset="0%" stop-color="#B0B0B0"/>
            <stop offset="100%" stop-color="#969696"/>
        </linearGradient>
    </defs>
    <path fill="url(#a)" fill-rule="evenodd" d="M10.63 6.377c.988-1.829 2.747-2.964 4.822-3.377.774 1.916.844 4.042-.146 5.87-.843 1.632-2.474 2.68-4.353 3.239-.26.842-.627 1.668-.78 2.532-.134.755-.375 1.49-.4 2.265-.025.775-.158 1.529-.184 2.304-.05 1.549.006 3.115.28 4.722l.24 1.155.243 1.157c.191.81.4 1.515.718 2.239l.475 1.084c.16.362.318.724.476 1.086.318.723.654 1.339 1.1 1.974.444.633.78 1.25 1.243 1.775.179.256.463.528.641.782s.464.526.64.78c.464.526.93 1.054 1.321 1.346.483.418.966.837 1.341 1.237.501.311.875.712 1.376 1.021.395.294.896.603 1.308.788.393.292.806.476 1.11.641.414.184.718.349 1.022.515.63.22 1.15.424 1.454.589.305.165.52.202.52.202l-1.421 1.753s-.215-.04-.52-.203c-.304-.165-.933-.387-1.543-.717-.304-.165-.716-.35-1.11-.642-.413-.184-.806-.476-1.2-.767-.393-.293-.895-.603-1.398-.915 0 0-.106-.018-.087-.126-2.126 1.962-4.677 3.181-7.413 2.92-2.863-.17-5.35-1.833-7.127-4.372 2.163-2.177 4.842-3.485 7.792-3.186a6.844 6.844 0 0 1 2.857.838l-.09-.129a2.537 2.537 0 0 1-.62-.887l-.623-.89c-.356-.506-.693-1.123-1.137-1.756-2.405 1.021-4.875 1.143-7.133.076C2.064 32.235.554 30.077 0 27.531c2.426-1.13 5-1.232 7.262-.165 1.021.515 1.896 1.225 2.519 2.113-.177-.254-.228-.596-.28-.94-.19-.811-.506-1.536-.59-2.33l-.102-.684c-1.999-.018-3.903-.576-5.204-2.031-1.409-1.471-1.91-3.674-1.638-5.85 2.254-.16 4.245.526 5.744 2.124.375.402.64.782.8 1.143.005-.666.032-1.441.037-2.106.076-.432.153-.863.228-1.295-1.688-.52-2.957-1.523-3.7-2.99-.723-1.574-.527-3.318.297-4.843 1.688.522 3.066 1.542 3.79 3.116l.42 1.409c.26-.843.501-1.579.85-2.298-.667-1.897-.775-3.807.196-5.527zm152.42 5.733a6.937 6.937 0 0 1-4.355-3.238c-.99-1.83-.9-3.848-.144-5.87 2.075.412 3.832 1.548 4.821 3.375.864 1.74.863 3.631.197 5.528.35.718.609 1.562.85 2.298.032-.45.171-.92.419-1.409.724-1.574 2.102-2.595 3.79-3.115.844 1.631.933 3.394.298 4.842-.636 1.447-1.995 2.576-3.7 2.989.076.432.15.864.227 1.296.006.665.032 1.44.038 2.107.267-.381.533-.764.8-1.143 1.408-1.472 3.51-2.178 5.743-2.125.273 2.177-.247 4.271-1.638 5.85-1.301 1.454-3.204 2.012-5.204 2.03l-.102.686c-.19.813-.38 1.626-.59 2.329-.05.343-.229.597-.28.94.73-.908 1.498-1.6 2.52-2.113 2.26-1.066 4.837-.964 7.26.165-1.073 2.748-2.602 4.799-4.843 5.973-2.26 1.064-4.73.944-7.133-.077-.336.614-.674 1.23-1.136 1.757l-.623.888-.62.888-.09.128a13.567 13.567 0 0 1 2.855-.838c2.862-.17 5.63 1.011 7.794 3.187-1.778 2.539-4.265 4.201-7.128 4.372-2.735.26-5.395-.94-7.412-2.92 0 0-.108.019-.09.127-.501.31-.896.603-1.397.914-.393.29-.786.585-1.199.768-.412.183-.697.457-1.11.64-.61.33-1.238.553-1.542.718-.413.183-.629.22-.629.22l-.794-1.974s.216-.037.521-.202c.305-.164.825-.367 1.454-.589.304-.165.609-.33 1.022-.515a5.385 5.385 0 0 0 1.111-.64c.393-.293.805-.476 1.307-.788.393-.291.876-.711 1.377-1.02.482-.42.857-.82 1.34-1.238.482-.42.839-.926 1.32-1.347.286-.272.464-.524.641-.78.179-.254.464-.526.64-.78.466-.526.8-1.143 1.245-1.776.336-.617.781-1.251 1.1-1.975l.475-1.084c.159-.363.317-.725.477-1.086.209-.704.525-1.428.717-2.24l.241-1.155.242-1.155c.273-1.607.329-3.173.279-4.723-.025-.774-.159-1.529-.183-2.304l-.4-2.265-.78-2.531z" transform="translate(0 -3)"/>
</svg>
