<?xml version="1.0" encoding="UTF-8"?>
<svg width="63px" height="63px" viewBox="0 0 63 63" version="1.1" xmlns="http://www.w3.org/2000/svg" xmlns:xlink="http://www.w3.org/1999/xlink">
    <!-- Generator: Sketch 48.2 (47327) - http://www.bohemiancoding.com/sketch -->
    <title>Page 1</title>
    <desc>Created with Sketch.</desc>
    <defs></defs>
    <g id="首页" stroke="none" stroke-width="1" fill="none" fill-rule="evenodd" transform="translate(-533.000000, -1126.000000)">
        <path d="M588.004504,1147.6888 L595.748464,1138.50172 C596.272624,1137.84484 596.010544,1136.79484 595.354504,1136.53276 L573.435544,1126.1638 C572.910544,1125.90172 572.254504,1126.03276 571.860544,1126.55776 L564.510544,1135.35172 L557.160544,1126.55776 C556.766584,1126.03276 556.110544,1125.90172 555.585544,1126.1638 L533.798464,1136.40172 C533.010544,1136.6638 532.748464,1137.7138 533.272624,1138.37068 L541.016584,1147.55776 L533.272624,1156.74484 C532.748464,1157.53276 533.010544,1158.58276 533.798464,1158.84484 L541.410544,1162.3888 L541.410544,1177.48276 C541.410544,1178.00776 541.672624,1178.40172 542.198464,1178.6638 L563.985544,1188.90172 C564.379504,1189.03276 564.772624,1189.03276 565.035544,1188.90172 L586.822624,1178.6638 C587.348464,1178.40172 587.610544,1178.00776 587.610544,1177.48276 L587.610544,1162.3888 L595.222624,1158.84484 C596.010544,1158.45172 596.272624,1157.53276 595.616584,1156.87672 L588.004504,1147.6888 Z M564.510544,1156.35172 L545.741584,1147.6888 L564.510544,1138.89484 L583.279504,1147.6888 L564.510544,1156.35172 Z M573.304504,1128.92068 L592.598464,1137.97672 L585.904504,1145.98276 L566.610544,1136.92672 L573.304504,1128.92068 Z M555.716584,1128.92068 L562.410544,1136.92672 L543.116584,1145.98276 L536.422624,1137.97672 L555.716584,1128.92068 Z M543.116584,1149.2638 L562.541584,1158.32068 L555.848464,1166.32672 L536.422624,1157.27068 L543.116584,1149.2638 Z M544.035544,1163.70172 L555.585544,1169.08276 C556.110544,1169.34484 556.766584,1169.2138 557.160544,1168.6888 L563.198464,1161.47068 L563.198464,1185.62068 L544.035544,1176.69484 L544.035544,1163.70172 Z M584.985544,1163.70172 L584.985544,1176.69484 L565.822624,1185.62068 L565.822624,1161.47068 L571.860544,1168.6888 C572.254504,1169.08276 572.910544,1169.34484 573.435544,1169.08276 L584.985544,1163.70172 Z M573.304504,1166.32672 L566.610544,1158.32068 L585.904504,1149.2638 L592.598464,1157.27068 L573.304504,1166.32672 Z" id="Page-1" fill="#000000"></path>
    </g>
</svg>