<?xml version="1.0" encoding="UTF-8"?>
<svg width="69px" height="61px" viewBox="0 0 69 61" version="1.1" xmlns="http://www.w3.org/2000/svg" xmlns:xlink="http://www.w3.org/1999/xlink">
    <!-- Generator: Sketch 48.2 (47327) - http://www.bohemiancoding.com/sketch -->
    <title>Page 1 Copy 3</title>
    <desc>Created with Sketch.</desc>
    <defs></defs>
    <g id="首页" stroke="none" stroke-width="1" fill="none" fill-rule="evenodd" transform="translate(-218.000000, -1128.000000)">
        <g id="Group-28" transform="translate(132.000000, 1128.000000)" fill="#000000">
            <g id="Page-1-Copy-3" transform="translate(86.000000, 0.000000)">
                <path d="M12.879,0.5 L5.766,0.5 C2.699,0.5 0.215,2.996 0.215,6.051 L0.215,27.285 C0.215,27.887 0.695,28.355 1.285,28.355 L17.355,28.355 C17.945,28.355 18.426,27.883 18.426,27.285 L18.43,6.051 C18.43,2.996 15.941,0.5 12.879,0.5 Z M13.07,21.93 L5.57,21.93 C4.98,21.93 4.5,21.457 4.5,20.859 C4.5,20.27 4.98,19.789 5.57,19.789 L13.07,19.789 C13.66,19.789 14.141,20.27 14.141,20.859 C14.145,21.457 13.66,21.93 13.07,21.93 Z M13.07,17.645 L5.57,17.645 C4.98,17.645 4.5,17.172 4.5,16.574 C4.5,15.984 4.98,15.504 5.57,15.504 L13.07,15.504 C13.66,15.504 14.141,15.984 14.141,16.574 C14.145,17.172 13.66,17.645 13.07,17.645 Z M13.07,13.355 L5.57,13.355 C4.98,13.355 4.5,12.883 4.5,12.285 C4.5,11.695 4.98,11.215 5.57,11.215 L13.07,11.215 C13.66,11.215 14.141,11.695 14.141,12.285 C14.145,12.887 13.66,13.355 13.07,13.355 Z M13.07,9.07 L5.57,9.07 C4.98,9.07 4.5,8.598 4.5,8 C4.5,7.41 4.98,6.93 5.57,6.93 L13.07,6.93 C13.66,6.93 14.141,7.41 14.141,8 C14.145,8.602 13.66,9.07 13.07,9.07 Z" id="Fill-1"></path>
                <path d="M63.234,0.5 L56.121,0.5 C53.059,0.5 50.57,2.996 50.57,6.051 L50.57,27.285 C50.57,27.887 51.051,28.355 51.641,28.355 L67.711,28.355 C68.301,28.355 68.781,27.883 68.781,27.285 L68.785,6.051 C68.785,2.996 66.301,0.5 63.234,0.5 Z M63.43,21.93 L55.93,21.93 C55.34,21.93 54.859,21.457 54.859,20.859 C54.859,20.27 55.34,19.789 55.93,19.789 L63.43,19.789 C64.02,19.789 64.5,20.27 64.5,20.859 C64.5,21.457 64.02,21.93 63.43,21.93 Z M63.43,13.355 L55.93,13.355 C55.34,13.355 54.859,12.883 54.859,12.285 C54.859,11.695 55.34,11.215 55.93,11.215 L63.43,11.215 C64.02,11.215 64.5,11.695 64.5,12.285 C64.5,12.887 64.02,13.355 63.43,13.355 Z M63.43,9.07 L55.93,9.07 C55.34,9.07 54.859,8.598 54.859,8 C54.859,7.41 55.34,6.93 55.93,6.93 L63.43,6.93 C64.02,6.93 64.5,7.41 64.5,8 C64.5,8.602 64.02,9.07 63.43,9.07 Z" id="Fill-2"></path>
                <path d="M67.715,55.145 L38.723,55.145 C38.422,53.547 37.168,52.281 35.57,51.992 L35.57,48.18 L42.535,48.18 C43.125,48.18 43.605,47.707 43.605,47.109 L43.605,25.871 C43.605,22.816 41.121,20.32 38.059,20.32 L30.945,20.32 C27.879,20.32 25.395,22.816 25.395,25.871 L25.395,47.105 C25.395,47.707 25.875,48.176 26.465,48.176 L33.43,48.18 L33.43,51.992 C31.832,52.281 30.578,53.547 30.277,55.145 L1.285,55.145 C0.695,55.145 0.215,55.625 0.215,56.215 C0.215,56.816 0.695,57.285 1.285,57.285 L30.277,57.285 C30.609,59.117 32.215,60.5 34.133,60.5 L34.863,60.5 C36.781,60.5 38.387,59.117 38.719,57.285 L67.715,57.285 C68.305,57.285 68.785,56.812 68.785,56.215 C68.785,55.625 68.305,55.145 67.715,55.145 Z M30.75,26.75 L38.25,26.75 C38.84,26.75 39.32,27.23 39.32,27.82 C39.32,28.422 38.84,28.891 38.25,28.891 L30.75,28.891 C30.16,28.891 29.68,28.418 29.68,27.82 C29.68,27.23 30.16,26.75 30.75,26.75 Z M30.75,31.035 L38.25,31.035 C38.84,31.035 39.32,31.516 39.32,32.105 C39.32,32.707 38.84,33.176 38.25,33.176 L30.75,33.176 C30.16,33.176 29.68,32.703 29.68,32.105 C29.68,31.52 30.16,31.035 30.75,31.035 Z M30.75,35.32 L38.25,35.32 C38.84,35.32 39.32,35.801 39.32,36.391 C39.32,36.992 38.84,37.461 38.25,37.461 L30.75,37.461 C30.16,37.461 29.68,36.988 29.68,36.391 C29.68,35.805 30.16,35.32 30.75,35.32 Z M29.68,40.68 C29.68,40.09 30.16,39.609 30.75,39.609 L38.25,39.609 C38.84,39.609 39.32,40.09 39.32,40.68 C39.32,41.281 38.84,41.75 38.25,41.75 L30.75,41.75 C30.16,41.75 29.68,41.277 29.68,40.68 Z" id="Fill-3"></path>
                <path d="M60.215,32.645 C60.492,32.645 60.773,32.539 60.977,32.332 C61.168,32.129 61.289,31.859 61.289,31.57 C61.289,31.293 61.172,31.012 60.977,30.809 C60.57,30.41 59.852,30.41 59.457,30.809 C59.266,31.012 59.145,31.289 59.145,31.57 C59.145,31.859 59.262,32.129 59.457,32.332 C59.656,32.535 59.938,32.645 60.215,32.645 Z" id="Fill-4"></path>
                <path d="M61.285,35.855 C61.285,36.145 61.168,36.414 60.973,36.617 C60.77,36.82 60.492,36.93 60.215,36.93 C59.938,36.93 59.656,36.824 59.453,36.617 C59.262,36.426 59.145,36.145 59.145,35.855 C59.145,35.715 59.176,35.578 59.23,35.449 C59.281,35.32 59.355,35.203 59.453,35.105 C59.848,34.711 60.578,34.699 60.973,35.105 C61.07,35.203 61.145,35.32 61.199,35.449 C61.254,35.578 61.285,35.719 61.285,35.855 Z" id="Fill-5"></path>
                <path d="M59.453,40.902 C59.656,41.105 59.934,41.215 60.215,41.215 C60.492,41.215 60.773,41.109 60.977,40.902 C61.168,40.699 61.289,40.43 61.289,40.141 C61.289,39.863 61.172,39.582 60.977,39.391 C60.57,38.984 59.852,38.984 59.457,39.391 C59.266,39.582 59.145,39.863 59.145,40.141 C59.145,40.434 59.262,40.699 59.453,40.902 Z" id="Fill-6"></path>
                <path d="M61.285,44.43 C61.285,44.719 61.168,44.988 60.973,45.191 C60.77,45.395 60.492,45.5 60.215,45.5 C59.938,45.5 59.656,45.395 59.453,45.188 C59.262,44.996 59.145,44.719 59.145,44.43 C59.145,44.289 59.176,44.152 59.23,44.023 C59.281,43.895 59.355,43.773 59.453,43.68 C59.848,43.285 60.578,43.273 60.973,43.68 C61.07,43.777 61.145,43.895 61.199,44.023 C61.254,44.148 61.285,44.289 61.285,44.43 Z" id="Fill-7"></path>
                <path d="M59.453,49.477 C59.656,49.68 59.934,49.789 60.215,49.789 C60.492,49.789 60.773,49.684 60.977,49.477 C61.168,49.273 61.289,49.004 61.289,48.715 C61.289,48.438 61.172,48.156 60.977,47.965 C60.57,47.559 59.852,47.559 59.457,47.965 C59.266,48.156 59.145,48.438 59.145,48.715 C59.145,49.004 59.262,49.27 59.453,49.477 Z" id="Fill-8"></path>
                <path d="M10.617,30.82 C10.512,30.715 10.391,30.637 10.262,30.586 C10.07,30.5 9.855,30.48 9.641,30.523 C9.578,30.543 9.512,30.566 9.449,30.586 C9.387,30.605 9.32,30.648 9.258,30.684 C9.203,30.727 9.152,30.77 9.098,30.824 C8.906,31.016 8.785,31.297 8.785,31.574 C8.785,31.715 8.816,31.852 8.871,31.992 C8.926,32.121 9,32.238 9.098,32.336 C9.301,32.539 9.578,32.648 9.859,32.648 C10,32.648 10.137,32.629 10.266,32.574 C10.395,32.52 10.512,32.434 10.621,32.34 C10.719,32.242 10.793,32.125 10.848,31.996 C10.902,31.855 10.934,31.719 10.934,31.578 C10.93,31.293 10.812,31.016 10.617,30.82 Z" id="Fill-9"></path>
                <path d="M10.617,39.395 C10.512,39.289 10.391,39.211 10.262,39.16 C10.07,39.074 9.855,39.055 9.641,39.098 C9.578,39.117 9.512,39.141 9.449,39.16 C9.387,39.18 9.32,39.223 9.258,39.258 C9.203,39.301 9.152,39.344 9.098,39.398 C8.906,39.59 8.785,39.871 8.785,40.148 C8.785,40.289 8.816,40.426 8.871,40.566 C8.926,40.695 9,40.812 9.098,40.91 C9.301,41.113 9.578,41.223 9.859,41.223 C10,41.223 10.137,41.203 10.266,41.148 C10.395,41.094 10.512,41.008 10.621,40.914 C10.719,40.816 10.793,40.699 10.848,40.57 C10.902,40.43 10.934,40.293 10.934,40.152 C10.93,39.863 10.812,39.586 10.617,39.395 Z" id="Fill-10"></path>
                <path d="M10.617,43.68 C10.812,43.871 10.93,44.148 10.93,44.43 C10.93,44.57 10.898,44.707 10.844,44.848 C10.789,44.977 10.715,45.094 10.617,45.191 C10.512,45.289 10.391,45.375 10.262,45.426 C10.137,45.48 9.996,45.5 9.855,45.5 C9.578,45.5 9.297,45.395 9.094,45.188 C8.996,45.09 8.922,44.973 8.867,44.844 C8.816,44.707 8.785,44.566 8.785,44.43 C8.785,44.152 8.902,43.871 9.098,43.68 C9.152,43.625 9.203,43.582 9.258,43.539 C9.32,43.508 9.387,43.465 9.449,43.441 C9.512,43.422 9.578,43.398 9.641,43.379 C9.855,43.336 10.07,43.355 10.266,43.441 C10.395,43.496 10.512,43.57 10.617,43.68 Z" id="Fill-11"></path>
                <path d="M8.871,36.273 C8.816,36.137 8.785,35.996 8.785,35.855 C8.785,35.578 8.902,35.297 9.098,35.105 C9.152,35.051 9.203,35.008 9.258,34.965 C9.32,34.934 9.387,34.891 9.449,34.867 C9.512,34.848 9.578,34.824 9.641,34.805 C9.855,34.766 10.07,34.785 10.266,34.871 C10.395,34.926 10.512,35 10.617,35.105 C10.812,35.301 10.93,35.578 10.93,35.855 C10.93,35.996 10.898,36.133 10.844,36.273 C10.789,36.402 10.715,36.52 10.617,36.617 C10.512,36.715 10.391,36.801 10.262,36.852 C10.137,36.906 9.996,36.93 9.855,36.93 C9.578,36.93 9.297,36.824 9.094,36.617 C9,36.52 8.926,36.402 8.871,36.273 Z" id="Fill-12"></path>
                <path d="M10.266,47.73 C10.074,47.645 9.859,47.625 9.645,47.668 C9.582,47.688 9.516,47.711 9.453,47.73 C9.391,47.75 9.324,47.793 9.262,47.828 C9.207,47.871 9.156,47.914 9.102,47.969 C8.91,48.16 8.789,48.441 8.789,48.719 C8.789,48.859 8.82,48.996 8.875,49.137 C8.93,49.266 9.004,49.383 9.102,49.48 C9.305,49.684 9.582,49.793 9.863,49.793 C10.004,49.793 10.141,49.773 10.27,49.719 C10.398,49.664 10.516,49.578 10.625,49.484 C10.723,49.387 10.797,49.27 10.852,49.141 C10.906,49 10.938,48.863 10.938,48.723 C10.938,48.445 10.82,48.164 10.625,47.973 C10.512,47.855 10.395,47.781 10.266,47.73 Z" id="Fill-13"></path>
            </g>
        </g>
    </g>
</svg>