<?xml version="1.0" encoding="UTF-8"?>
<svg width="65px" height="69px" viewBox="0 0 65 69" version="1.1" xmlns="http://www.w3.org/2000/svg" xmlns:xlink="http://www.w3.org/1999/xlink">
    <!-- Generator: Sketch 48.2 (47327) - http://www.bohemiancoding.com/sketch -->
    <title>Page 1 Copy 4</title>
    <desc>Created with Sketch.</desc>
    <defs></defs>
    <g id="首页" stroke="none" stroke-width="1" fill="none" fill-rule="evenodd" transform="translate(-844.000000, -1124.000000)">
        <g id="Group-30" transform="translate(756.000000, 1124.000000)" fill="#000000">
            <g id="Page-1-Copy-4" transform="translate(88.000000, 0.000000)">
                <path d="M14.281,18.98 C14.281,18.984 14.281,18.984 14.281,18.988 C14.285,19 14.289,19.008 14.293,19.016 C14.297,19.027 14.297,19.035 14.301,19.047 C14.301,19.047 14.305,19.051 14.305,19.051 C14.316,19.082 14.336,19.109 14.355,19.137 C14.363,19.145 14.367,19.148 14.375,19.156 C14.395,19.176 14.414,19.191 14.434,19.207 C14.441,19.211 14.445,19.215 14.453,19.219 C14.457,19.219 14.457,19.223 14.461,19.227 L21.98,23.664 C22.039,23.699 22.105,23.719 22.176,23.719 C22.191,23.719 22.203,23.715 22.219,23.715 C22.234,23.715 22.246,23.723 22.262,23.723 C22.328,23.723 22.395,23.707 22.457,23.672 L30.043,19.344 C30.133,19.293 30.199,19.207 30.227,19.105 C30.254,19.004 30.238,18.898 30.184,18.809 L22.723,6.238 C22.648,6.113 22.508,6.047 22.363,6.055 C22.207,6.027 22.051,6.098 21.969,6.234 L14.328,18.691 C14.324,18.699 14.32,18.707 14.316,18.719 C14.309,18.73 14.305,18.746 14.297,18.758 C14.293,18.77 14.289,18.777 14.289,18.789 C14.285,18.801 14.281,18.816 14.277,18.832 C14.277,18.844 14.273,18.855 14.273,18.863 C14.273,18.879 14.27,18.891 14.27,18.906 C14.27,18.918 14.273,18.93 14.273,18.938 C14.277,18.953 14.277,18.965 14.281,18.98 Z M22.766,7.828 L28.922,18.203 L22.711,15.406 L22.766,7.828 Z M22.707,16.25 L28.961,19.066 L22.66,22.664 L22.707,16.25 Z M21.902,7.82 L21.848,15.359 L15.629,18.051 L21.902,7.82 Z M21.844,16.207 L21.797,22.656 L15.512,18.945 L21.844,16.207 Z" id="Fill-1"></path>
                <path d="M22.207,31.641 C22.328,31.641 22.449,31.582 22.523,31.48 L30.152,20.973 C30.262,20.824 30.25,20.621 30.125,20.484 C30.004,20.348 29.801,20.316 29.645,20.41 L22.215,24.754 L14.848,20.301 C14.691,20.207 14.488,20.234 14.363,20.367 C14.238,20.5 14.223,20.703 14.328,20.855 L21.805,31.473 C21.879,31.578 21.996,31.637 22.117,31.637 C22.133,31.637 22.145,31.633 22.16,31.629 C22.176,31.637 22.191,31.641 22.207,31.641 Z M22.641,25.406 L28.441,22.016 L22.605,30.055 L22.641,25.406 Z M21.742,30.043 L16.023,21.922 L21.773,25.398 L21.742,30.043 Z" id="Fill-2"></path>
                <path d="M26.035,50.859 C25.562,50.258 24.871,49.773 23.98,49.41 C24.445,49.047 24.809,48.613 25.062,48.117 C25.395,47.48 25.547,46.746 25.52,45.934 C25.465,44.293 24.84,43.047 23.668,42.23 C22.801,41.625 21.633,41.266 20.195,41.16 L20.133,39.363 C20.125,39.148 19.945,38.98 19.73,38.988 L17.723,39.055 C17.508,39.062 17.34,39.242 17.348,39.457 L17.406,41.172 L16.688,41.195 L16.629,39.48 C16.621,39.266 16.441,39.098 16.227,39.105 L14.219,39.172 C14.004,39.18 13.836,39.359 13.844,39.574 L13.902,41.289 L11.926,41.355 C11.211,41.379 10.699,41.547 10.371,41.871 C10.039,42.195 9.883,42.688 9.902,43.336 C9.922,43.938 10.098,44.402 10.426,44.719 C10.75,45.035 11.207,45.188 11.785,45.168 L12.137,55.656 C11.562,55.68 11.113,55.859 10.812,56.188 C10.508,56.52 10.363,56.988 10.383,57.582 C10.406,58.238 10.594,58.723 10.941,59.02 C11.289,59.312 11.809,59.445 12.535,59.422 L14.512,59.355 L14.566,61.012 C14.574,61.227 14.754,61.395 14.969,61.387 L16.977,61.32 C17.191,61.312 17.359,61.133 17.352,60.918 L17.297,59.262 L18.016,59.238 L18.07,60.895 C18.078,61.109 18.258,61.277 18.473,61.27 L20.48,61.203 C20.695,61.195 20.863,61.016 20.855,60.801 L20.801,59.148 C21.633,59.102 22.301,59.02 22.793,58.898 C23.402,58.75 23.957,58.52 24.441,58.211 C25.27,57.688 25.906,57.023 26.336,56.23 C26.766,55.438 26.969,54.559 26.938,53.617 C26.898,52.5 26.594,51.57 26.035,50.859 Z M15.973,44.945 L18.156,44.871 C19.102,44.84 19.793,44.949 20.203,45.203 C20.582,45.438 20.777,45.816 20.793,46.363 C20.812,46.945 20.625,47.348 20.223,47.598 C19.777,47.875 18.965,48.035 17.805,48.074 L16.078,48.133 L15.973,44.945 Z M21.445,54.957 C20.859,55.301 19.793,55.5 18.277,55.551 L16.328,55.617 L16.195,51.648 L18.293,51.578 C19.766,51.527 20.805,51.656 21.383,51.957 C21.918,52.234 22.188,52.723 22.215,53.441 C22.238,54.141 21.988,54.641 21.445,54.957 Z" id="Fill-3"></path>
                <path d="M64.449,35.223 C62.559,25.34 52.98,18.836 43.098,20.723 C42.133,20.906 41.203,21.168 40.309,21.492 C40.43,20.668 40.5,19.828 40.504,18.973 C40.578,8.914 32.449,0.668 22.387,0.594 C12.324,0.52 4.078,8.648 4.004,18.711 C3.961,24.695 6.82,30.039 11.258,33.402 C4.57,36.289 -0.023,43.059 0.238,50.77 C0.578,60.828 9.035,68.734 19.094,68.395 C28.5,68.078 36.027,60.656 36.68,51.469 C36.688,52.312 36.691,53.16 36.684,54.004 C40.48,56.441 45.18,57.488 49.953,56.578 C59.832,54.688 66.336,45.109 64.449,35.223 Z M6.16,18.727 C6.227,9.852 13.5,2.684 22.375,2.746 C31.25,2.812 38.418,10.086 38.355,18.961 C38.289,27.836 31.016,35.004 22.141,34.941 C13.262,34.875 6.094,27.602 6.16,18.727 Z M19.02,66.242 C10.148,66.543 2.688,59.566 2.391,50.695 C2.145,43.371 6.855,37.012 13.5,34.848 C16.062,36.258 19,37.066 22.125,37.09 C23.793,37.102 25.406,36.887 26.945,36.477 C31.359,39.219 34.379,44.039 34.566,49.609 C34.863,58.484 27.891,65.945 19.02,66.242 Z M49.547,54.461 C44.84,55.359 40.211,54.098 36.688,51.375 C36.727,50.77 36.738,50.156 36.719,49.539 C36.527,43.824 33.707,38.809 29.465,35.602 C34.383,33.477 38.191,29.254 39.742,24.055 C40.914,23.508 42.172,23.094 43.5,22.84 C52.219,21.172 60.668,26.91 62.332,35.629 C64,44.348 58.262,52.793 49.547,54.461 Z" id="Fill-4"></path>
                <path d="M55.965,42.477 C55.863,42.383 55.719,42.344 55.582,42.367 L46.664,44.07 L47.004,39.723 L49.551,38.148 C49.707,38.051 49.789,37.867 49.754,37.688 L49.375,35.703 C49.348,35.562 49.254,35.441 49.121,35.379 C48.988,35.32 48.84,35.328 48.711,35.402 L47.277,36.258 L47.82,29.297 C47.832,29.156 47.777,29.023 47.676,28.934 C47.574,28.84 47.43,28.801 47.293,28.824 L41.586,29.914 C41.383,29.953 41.234,30.121 41.227,30.328 L40.676,40.199 L38.562,41.461 C38.402,41.559 38.32,41.746 38.355,41.926 L38.773,44.105 C38.801,44.25 38.898,44.371 39.031,44.43 C39.164,44.492 39.324,44.48 39.445,44.402 L40.48,43.762 L40.191,48.969 C40.184,49.105 40.238,49.238 40.344,49.328 C40.449,49.418 40.586,49.453 40.719,49.43 L55.414,46.621 C55.605,46.586 55.754,46.422 55.773,46.23 L56.121,42.848 C56.121,42.711 56.07,42.574 55.965,42.477 Z" id="Fill-5"></path>
            </g>
        </g>
    </g>
</svg>