<?xml version="1.0" encoding="UTF-8"?>
<svg width="69px" height="73px" viewBox="0 0 69 73" version="1.1" xmlns="http://www.w3.org/2000/svg" xmlns:xlink="http://www.w3.org/1999/xlink">
    <!-- Generator: Sketch 48.2 (47327) - http://www.bohemiancoding.com/sketch -->
    <title>Page 1 Copy 2</title>
    <desc>Created with Sketch.</desc>
    <defs></defs>
    <g id="首页" stroke="none" stroke-width="1" fill="none" fill-rule="evenodd" transform="translate(-1154.000000, -1122.000000)">
        <g id="Group-31" transform="translate(1068.000000, 1122.000000)" fill="#000000">
            <g id="Page-1-Copy-2" transform="translate(86.000000, 0.000000)">
                <path d="M50.023,50.301 L47.773,50.602 C48,51.652 48.898,52.402 49.949,52.402 C51.148,52.402 52.125,51.426 52.125,50.227 C52.125,49.703 51.898,49.25 51.676,48.875 L50.023,50.301 Z" id="Fill-1"></path>
                <path d="M47.852,48.5 C47.477,48.949 47.25,49.551 47.25,50.148 C47.25,50.223 47.25,50.375 47.25,50.375 L49.727,50.074 L47.852,48.5 Z" id="Fill-2"></path>
                <path d="M51.75,48.574 C51.301,48.051 50.625,47.75 49.949,47.75 C49.273,47.75 48.598,48.051 48.148,48.5 L49.949,50.074 L51.75,48.574 Z" id="Fill-3"></path>
                <path d="M55.273,47.824 C54.523,48.199 53.922,48.949 53.773,49.848 C53.699,50.449 53.773,50.973 54,51.422 L56.176,50.148 L55.273,47.824 Z" id="Fill-4"></path>
                <path d="M56.852,48.051 C56.477,47.977 56.102,48.051 55.727,48.199 L56.551,50.223 L54.676,51.348 C54.977,51.949 55.574,52.324 56.25,52.398 C57.449,52.625 58.574,51.723 58.727,50.523 C58.949,49.398 58.051,48.199 56.852,48.051 Z" id="Fill-5"></path>
                <path d="M61.574,47.824 C60.824,48.199 60.223,48.949 60.074,49.848 C60,50.449 60.074,50.973 60.301,51.422 L62.477,50.148 L61.574,47.824 Z" id="Fill-6"></path>
                <path d="M63.148,48.051 C62.773,47.977 62.398,48.051 62.023,48.199 L62.848,50.223 L60.973,51.348 C61.273,51.949 61.871,52.324 62.547,52.398 C63.746,52.625 64.871,51.723 65.023,50.523 C65.25,49.398 64.352,48.199 63.148,48.051 Z" id="Fill-7"></path>
                <path d="M59.102,30.273 C57,29.672 54.676,29.973 52.652,31.098 C48.602,33.422 47.254,38.598 49.578,42.648 C49.652,42.797 49.805,42.949 49.805,43.098 L56.254,38.074 L59.102,30.273 Z" id="Fill-8"></path>
                <path d="M56.926,38.375 L51.527,42.574 C53.551,45.199 57.379,46.023 60.379,44.301 C63.68,42.426 64.805,38.152 62.855,34.926 C62.031,33.426 60.754,32.449 59.254,31.926 L56.926,38.375 Z" id="Fill-9"></path>
                <polygon id="Fill-10" points="57.602 63.574 59.403 63.574 59.403 60.875 57.602 60.875"></polygon>
                <polygon id="Fill-11" points="60.227 63.574 62.028 63.574 62.028 57.801 60.227 57.801"></polygon>
                <polygon id="Fill-12" points="62.773 63.5 64.574 63.5 64.574 59.449 62.773 59.449"></polygon>
                <path d="M55.051,57.273 C54.824,57.273 54.676,57.5 54.676,57.648 C54.676,57.723 54.676,57.723 54.676,57.797 L52.875,59.672 C52.801,59.672 52.801,59.672 52.727,59.672 C52.652,59.672 52.5,59.746 52.5,59.746 L51.824,59.445 L50.473,61.246 L50.398,61.246 C50.25,61.246 50.172,61.32 50.098,61.395 L48.523,61.094 L47.773,62.668 C47.547,62.668 47.398,62.895 47.398,63.043 C47.398,63.191 47.625,63.418 47.773,63.418 C47.922,63.418 48.148,63.191 48.148,63.043 C48.148,62.895 48.074,62.816 48,62.816 L48.676,61.543 L49.949,61.77 C50.023,61.996 50.176,62.07 50.324,62.07 C50.473,62.07 50.699,61.844 50.699,61.695 C50.699,61.621 50.699,61.547 50.625,61.547 L51.75,59.973 L52.125,60.199 C52.125,60.426 52.352,60.574 52.5,60.574 C52.727,60.574 52.875,60.348 52.875,60.199 C52.875,60.125 52.875,60.125 52.875,60.051 L54.676,58.176 C54.75,58.176 54.75,58.176 54.824,58.176 C55.051,58.176 55.199,57.949 55.199,57.801 C55.273,57.5 55.273,57.273 55.051,57.273 Z" id="Fill-13"></path>
                <path d="M28.801,36.426 C28.277,36.426 27.902,36.801 27.902,37.324 C27.902,37.398 27.902,37.473 27.902,37.473 L24.227,41.672 C24.152,41.598 24,41.598 23.852,41.598 C23.703,41.598 23.477,41.672 23.328,41.746 L21.977,40.621 C21.902,40.547 21.75,40.547 21.602,40.547 C21.453,40.547 21.375,40.621 21.301,40.773 L18.227,45.797 C18.152,45.797 18.078,45.723 17.926,45.723 C17.699,45.723 17.477,45.797 17.324,45.949 L13.5,44.301 C13.273,44.227 13.051,44.301 12.977,44.527 L10.125,49.703 C10.125,49.703 10.125,49.703 10.051,49.703 C9.527,49.703 9.152,50.078 9.152,50.602 C9.152,51.125 9.527,51.5 10.051,51.5 C10.574,51.5 10.949,51.125 10.949,50.602 C10.949,50.453 10.875,50.301 10.875,50.152 L13.5,45.277 L17.102,46.852 C17.176,47.227 17.551,47.527 17.926,47.527 C18.449,47.527 18.824,47.152 18.824,46.629 C18.824,46.555 18.824,46.555 18.824,46.48 L21.824,41.605 L22.949,42.504 C23.023,42.953 23.398,43.328 23.848,43.328 C24.371,43.328 24.746,42.953 24.746,42.43 C24.746,42.43 24.746,42.355 24.746,42.355 L28.496,38.082 C28.57,38.082 28.645,38.156 28.797,38.156 C29.32,38.156 29.695,37.781 29.695,37.258 C29.699,36.801 29.324,36.426 28.801,36.426 Z" id="Fill-14"></path>
                <polygon id="Fill-15" points="36.148 50.153 40.125 50.153 40.125 44.301 36.148 44.301"></polygon>
                <path d="M17.852,14.676 C15.75,14.074 13.426,14.375 11.402,15.5 C7.352,17.824 6.004,23 8.328,27.051 C8.402,27.199 8.555,27.352 8.555,27.5 L15.004,22.477 L17.852,14.676 Z" id="Fill-16"></path>
                <path d="M15.676,22.852 L10.277,27.051 C12.301,29.676 16.129,30.5 19.129,28.777 C22.43,26.902 23.555,22.629 21.605,19.402 C20.781,17.902 19.504,16.926 18.004,16.402 L15.676,22.852 Z" id="Fill-17"></path>
                <path d="M29.926,22.625 L26.402,23.148 C26.703,24.797 28.129,26 29.852,26 C31.801,26 33.301,24.5 33.301,22.551 C33.301,21.727 33,21.051 32.625,20.449 L29.926,22.625 Z" id="Fill-18"></path>
                <path d="M26.477,19.773 C25.875,20.449 25.578,21.422 25.578,22.398 C25.578,22.473 25.578,22.699 25.578,22.773 L29.555,22.25 L26.477,19.773 Z" id="Fill-19"></path>
                <path d="M32.699,19.926 C32.023,19.102 30.973,18.574 29.848,18.574 C28.723,18.574 27.746,19.098 26.996,19.773 L29.848,22.25 L32.699,19.926 Z" id="Fill-20"></path>
                <path d="M38.324,18.648 C37.125,19.25 36.223,20.449 36,21.875 C35.926,22.773 36,23.602 36.375,24.426 L39.824,22.402 L38.324,18.648 Z" id="Fill-21"></path>
                <path d="M40.727,19.102 C40.125,19.027 39.527,19.102 38.926,19.328 L40.277,22.555 L37.352,24.355 C37.875,25.254 38.777,25.855 39.902,26.004 C41.852,26.305 43.578,24.879 43.879,23.078 C44.102,21.199 42.676,19.324 40.727,19.102 Z" id="Fill-22"></path>
                <path d="M65.773,21.426 L61.648,21.426 L61.648,4.477 C61.648,2.527 60,0.875 58.047,0.875 L4.047,0.875 C2.098,0.875 0.445,2.523 0.445,4.477 L0.445,53.453 C0.445,55.402 2.094,57.055 4.047,57.055 L43.723,57.055 L43.723,69.43 C43.723,70.93 44.922,72.129 46.422,72.129 L65.773,72.129 C67.273,72.129 68.473,70.93 68.473,69.43 L68.473,24.125 C68.551,22.625 67.273,21.426 65.773,21.426 Z M10.352,5.148 L57.602,5.148 C58.203,5.148 58.652,5.598 58.652,6.199 C58.652,6.801 58.203,7.25 57.602,7.25 L10.352,7.25 C9.75,7.25 9.301,6.801 9.301,6.199 C9.301,5.602 9.75,5.148 10.352,5.148 Z M6,4.398 C6.977,4.398 7.801,5.223 7.801,6.199 C7.801,7.176 6.977,8 6,8 C5.023,8 4.199,7.176 4.199,6.199 C4.273,5.148 5.023,4.398 6,4.398 Z M4.051,53.898 C3.824,53.898 3.602,53.672 3.602,53.449 L3.602,10.926 L58.5,10.926 L58.5,21.426 L53.551,21.426 C53.102,20.227 52.051,19.25 50.699,19.102 C50.098,19.027 49.5,19.102 48.898,19.328 L49.797,21.43 L49.422,21.43 L48.297,18.656 C47.246,19.18 46.348,20.23 46.047,21.43 C44.773,21.656 43.797,22.781 43.797,24.129 L43.797,37.555 L41.848,37.555 L41.848,50.156 L43.797,50.156 L43.797,53.906 L4.051,53.906 L4.051,53.898 Z M56.102,70.926 C55.125,70.926 54.301,70.102 54.301,69.125 C54.301,68.148 55.125,67.324 56.102,67.324 C57.078,67.324 57.902,68.148 57.902,69.125 C57.977,70.102 57.148,70.926 56.102,70.926 Z M66.824,65.676 C66.824,65.902 66.676,66.051 66.449,66.051 L45.824,66.051 C45.598,66.051 45.449,65.902 45.449,65.676 L45.449,27.875 C45.449,27.648 45.598,27.5 45.824,27.5 L66.449,27.5 C66.676,27.5 66.824,27.648 66.824,27.875 L66.824,65.676 Z" id="Fill-23"></path>
            </g>
        </g>
    </g>
</svg>