<svg xmlns="http://www.w3.org/2000/svg" width="32" height="32" viewBox="0 0 32 32">
    <path fill="#2F2C37" fill-rule="nonzero" d="M16 32C7.163 32 0 24.837 0 16S7.163 0 16 0s16 7.163 16 16-7.163 16-16 16zm8.533-20.435c-.541.3-1.203.481-1.805.541.662-.421 1.143-1.083 1.384-1.865a6.962 6.962 0 0 1-2.046.842C21.464 10.421 20.682 10 19.78 10c-1.745 0-3.189 1.504-3.189 3.43 0 .24 0 .542.06.782-2.648-.12-4.995-1.504-6.56-3.55-.3.481-.42 1.083-.42 1.745 0 1.204.541 2.227 1.384 2.828-.542 0-1.023-.18-1.445-.42v.06c0 1.624 1.084 3.008 2.528 3.37-.24.06-.542.12-.843.12-.18 0-.42 0-.601-.06.42 1.383 1.564 2.346 2.948 2.346-1.083.903-2.467 1.445-3.911 1.445-.24 0-.482 0-.783-.06 1.385.962 3.07 1.564 4.875 1.564 5.837 0 9.026-5.175 9.026-9.689v-.42c.723-.602 1.264-1.204 1.685-1.926z"/>
</svg>
