<?xml version="1.0" encoding="UTF-8"?>
<svg width="21px" height="24px" viewBox="0 0 21 24" version="1.1" xmlns="http://www.w3.org/2000/svg" xmlns:xlink="http://www.w3.org/1999/xlink">
    <!-- Generator: Sketch 48.2 (47327) - http://www.bohemiancoding.com/sketch -->
    <title>Page 1</title>
    <desc>Created with Sketch.</desc>
    <defs></defs>
    <g id="控制面板" stroke="none" stroke-width="1" fill="none" fill-rule="evenodd" transform="translate(-1287.000000, -28.000000)">
        <g id="Page-1" transform="translate(1287.000000, 28.000000)" fill="#888888">
            <path d="M17.6584286,7.104 C16.8548571,6.32813793 15.9325714,5.69296552 14.9164286,5.21751724 C14.2782857,4.91875862 13.5085714,5.17572414 13.1987143,5.79310345 C12.8888571,6.41048276 13.155,7.15241379 13.7948571,7.45158621 C14.5512857,7.80537931 15.2395714,8.27917241 15.8404286,8.85931034 C18.7851429,11.7024828 18.7851429,16.3303448 15.8404286,19.1735172 C14.4141429,20.5506207 12.5172857,21.3086897 10.5,21.3086897 C8.48271429,21.3086897 6.58585714,20.5506207 5.15957143,19.1735172 C2.21485714,16.3303448 2.21485714,11.7024828 5.15957143,8.85931034 C5.76042857,8.27917241 6.44871429,7.80537931 7.20514286,7.45158621 C7.845,7.15241379 8.11114286,6.41048276 7.80128571,5.79310345 C7.49142857,5.17572414 6.72342857,4.91875862 6.08357143,5.21751724 C5.06914286,5.69296552 4.14685714,6.32648276 3.34328571,7.104 C-0.604285714,10.9154483 -0.604285714,17.1173793 3.34328571,20.9288276 C5.31685714,22.8347586 7.91014286,23.7881379 10.5017143,23.7881379 C13.095,23.7881379 15.6878571,22.8364138 17.6601429,20.9288276 C21.6077143,17.1173793 21.6077143,10.9171034 17.6584286,7.104 Z" id="Fill-1"></path>
            <path d="M10.5,12 C11.2097143,12 11.7857143,11.4438621 11.7857143,10.7586207 L11.7857143,1.44827586 C11.7857143,0.763034483 11.2097143,0.206896552 10.5,0.206896552 C9.79028571,0.206896552 9.21428571,0.763034483 9.21428571,1.44827586 L9.21428571,10.7586207 C9.21428571,11.4438621 9.79028571,12 10.5,12 Z" id="Fill-2"></path>
        </g>
    </g>
</svg>