<svg xmlns="http://www.w3.org/2000/svg" width="151" height="24" viewBox="0 0 151 24">
    <defs>
        <linearGradient id="a" x1="50%" x2="50%" y1=".797%" y2="100%">
            <stop offset="0%" stop-color="#2C2934" stop-opacity="0"/>
            <stop offset="100%" stop-color="#2C2934"/>
        </linearGradient>
        <linearGradient id="b" x1="50%" x2="50%" y1="100%" y2=".797%">
            <stop offset="0%" stop-color="#2C2934" stop-opacity="0"/>
            <stop offset="100%" stop-color="#2C2934"/>
        </linearGradient>
        <linearGradient id="c" x1="50%" x2="50%" y1="97.189%" y2="2.495%">
            <stop offset="0%" stop-color="#FFF" stop-opacity="0"/>
            <stop offset="100%" stop-color="#FFF"/>
        </linearGradient>
        <linearGradient id="d" x1="50%" x2="50%" y1=".797%" y2="97.189%">
            <stop offset="0%" stop-color="#FFF" stop-opacity="0"/>
            <stop offset="100%" stop-color="#FFF"/>
        </linearGradient>
        <linearGradient id="e" x1="50%" x2="50%" y1="0%" y2="82.444%">
            <stop offset="0%" stop-color="#FFF"/>
            <stop offset="100%" stop-color="#FFF" stop-opacity="0"/>
        </linearGradient>
    </defs>
    <g fill="none" fill-rule="evenodd">
        <path fill="#FFF" d="M6.545 24H0v-6h6.545v6zm3.273 0v-6h4.91A3.273 3.273 0 0 0 18 14.727V9.818h6V24H9.818zM6.545 9.818v4.91H0V0h14.727v6.545H9.818a3.273 3.273 0 0 0-3.273 3.273zm3.273 0h4.91v4.91h-4.91V18zM24 6.545h-6V0h6v6.545z"/>
        <path fill="url(#a)" d="M14.727 18H18v6h-3.273z"/>
        <path fill="url(#b)" d="M6.545 0h3.273v6H6.545z"/>
        <path fill="url(#c)" d="M10.636 13.909h3.273v4.909h-3.273z" transform="rotate(-90 12.273 16.364)"/>
        <path fill="url(#d)" d="M10.636 5.727h3.273v4.909h-3.273z" transform="rotate(-90 12.273 8.182)"/>
        <path fill="#FFF" d="M47.473 4h2.664v16h-2.664v-6.66h-8.01V20H36.8v-6.66l2.663-2.68h8.01V4zM59.85 14.68l-1.322 2.64L57.165 20h-2.963l8.01-16 5.346 10.68h-3.003l-2.343-4.7-2.363 4.7zm9.03 2.66L70.223 20h-2.984l-1.322-2.66h2.964zm10.073-4h-3.985c-1.301 0-2.403-.46-3.304-1.36-.9-.92-1.361-2.02-1.361-3.32 0-1.28.46-2.36 1.361-3.28.901-.92 2.003-1.38 3.304-1.38v2.68c-.28 0-.54.04-.78.14-.26.1-.461.24-.661.44-.18.18-.32.4-.42.64-.101.24-.141.5-.141.76 0 .56.18 1.02.56 1.42.401.4.862.6 1.442.6h3.985c1.302 0 2.403.46 3.305 1.36.92.92 1.381 2.02 1.381 3.3 0 1.28-.46 2.38-1.381 3.3-.902.9-2.003 1.36-3.305 1.36v-2.68c.28 0 .541-.04.781-.14.26-.1.481-.24.661-.42.18-.18.32-.38.42-.64.1-.24.16-.5.16-.78 0-.54-.22-1-.6-1.4-.4-.4-.86-.6-1.422-.6zM98.457 4h2.663v16h-2.663v-6.66h-8.01V20h-2.664v-6.66l2.664-2.68h8.01V4z"/>
        <path fill="url(#e)" d="M0 0h2.56v5.12L0 7.68zM50.88 0h2.56v5.12l-2.56 2.56z" transform="translate(36.8 4)"/>
        <path fill="#FFF" d="M104 20v-2.24h2.24V20H104zm15.743-14.151c1.025 1.039 1.537 2.273 1.537 3.704s-.492 2.685-1.537 3.705c-1.024 1.019-2.265 1.528-3.703 1.528h-5.26V20h-2.62v-7.84h7.88c.71 0 1.32-.255 1.832-.764.512-.51.788-1.118.788-1.843a2.47 2.47 0 0 0-.788-1.842 2.507 2.507 0 0 0-1.832-.765h-7.88V4.32h7.88c1.438 0 2.679.51 3.703 1.529zm11.17 6.644c-.61.882-1.379 1.51-2.305 1.882L131.84 20h-3.015l-4.573-7.86 2.346.02c.71 0 1.32-.255 1.832-.764.533-.51.789-1.137.789-1.862 0-.706-.256-1.314-.789-1.823a2.51 2.51 0 0 0-1.832-.765h-5.263l-.295-.294-1.36-2.332h6.918c1.438 0 2.68.51 3.705 1.529 1.025 1.039 1.537 2.254 1.537 3.685 0 1.097-.296 2.077-.926 2.96zM142.55 4.32c2.173 0 3.994.784 5.52 2.313 1.547 1.529 2.33 3.371 2.33 5.527 0 2.176-.783 4.018-2.33 5.527-1.526 1.529-3.347 2.313-5.52 2.313-2.173 0-3.993-.784-5.52-2.313-1.527-1.529-2.31-3.351-2.31-5.527 0-2.156.783-3.998 2.31-5.527 1.507-1.529 3.347-2.313 5.52-2.313zm.01 2.56c-1.449 0-2.7.496-3.752 1.548-1.032 1.032-1.528 2.283-1.528 3.732 0 1.449.496 2.72 1.528 3.752 1.033 1.032 2.303 1.528 3.752 1.528 1.449 0 2.7-.496 3.732-1.528 1.052-1.052 1.548-2.303 1.548-3.752 0-1.449-.516-2.7-1.548-3.732s-2.283-1.548-3.732-1.548z"/>
    </g>
</svg>
