<svg xmlns="http://www.w3.org/2000/svg" width="99" height="18" viewBox="0 0 99 18">
    <defs>
        <linearGradient id="a" x1="50%" x2="50%" y1=".797%" y2="100%">
            <stop offset="0%" stop-color="#2C2934" stop-opacity="0"/>
            <stop offset="100%" stop-color="#FFF"/>
        </linearGradient>
        <linearGradient id="b" x1="50%" x2="50%" y1="100%" y2=".797%">
            <stop offset="0%" stop-color="#2C2934" stop-opacity="0"/>
            <stop offset="100%" stop-color="#FFF"/>
        </linearGradient>
        <linearGradient id="c" x1="97.347%" x2="2.653%" y1="49.842%" y2="49.842%">
            <stop offset="0%" stop-color="#FFF" stop-opacity="0"/>
            <stop offset="100%" stop-color="#2F2C37"/>
        </linearGradient>
        <linearGradient id="d" x1="1.804%" x2="98.196%" y1="48.993%" y2="48.993%">
            <stop offset="0%" stop-color="#FFF" stop-opacity="0"/>
            <stop offset="100%" stop-color="#2F2C37"/>
        </linearGradient>
    </defs>
    <g fill="none" fill-rule="evenodd">
        <path fill="#2F2C37" d="M31.004 3.75h1.748v10.5h-1.748V9.88h-5.256v4.37H24V9.88l1.748-1.76h5.256V3.75zm8.122 7.009l-.868 1.732-.893 1.759H35.42l5.256-10.5 3.51 7.009h-1.972l-1.538-3.085-1.55 3.085zm5.926 1.745l.88 1.746h-1.957l-.867-1.746h1.944zm6.61-2.625h-2.615a2.957 2.957 0 0 1-2.168-.892 3 3 0 0 1-.894-2.179c0-.84.303-1.549.894-2.152.591-.604 1.314-.906 2.168-.906v1.759c-.184 0-.354.026-.512.092-.17.065-.302.157-.434.288-.118.119-.21.263-.276.42a1.292 1.292 0 0 0-.092.5c0 .367.119.668.368.931.263.262.565.394.946.394h2.616c.854 0 1.576.302 2.168.892.604.604.907 1.326.907 2.166 0 .84-.303 1.562-.907 2.165a2.957 2.957 0 0 1-2.168.893v-1.759c.184 0 .354-.026.512-.092.17-.065.315-.157.434-.275.118-.118.21-.25.276-.42a1.32 1.32 0 0 0 .105-.512c0-.354-.145-.656-.394-.919a1.262 1.262 0 0 0-.933-.394zm12.8-6.129h1.748v10.5h-1.748V9.88h-5.256v4.37h-1.748V9.88l1.748-1.76h5.256V3.75z"/>
        <path fill="#00C6BC" d="M24 3.75h1.68v3.36L24 8.79V3.75zm33.39 0h1.68v3.36l-1.68 1.68V3.75z"/>
        <path fill="#2F2C37" d="M68.1 14.25v-1.47h1.47v1.47H68.1zm10.332-9.287c.672.682 1.008 1.492 1.008 2.431 0 .94-.323 1.762-1.008 2.431a3.328 3.328 0 0 1-2.43 1.004h-3.453v3.421H70.83V9.105h5.171c.466 0 .866-.167 1.202-.502.337-.334.518-.733.518-1.209 0-.463-.168-.874-.518-1.209a1.646 1.646 0 0 0-1.202-.501H70.83V3.96h5.171c.944 0 1.758.334 2.43 1.003zm7.33 4.36c-.4.58-.905.991-1.513 1.235l2.121 3.692h-1.979l-3-5.158 1.539.013c.465 0 .866-.167 1.202-.502.35-.334.518-.746.518-1.222 0-.463-.168-.861-.518-1.196a1.647 1.647 0 0 0-1.202-.501h-3.454l-.194-.193-.892-1.531h4.54a3.33 3.33 0 0 1 2.431 1.003c.673.682 1.009 1.48 1.009 2.418a3.24 3.24 0 0 1-.608 1.943zM93.4 3.96c1.426 0 2.62.514 3.622 1.518C98.036 6.48 98.55 7.69 98.55 9.105c0 1.428-.514 2.637-1.529 3.627-1.002 1.004-2.196 1.518-3.622 1.518-1.426 0-2.621-.514-3.623-1.518-1.002-1.003-1.516-2.2-1.516-3.627 0-1.415.514-2.624 1.516-3.627.99-1.003 2.197-1.518 3.623-1.518zm.006 1.68c-.95 0-1.772.326-2.462 1.016-.677.677-1.003 1.498-1.003 2.449 0 .95.326 1.785 1.003 2.462.677.677 1.511 1.003 2.462 1.003.95 0 1.772-.326 2.449-1.003.69-.69 1.016-1.511 1.016-2.462 0-.95-.339-1.772-1.016-2.449a3.345 3.345 0 0 0-2.449-1.016zM4.91 18H0v-4.5h4.91V18zm2.454 0v-4.5h3.681a2.455 2.455 0 0 0 2.455-2.455V7.364H18V18H7.364zM4.909 7.364v3.681H0V0h11.045v4.91H7.364a2.455 2.455 0 0 0-2.455 2.454zm2.455 0h3.681v3.681H7.364V7.364zM18 4.909h-4.5V0H18v4.91z"/>
        <path fill="url(#a)" d="M11.045 13.5H13.5V18h-2.455z"/>
        <path fill="url(#b)" d="M4.909 0h2.455v4.5H4.909z"/>
        <path fill="url(#c)" d="M7.364 13.5v-2.455h3.681V13.5z"/>
        <path fill="url(#d)" d="M7.364 7.364V4.909h3.681v2.455z"/>
    </g>
</svg>
