<?xml version="1.0" encoding="UTF-8"?>
<svg width="16px" height="16px" viewBox="0 0 16 16" version="1.1" xmlns="http://www.w3.org/2000/svg" xmlns:xlink="http://www.w3.org/1999/xlink">
    <!-- Generator: Sketch 48.2 (47327) - http://www.bohemiancoding.com/sketch -->
    <title>Page 1</title>
    <desc>Created with Sketch.</desc>
    <defs></defs>
    <g id="控制面板" stroke="none" stroke-width="1" fill="none" fill-rule="evenodd" transform="translate(-132.000000, -103.000000)">
        <g id="Group-7" transform="translate(0.000000, 81.000000)" fill="#888888">
            <g id="Group-2" transform="translate(132.000000, 20.000000)">
                <path d="M8,2 C3.58618182,2 0,5.58618182 0,10 C0,14.4138182 3.58618182,18 8,18 C12.4138182,18 16,14.4138182 16,10 C16,5.58618182 12.4138182,2 8,2 Z M8,2.72727273 C12.0208485,2.72727273 15.2727273,5.97915152 15.2727273,10 C15.2727273,14.0208485 12.0208485,17.2727273 8,17.2727273 C3.97915152,17.2727273 0.727272727,14.0208485 0.727272727,10 C0.727272727,5.97915152 3.97915152,2.72727273 8,2.72727273 Z M7.97721212,3.08533333 C7.88824242,3.09648485 7.81430303,3.18278788 7.81818182,3.27272727 L7.82375758,4.53406061 C7.8230303,4.62981818 7.91006061,4.71878788 8.00557576,4.71878788 C8.10133333,4.71878788 8.18836364,4.63078788 8.18739394,4.53406061 L8.18181818,3.26715152 C8.18278788,3.16387879 8.07951515,3.072 7.97721212,3.08533333 Z M6.22739394,3.31248485 C6.12412121,3.32775758 6.04921212,3.44606061 6.07951515,3.54545455 L6.41478788,4.7670303 C6.44024242,4.85890909 6.54739394,4.92048485 6.63927273,4.89478788 C6.73115152,4.86933333 6.79272727,4.76242424 6.7670303,4.67054545 L6.43175758,3.45454545 C6.37866667,3.33527273 6.31345455,3.34181818 6.22739394,3.31248485 Z M9.56242424,3.45454545 L9.23854545,4.67612121 C9.2150303,4.768 9.27757576,4.87393939 9.36921212,4.89769697 C9.46109091,4.92145455 9.56727273,4.85890909 9.59078788,4.7670303 L9.91466667,3.54545455 C9.93842424,3.45842424 9.87878788,3.36363636 9.79733333,3.32945455 C9.67418182,3.29818182 9.63078788,3.37212121 9.56242424,3.45454545 Z M4.608,3.98860606 C4.49042424,4.00557576 4.41672727,4.1590303 4.47733333,4.26133333 L5.11369697,5.35224242 C5.15539394,5.44509091 5.28315152,5.48678788 5.37115152,5.43563636 C5.45939394,5.38448485 5.48678788,5.25284848 5.42618182,5.17042424 L4.78981818,4.07951515 C4.75466667,4.0169697 4.6790303,3.97915152 4.608,3.98860606 Z M11.3294545,3.98860606 C11.2775758,3.9990303 11.2300606,4.03321212 11.2046061,4.07951515 L10.5796364,5.17624242 C10.5190303,5.25842424 10.5464242,5.39006061 10.6344242,5.44121212 C10.7224242,5.49236364 10.8504242,5.45066667 10.8921212,5.35806061 L11.5170909,4.26133333 C11.5881212,4.1430303 11.4659394,3.96484848 11.3294545,3.98860606 Z M3.12121212,5.10230303 C3.05309091,5.17236364 3.03878788,5.30109091 3.11369697,5.36921212 L4.01139394,6.26133333 C4.07951515,6.32848485 4.20266667,6.32678788 4.26981818,6.25842424 C4.33721212,6.19030303 4.33527273,6.06715152 4.26715152,6 L3.36921212,5.11369697 C3.2329697,5.02375758 3.23587879,5.06351515 3.12121212,5.10230303 Z M12.6249697,5.11369697 L11.7386667,6.01139394 C11.6591515,6.07490909 11.6523636,6.20921212 11.7243636,6.28121212 C11.7963636,6.35321212 11.9309091,6.34569697 11.9944242,6.26715152 L12.886303,5.36921212 C12.9602424,5.30109091 12.9374545,5.17987879 12.8722424,5.10884848 C12.7442424,5.02739394 12.7415758,5.06448485 12.6259394,5.11369697 L12.6249697,5.11369697 Z M8,5.6249697 C7.72169697,5.63442424 7.63733333,5.83248485 7.63636364,6 L7.63636364,9.16484848 C7.31733333,9.30690909 7.09090909,9.63151515 7.09090909,10 C7.09090909,10.4981818 7.50181818,10.9090909 8,10.9090909 C8.49818182,10.9090909 8.90909091,10.4981818 8.90909091,10 C8.90909091,9.63151515 8.68266667,9.30690909 8.36363636,9.16484848 L8.36363636,6 C8.36363636,5.71030303 8.26715152,5.63442424 8,5.6249697 Z M2.14206061,6.4489697 C2.08242424,6.45648485 2.03878788,6.49987879 2.016,6.55393939 C1.98206061,6.63733333 1.99709091,6.74618182 2.07951515,6.78981818 L3.17624242,7.42036364 C3.25939394,7.46787879 3.37890909,7.43563636 3.42618182,7.35224242 C3.47345455,7.26884848 3.44121212,7.14957576 3.35806061,7.10230303 C2.99442424,6.90715152 2.53406061,6.59006061 2.14206061,6.4489697 Z M13.7328485,6.47733333 L12.6419394,7.11369697 C12.5493333,7.15539394 12.5076364,7.28315152 12.5587879,7.37115152 C12.6099394,7.45939394 12.7415758,7.48678788 12.8237576,7.42618182 L13.9146667,6.78981818 C13.9876364,6.75006061 14.0254545,6.65721212 14.0019394,6.57769697 C13.912,6.44606061 13.856,6.44969697 13.7328485,6.47733333 Z M14.4773333,8.07393939 C14.0625455,8.18278788 13.6429091,8.30012121 13.2271515,8.41478788 C13.1241212,8.42812121 13.0472727,8.54351515 13.0749091,8.64387879 C13.102303,8.74424242 13.2281212,8.80387879 13.3238788,8.76145455 L14.5454545,8.43175758 C14.6412121,8.42133333 14.7178182,8.32581818 14.7073939,8.23006061 C14.6523636,8.08145455 14.5718788,8.10036364 14.4773333,8.07393939 Z M1.47151515,8.07393939 C1.38739394,8.08436364 1.31636364,8.1609697 1.31248485,8.24533333 C1.30860606,8.32945455 1.37212121,8.41284848 1.45454545,8.43175758 L2.67612121,8.75563636 C2.768,8.77939394 2.87393939,8.71684848 2.89769697,8.6249697 C2.92145455,8.53309091 2.85890909,8.42715152 2.7670303,8.40339394 C2.31636364,8.29818182 1.86642424,8.15345455 1.47151515,8.07393939 Z M2.53406061,9.81260606 L1.27272727,9.81818182 C1.1769697,9.81624242 1.088,9.90424242 1.088,10 C1.088,10.0957576 1.17624242,10.1827879 1.27272727,10.1818182 L2.53406061,10.1762424 C2.62981818,10.1779394 2.71878788,10.0899394 2.71878788,9.99442424 C2.71878788,9.89866667 2.63078788,9.81163636 2.53406061,9.81260606 Z M13.4431515,9.81818182 C13.3476364,9.8230303 13.2652121,9.9129697 13.2698182,10.0084848 C13.2746667,10.1042424 13.3646061,10.1866667 13.4601212,10.1818182 L14.7272727,10.1818182 C14.8230303,10.1837576 14.912,10.0957576 14.912,10 C14.912,9.90424242 14.8237576,9.81721212 14.7272727,9.81818182 C14.2802424,9.81818182 13.8266667,9.81818182 13.4431515,9.81818182 Z M4.90909091,12.9146667 C4.90909091,13.8523636 4.90909091,14.6004848 4.90909091,15.4601212 C7.04460606,15.4601212 9.25575758,15.4601212 11.0909091,15.4601212 C11.0909091,14.5890909 11.0909091,13.6686061 11.0909091,12.9146667 C8.95539394,12.9146667 6.74424242,12.9146667 4.90909091,12.9146667 Z M5.63636364,13.6419394 L6.72727273,13.6419394 L6.72727273,14.7328485 L5.63636364,14.7328485 L5.63636364,13.6419394 Z M7.45454545,13.6419394 L8.54545455,13.6419394 L8.54545455,14.7328485 L7.45454545,14.7328485 L7.45454545,13.6419394 Z M9.27272727,13.6419394 L10.3636364,13.6419394 L10.3636364,14.7328485 L9.27272727,14.7328485 L9.27272727,13.6419394 Z" id="Page-1"></path>
            </g>
        </g>
    </g>
</svg>