<?xml version="1.0" encoding="UTF-8"?>
<svg width="17px" height="16px" viewBox="0 0 17 16" version="1.1" xmlns="http://www.w3.org/2000/svg" xmlns:xlink="http://www.w3.org/1999/xlink">
    <!-- Generator: Sketch 48.2 (47327) - http://www.bohemiancoding.com/sketch -->
    <title>Page 1</title>
    <desc>Created with Sketch.</desc>
    <defs></defs>
    <g id="控制面板" stroke="none" stroke-width="1" fill="none" fill-rule="evenodd" transform="translate(-576.000000, -103.000000)">
        <g id="Group-7" transform="translate(0.000000, 81.000000)" fill="#888888">
            <g id="Group-4" transform="translate(576.000000, 20.000000)">
                <path d="M16.9966758,3.43782808 C16.9966758,2.66331145 16.464281,2.06731936 15.6939064,2.00178071 C15.5718568,1.99119895 15.4215895,2.02840579 15.3192582,2.09667521 C13.9063381,3.02855287 12.4988576,3.96862286 11.0910371,4.91142363 C10.9649078,4.99676041 10.8401384,5.03806342 10.6861314,5.03806342 C8.59564888,5.03260186 6.50550628,5.03533264 4.41502371,5.03396725 C3.90642687,5.03396725 3.40598935,5.0995059 2.91847073,5.24082361 C0.335369968,5.99008055 -0.444183867,8.34878921 0.230658856,10.3115352 C0.65936247,11.5608657 1.59190332,12.2944207 2.81477953,12.682191 C2.99802398,12.7409027 3.04052037,12.8224847 3.03916048,12.9996438 C3.03134115,14.1571519 3.03406092,15.3129533 3.0354208,16.469096 C3.03678069,17.3931227 3.63954953,17.9986725 4.55713165,17.9986725 C5.02323209,17.9986725 4.64076455,18.0024273 5.10686499,17.9973071 C5.93435475,17.9891148 6.53848348,17.3733246 6.53984336,16.5452164 C6.53984336,15.405117 6.54392302,14.2650176 6.53712359,13.1262836 C6.53610368,12.9689226 6.58505953,12.9262542 6.73906645,12.9276196 C7.78413775,12.9330811 9.67947689,12.9276196 10.7245482,12.9358119 C10.8387785,12.9371773 10.9689874,12.9771149 11.0645193,13.0395814 C12.4855987,13.9810168 13.9012386,14.9303032 15.321978,15.8703732 C15.41649,15.933181 15.5504386,15.9676571 15.6646689,15.9639023 C16.417705,15.9304503 16.9980357,15.3156841 16.9993956,14.5585762 C17.0007555,12.7023305 16.9993956,10.8464261 16.9993956,8.99018046 C16.9966758,7.13803095 16.9966758,5.28724682 16.9966758,3.43782808 Z M6,14.3564603 L6,16.3977355 C6,16.7301855 5.69881678,17 5.32771603,17 L4.67228397,17 C4.30118322,17 4,16.7301855 4,16.3977355 L4,13.1606039 C4,13.0716293 4.07995697,13 4.17927573,13 L5.82072427,13 C5.92004303,13 6,13.0716293 6,13.1606039 L6,14.3564603 Z M9,11.8281709 C9,11.9184871 8.91915174,11.9911966 8.82192013,11.9911966 L6.15357129,11.9911966 C6.1393249,11.993805 6.12685931,12 6.11296908,12 C5.86116413,12 5.60935919,11.9964134 5.35755425,11.9911966 L5.21722731,11.9911966 C5.21152875,11.9911966 5.2058302,11.9885882 5.2004878,11.987284 C4.93194335,11.981089 4.6633989,11.9719596 4.39485445,11.9592436 C3.02862565,11.8891425 1.84902456,11.3938702 1.26741569,10.1571568 C0.670491955,8.88718618 1.01952851,7.13596348 2.85766897,6.37072057 C3.44462024,6.12618194 4.06362588,6.00652103 4.70506959,6.00391262 C4.86925923,6.00260841 5.03487352,6.00260841 5.2004878,6.00260841 C5.2058302,6.00260841 5.21010411,6 5.21580267,6 L8.82192013,6 C8.92057638,6 9,6.07270949 9,6.16302576 L9,11.8281709 Z M11,11.8367347 C11,11.9271837 10.9068718,12 10.7948718,12 L9.20512821,12 C9.09107692,12 9,11.9258776 9,11.8367347 L9,6.16326531 C9,6.07281633 9.09107692,6 9.20512821,6 L10.7948718,6 C10.9068718,6 11,6.07281633 11,6.16326531 L11,11.8367347 Z M15.9975175,14.4122555 C15.9987588,14.6693115 15.9103198,14.8678696 15.6958942,14.9775112 C15.6329008,15.01027 15.5174648,15.0075958 15.4606776,14.9671487 C14.3370377,14.1732502 13.2192937,13.3726663 12.1031012,12.5670682 C12.0509688,12.5292954 12.003491,12.4367018 12.003491,12.3685101 C11.9988363,10.1265407 11.9988363,7.88323429 12.003491,5.64126495 C12.003491,5.57474461 12.0531409,5.48482516 12.1052734,5.44671803 C13.2133977,4.64780545 14.3249355,3.85658114 15.4339908,3.05867137 C15.5478753,2.9764402 15.6387968,2.98412848 15.7430616,3.06000846 C15.9249045,3.19037495 16,3.37322231 16,3.60821626 C15.9962763,5.40894518 15.9975175,7.20967409 15.9975175,9.01040301 C15.9962763,10.8107976 15.9941041,12.6115266 15.9975175,14.4122555 Z" id="Page-1"></path>
            </g>
        </g>
    </g>
</svg>