<?xml version="1.0" encoding="UTF-8"?>
<svg width="16px" height="16px" viewBox="0 0 16 16" version="1.1" xmlns="http://www.w3.org/2000/svg" xmlns:xlink="http://www.w3.org/1999/xlink">
    <!-- Generator: Sketch 48.2 (47327) - http://www.bohemiancoding.com/sketch -->
    <title>Page 1</title>
    <desc>Created with Sketch.</desc>
    <defs></defs>
    <g id="控制面板" stroke="none" stroke-width="1" fill="none" fill-rule="evenodd" transform="translate(-667.000000, -103.000000)">
        <g id="Group-7" transform="translate(0.000000, 81.000000)" fill="#888888">
            <g id="Group-8" transform="translate(667.000000, 20.000000)">
                <path d="M8.83057778,18 L7.16847407,18 C6.73517037,18 6.36942222,17.6897001 6.29902222,17.26206 L6.02026667,15.5692782 C5.83158519,15.5017186 5.64432593,15.4239659 5.46299259,15.3369681 L4.06755556,16.3368496 C3.72503704,16.5824345 3.22868148,16.5407135 2.93143704,16.2443997 L1.75644444,15.0693374 C1.44995556,14.7618822 1.41108148,14.2839872 1.664,13.9322034 L2.66382222,12.5385801 C2.57682963,12.3553396 2.49908148,12.1690174 2.43152593,11.9800877 L0.739792593,11.7015527 C0.310281481,11.6292521 0,11.2625341 0,10.8301529 L0,9.1688989 C0,8.73462131 0.310281481,8.36885149 0.738844444,8.29844732 L2.43057778,8.01967524 C2.49813333,7.83098258 2.57493333,7.64466042 2.66192593,7.46236814 L1.6621037,6.06779661 C1.41013333,5.7150646 1.44900741,5.23716961 1.75454815,4.93066256 L2.92954074,3.75560033 C3.22678519,3.45833827 3.72503704,3.41661728 4.06660741,3.6622022 L5.4610963,4.66208368 C5.64361481,4.57508593 5.83063704,4.49828138 6.01955556,4.43072182 L6.29807407,2.73794003 C6.36847407,2.31006282 6.73422222,2 7.16752593,2 L8.82962963,2 C9.26293333,2 9.62868148,2.31006282 9.69908148,2.73794003 L9.97783704,4.43072182 C10.1667556,4.49828138 10.3528296,4.57508593 10.5360593,4.66208368 L11.9305481,3.6622022 C12.2730667,3.41661728 12.7713185,3.45739007 13.068563,3.75560033 L14.2426074,4.92971435 C14.5490963,5.2352732 14.5879704,5.71411639 14.3352889,6.06684841 L13.3352296,7.46236814 C13.4222222,7.64560863 13.4999704,7.83169373 13.5675259,8.01967524 L15.2602074,8.29844732 C15.6890074,8.36885149 16,8.73462131 16,9.16795069 L16,10.8292047 C16,11.2634823 15.6890074,11.6292521 15.2611556,11.6987081 L13.5694222,11.9784284 C13.5028148,12.1664099 13.4250667,12.3534432 13.3371259,12.5366837 L14.3378963,13.9312552 C14.5908148,14.2839872 14.5509926,14.7618822 14.2454519,15.0683892 L13.0704593,16.2425033 C12.9038222,16.4091502 12.6824296,16.5008889 12.4463407,16.5008889 C12.2619259,16.5008889 12.0841481,16.4444708 11.9333926,16.3359014 L10.5379556,15.3360199 C10.3556741,15.4230177 10.169363,15.5007704 9.98044444,15.56833 L9.70097778,17.2611118 C9.62962963,17.688989 9.26388148,18 8.83057778,18 Z M5.4885602,14.3399029 C5.55257684,14.3399029 5.61659348,14.355155 5.67621909,14.3858902 C5.95424081,14.5328645 6.24589785,14.6539566 6.54287035,14.7450068 C6.68823665,14.7903007 6.79570141,14.9130105 6.81996765,15.0627579 L7.13149988,16.9512396 C7.13612202,16.9792017 7.16038826,17 7.18927664,17 L8.80979894,17 C8.83776288,17 8.86295355,16.9801261 8.86757569,16.9512396 L9.17980125,15.0627579 C9.20429859,14.9130105 9.31176335,14.7903007 9.45712965,14.7450068 C9.75225329,14.654881 10.0439103,14.5328645 10.3237809,14.3849658 C10.4573608,14.3135585 10.6207534,14.3253442 10.7443957,14.4129279 L12.3006702,15.5286389 C12.3459672,15.5395002 12.3621447,15.5367271 12.3764733,15.5223994 L13.5229951,14.3768776 C13.5428703,14.3570037 13.5456436,14.3234954 13.5294661,14.3001552 L12.4127571,12.7446766 C12.3242431,12.6210426 12.3124567,12.4576607 12.3847932,12.3240897 C12.5336261,12.0433132 12.6547261,11.7516754 12.7448579,11.4574956 C12.7892304,11.3121389 12.9119482,11.2046813 13.0617056,11.1794923 L14.950312,10.8679806 C14.9792004,10.8635898 15,10.8390941 15,10.8092833 L15,9.18979235 C15,9.16090588 14.9792004,9.13664125 14.950312,9.13201941 L13.0617056,8.82073883 C12.9119482,8.79624311 12.788306,8.68878545 12.7439334,8.54273547 C12.6538017,8.24924895 12.5327016,7.95761117 12.3838687,7.67614143 C12.3124567,7.54233931 12.3233187,7.37895745 12.4118327,7.25532336 L13.5276173,5.69915156 C13.5437948,5.67558021 13.5419459,5.64322736 13.5220707,5.62335347 L12.3764733,4.4778317 C12.3621447,4.46327292 12.3466605,4.46073091 12.3351052,4.46073091 L10.7434712,5.58730316 C10.6189046,5.67558021 10.4564363,5.68644152 10.3219321,5.61526526 C10.0429859,5.46713545 9.75225329,5.34696775 9.45620522,5.2559176 C9.31083892,5.21177908 9.20244973,5.08883827 9.1781835,4.93816645 L8.86665126,3.04876036 C8.86202912,3.02079826 8.83776288,3 8.80887451,3 L7.18835221,3 C7.15946383,3 7.1351976,3.02079826 7.13057546,3.04968472 L6.81927432,4.93909082 C6.79477698,5.08883827 6.6863878,5.21247235 6.54102149,5.25684197 C6.24497342,5.34789211 5.95424081,5.46805982 5.67529466,5.61618963 C5.54079039,5.68736588 5.37832216,5.67650457 5.25467992,5.58799643 L3.69840536,4.4722855 C3.65310839,4.46073091 3.6369309,4.46419729 3.62237116,4.47875607 L2.47677375,5.62427784 C2.45620522,5.64415173 2.45435637,5.67650457 2.47053386,5.7010003 L3.58631847,7.25624773 C3.67483245,7.37988181 3.68569448,7.54326368 3.61428241,7.6770658 C3.46637393,7.95506916 3.34619829,8.24647585 3.25514213,8.54365983 C3.20984516,8.68878545 3.08712734,8.79624311 2.93737,8.82073883 L1.04968801,9.13386815 C1.02079963,9.13848998 1,9.16367898 1,9.19256545 L1,10.8120564 C1,10.8409429 1.02079963,10.8661319 1.05061243,10.8707537 L2.93829443,11.181341 C3.08805177,11.2056056 3.21169401,11.3130633 3.25606656,11.4593444 C3.34712272,11.7562973 3.46822279,12.047935 3.61520684,12.3259384 C3.6866189,12.4595094 3.67575688,12.6228913 3.58724289,12.7474497 L2.47145829,14.3036215 C2.45435637,14.3271929 2.45782297,14.3595457 2.47769817,14.3794196 L3.62329559,15.5249414 C3.63785533,15.5395002 3.65588167,15.5413489 3.66489485,15.5413489 L5.25560434,14.4147767 C5.32424312,14.3650919 5.40628611,14.3399029 5.4885602,14.3399029 Z M8,13 C6.34548881,13 5,11.6537737 5,10 C5,8.34622634 6.34548881,7 8,7 C9.65451119,7 11,8.34548881 11,10 C11,11.6537737 9.65377366,13 8,13 Z M8,8 C6.89677272,8 6,8.89768826 6,10 C6,11.1023117 6.89768826,12 8,12 C9.10322728,12 10,11.1023117 10,10 C10,8.89677272 9.10231174,8 8,8 Z" id="Page-1"></path>
            </g>
        </g>
    </g>
</svg>