<?xml version="1.0" encoding="UTF-8"?>
<svg width="16px" height="16px" viewBox="0 0 16 16" version="1.1" xmlns="http://www.w3.org/2000/svg" xmlns:xlink="http://www.w3.org/1999/xlink">
    <!-- Generator: Sketch 48.2 (47327) - http://www.bohemiancoding.com/sketch -->
    <title>Page 1</title>
    <desc>Created with Sketch.</desc>
    <defs></defs>
    <g id="控制面板" stroke="none" stroke-width="1" fill="none" fill-rule="evenodd" transform="translate(-785.000000, -103.000000)">
        <g id="Group-7" transform="translate(0.000000, 81.000000)" fill="#888888">
            <g id="Group-30" transform="translate(785.000000, 20.000000)">
                <path d="M8.61739284,4.75790139 L2.9133886,4.75790139 C2.65831716,4.75790139 2.45052037,4.57142857 2.45052037,4.34323641 C2.45052037,4.11472819 2.65831716,3.92825537 2.9133886,3.92825537 L8.61739284,3.92825537 C8.87387546,3.92825537 9.08026107,4.11472819 9.08026107,4.34323641 C9.08026107,4.57142857 8.87387546,4.75790139 8.61739284,4.75790139 Z M14.1658141,4.34323641 C14.1658141,4.11472819 13.9590757,3.92825537 13.702593,3.92825537 L13.6503793,3.92825537 C13.3938966,3.92825537 13.1871582,4.11472819 13.1871582,4.34323641 C13.1871582,4.57142857 13.3938966,4.75790139 13.6503793,4.75790139 L13.702593,4.75790139 C13.9590757,4.75790139 14.1658141,4.57142857 14.1658141,4.34323641 Z M9.08026107,10 C9.08026107,9.77149178 8.87387546,9.58533502 8.61739284,9.58533502 L2.9133886,9.58533502 C2.65831716,9.58533502 2.45052037,9.77149178 2.45052037,10 C2.45052037,10.2285082 2.65831716,10.414665 2.9133886,10.414665 L8.61739284,10.414665 C8.87387546,10.414665 9.08026107,10.2285082 9.08026107,10 Z M14.1658141,10 C14.1658141,9.77149178 13.9590757,9.58533502 13.702593,9.58533502 L13.6503793,9.58533502 C13.3938966,9.58533502 13.1871582,9.77149178 13.1871582,10 C13.1871582,10.2285082 13.3938966,10.414665 13.6503793,10.414665 L13.702593,10.414665 C13.9590757,10.414665 14.1658141,10.2285082 14.1658141,10 Z M9.08026107,15.6567636 C9.08026107,15.4273072 8.87387546,15.2420986 8.61739284,15.2420986 L2.9133886,15.2420986 C2.65831716,15.2420986 2.45052037,15.4273072 2.45052037,15.6567636 C2.45052037,15.886536 2.65831716,16.0717446 2.9133886,16.0717446 L8.61739284,16.0717446 C8.87387546,16.0717446 9.08026107,15.886536 9.08026107,15.6567636 Z M14.1658141,15.6567636 C14.1658141,15.4273072 13.9590757,15.2420986 13.702593,15.2420986 L13.6503793,15.2420986 C13.3938966,15.2420986 13.1871582,15.4273072 13.1871582,15.6567636 C13.1871582,15.886536 13.3938966,16.0717446 13.6503793,16.0717446 L13.702593,16.0717446 C13.9590757,16.0717446 14.1658141,15.886536 14.1658141,15.6567636 Z M16,5.70006321 L16,2.98514539 C16,2.44184576 15.5092609,2 14.9084495,2 L1.09155054,2 C0.489327924,2 0,2.44184576 0,2.98514539 L0,5.70006321 C0,6.24304678 0.490739107,6.6852086 1.09155054,6.6852086 L14.9070383,6.6852086 C15.5106721,6.6852086 16,6.24304678 16,5.70006321 Z M14.9084495,2.82932996 C14.9980596,2.82932996 15.0739107,2.90107459 15.0739107,2.98514539 L15.0739107,5.70006321 C15.0739107,5.78381795 14.9980596,5.85556258 14.9084495,5.85556258 L1.09155054,5.85556258 C1.00194038,5.85556258 0.926089257,5.78381795 0.926089257,5.70006321 L0.926089257,2.98514539 C0.926089257,2.90107459 1.00194038,2.82932996 1.09155054,2.82932996 L14.9084495,2.82932996 Z M16,11.3568268 L16,8.6431732 C16,8.09987358 15.5092609,7.65802781 14.9084495,7.65802781 L1.09155054,7.65802781 C0.489327924,7.65802781 0,8.09987358 0,8.6431732 L0,11.358091 C0,11.9013906 0.490739107,12.3432364 1.09155054,12.3432364 L14.9070383,12.3432364 C15.5106721,12.3432364 16,11.9001264 16,11.3568268 Z M14.9084495,8.48640961 C14.9980596,8.48640961 15.0739107,8.55815424 15.0739107,8.64190898 L15.0739107,11.3568268 C15.0739107,11.4408976 14.9980596,11.5123262 14.9084495,11.5123262 L1.09155054,11.5123262 C1.00194038,11.5123262 0.926089257,11.4408976 0.926089257,11.3568268 L0.926089257,8.6431732 C0.926089257,8.5591024 1.00194038,8.48767383 1.09155054,8.48767383 L14.9084495,8.48767383 L14.9084495,8.48640961 Z M16,17.0148546 L16,14.2999368 C16,13.7569532 15.5092609,13.3147914 14.9084495,13.3147914 L1.09155054,13.3147914 C0.489327924,13.3147914 0,13.7569532 0,14.2999368 L0,17.0148546 C0,17.5581542 0.490739107,18 1.09155054,18 L14.9070383,18 C15.5106721,18 16,17.5581542 16,17.0148546 Z M14.9084495,14.1444374 C14.9980596,14.1444374 15.0739107,14.216182 15.0739107,14.2999368 L15.0739107,17.0148546 C15.0739107,17.0989254 14.9980596,17.17067 14.9084495,17.17067 L1.09155054,17.17067 C1.00194038,17.17067 0.926089257,17.0989254 0.926089257,17.0148546 L0.926089257,14.2999368 C0.926089257,14.216182 1.00194038,14.1444374 1.09155054,14.1444374 L14.9084495,14.1444374 Z" id="Page-1"></path>
            </g>
        </g>
    </g>
</svg>