<?xml version="1.0" encoding="UTF-8"?>
<svg width="16px" height="16px" viewBox="0 0 16 16" version="1.1" xmlns="http://www.w3.org/2000/svg" xmlns:xlink="http://www.w3.org/1999/xlink">
    <!-- Generator: Sketch 48.2 (47327) - http://www.bohemiancoding.com/sketch -->
    <title>Fill 1</title>
    <desc>Created with Sketch.</desc>
    <defs></defs>
    <g id="控制面板" stroke="none" stroke-width="1" fill="none" fill-rule="evenodd" transform="translate(-250.000000, -103.000000)">
        <g id="Group-7" transform="translate(0.000000, 81.000000)" fill="#888888">
            <g id="Group" transform="translate(250.000000, 20.000000)">
                <path d="M15.2177778,17.1695342 L15.2177778,13.9726027 L15.3004444,13.9726027 C15.6822222,13.9726027 15.9913333,13.6668493 15.9913333,13.2911781 L15.9913333,11.4110685 C15.9913333,11.0351781 15.6813333,10.7294247 15.3004444,10.7294247 L15.2177778,10.7294247 L15.2177778,7.53336986 C15.2177778,7.15747945 14.908,6.85194521 14.526,6.85194521 L13.3706667,6.85194521 L13.3706667,5.53424658 C13.3706667,5.15835616 13.06,4.85194521 12.6804444,4.85194521 L11.4166667,4.84580822 L8.83777778,2.23627397 C8.77511111,2.17293151 8.68933333,2.1369863 8.59977778,2.1369863 C8.59888889,2.1369863 8.59888889,2.1369863 8.598,2.1369863 C8.50866667,2.1369863 8.42355556,2.17293151 8.36022222,2.23539726 L6.94,3.65742466 L5.12933333,2.21063014 C5.05733333,2.15320548 4.96444444,2.12756164 4.87422222,2.14049315 C4.78288889,2.15320548 4.70044444,2.20208219 4.64666667,2.27572603 L2.78288889,4.86224658 C2.76733333,4.85961644 2.75266667,4.85282192 2.73533333,4.85282192 L0.822888889,4.85282192 C0.440888889,4.85282192 0.132,5.15923288 0.132,5.53512329 L0.132,17.170411 C0.132,17.5471781 0.441777778,17.8527123 0.822888889,17.8527123 L14.526,17.8527123 C14.908,17.8518356 15.2177778,17.5463014 15.2177778,17.1695342 Z M15.3237778,11.4110685 L15.3237778,13.2911781 C15.3237778,13.3038904 15.3133333,13.3141918 15.3004444,13.3141918 L11.0468889,13.2911781 L11.0702222,11.3878356 L15.3237778,11.4110685 Z M12.6771111,5.51123288 C12.678,5.51123288 12.7022222,5.53424658 12.7022222,5.53424658 L12.7022222,6.85106849 L11.6875556,6.85106849 L12.3246667,6.2380274 C12.4566667,6.11134247 12.46,5.90246575 12.3306667,5.77227397 L12.0702222,5.50860274 L12.6771111,5.51123288 Z M8.59733333,2.93742466 L11.6197778,5.99561644 L10.7308889,6.85019178 L4.68933333,6.85019178 L8.59733333,2.93742466 Z M4.98622222,2.94356164 L6.47044444,4.12931507 L3.75266667,6.85106849 L2.17022222,6.85106849 L4.98622222,2.94356164 Z M2.316,5.51123288 L1.35155556,6.85106849 L0.823777778,6.85106849 C0.822888889,6.85106849 0.821111111,6.85106849 0.820222222,6.85106849 L0.823777778,5.51123288 L2.316,5.51123288 Z M0.799555556,17.1695342 L0.822888889,7.50947945 L14.5495556,7.53249315 L14.5495556,10.7285479 L11.0702222,10.7285479 C10.6884444,10.7285479 10.3793333,11.0343014 10.3793333,11.4101918 L10.3793333,13.2903014 C10.3793333,13.6668493 10.6893333,13.971726 11.0702222,13.971726 L14.5495556,13.971726 L14.5268889,17.1916712 L0.799555556,17.1695342 Z" id="Fill-1"></path>
            </g>
        </g>
    </g>
</svg>