<?xml version="1.0" encoding="UTF-8"?>
<svg width="16px" height="16px" viewBox="0 0 16 16" version="1.1" xmlns="http://www.w3.org/2000/svg" xmlns:xlink="http://www.w3.org/1999/xlink">
    <!-- Generator: Sketch 48.2 (47327) - http://www.bohemiancoding.com/sketch -->
    <title>Page 1</title>
    <desc>Created with Sketch.</desc>
    <defs></defs>
    <g id="控制面板" stroke="none" stroke-width="1" fill="none" fill-rule="evenodd" transform="translate(-458.000000, -103.000000)">
        <g id="Group-7" transform="translate(0.000000, 81.000000)" fill="#888888">
            <g id="Group-29" transform="translate(458.000000, 20.000000)">
                <path d="M5.33333333,15.3595692 L6.2745098,15.3595692 C6.2745098,16.3028169 7.04752941,17.067937 8,17.067937 C8.95247059,17.067937 9.7254902,16.3028169 9.7254902,15.3595692 L10.6666667,15.3595692 C10.6666667,16.8173157 9.4724183,18 8,18 C6.5275817,18 5.33333333,16.8173157 5.33333333,15.3595692 Z M16,13.9610605 L16,14.2717481 C16,14.8757249 15.5080784,15.3595692 14.9019608,15.3595692 L1.09803922,15.3595692 C0.491921569,15.3595692 0,14.8724109 0,14.2717481 L0,13.9610605 C0,12.8980944 0.829908497,12.0289975 1.88235294,11.9482187 L1.88235294,8.05799503 C1.88235294,4.71168186 4.62096732,2 8,2 C11.3790327,2 14.1176471,4.71168186 14.1176471,8.05799503 L14.1176471,11.9482187 C15.1717647,12.0277548 16,12.8980944 16,13.9610605 Z M13.9574379,12.8740679 C13.5261699,12.8740679 13.1764706,12.5244408 13.1764706,12.0985915 L13.1764706,8.05799503 C13.1764706,5.22659486 10.8595033,2.93206297 8,2.93206297 C5.14049673,2.93206297 2.82352941,5.22659486 2.82352941,8.05799503 L2.82352941,12.0985915 C2.82352941,12.5260978 2.47215686,12.8740679 2.04256209,12.8740679 C1.43477124,12.8740679 0.941176471,13.3608119 0.941176471,13.9610605 L0.941176471,14.2717481 C0.941176471,14.3579122 1.01145098,14.4275062 1.09803922,14.4275062 L14.9019608,14.4275062 C14.9902222,14.4275062 15.0588235,14.3591549 15.0588235,14.2717481 L15.0588235,13.9610605 C15.0588235,13.3591549 14.566902,12.8740679 13.9574379,12.8740679 Z" id="Page-1"></path>
            </g>
        </g>
    </g>
</svg>