<?xml version="1.0" encoding="UTF-8"?>
<svg width="16px" height="16px" viewBox="0 0 16 16" version="1.1" xmlns="http://www.w3.org/2000/svg" xmlns:xlink="http://www.w3.org/1999/xlink">
    <!-- Generator: Sketch 48.2 (47327) - http://www.bohemiancoding.com/sketch -->
    <title>Page 1</title>
    <desc>Created with Sketch.</desc>
    <defs></defs>
    <g id="控制面板" stroke="none" stroke-width="1" fill="none" fill-rule="evenodd" transform="translate(-340.000000, -103.000000)">
        <g id="Group-7" transform="translate(0.000000, 81.000000)" fill="#888888">
            <g id="Group-5" transform="translate(340.000000, 20.000000)">
                <path d="M15.9960658,15.4610963 L14.4360745,5.51288889 C14.4360745,5.51194074 14.4360745,5.51099259 14.4360745,5.51028148 L14.4350338,5.50554074 C14.4339931,5.50103704 14.4321719,5.49724444 14.4311312,5.4925037 C14.4269684,5.47306667 14.4220252,5.45362963 14.4147404,5.43514074 C14.4118785,5.42779259 14.4077157,5.42044444 14.403553,5.41214815 C14.3965283,5.39721481 14.3895037,5.38322963 14.3801375,5.36948148 C14.3751942,5.36118519 14.3681696,5.3536 14.3619254,5.34625185 C14.3528194,5.33416296 14.3426727,5.32325926 14.3314853,5.31211852 C14.3244607,5.30453333 14.3161352,5.29813333 14.3080698,5.29173333 C14.2958418,5.28154074 14.282573,5.2722963 14.2695644,5.264 C14.2643609,5.26020741 14.2601982,5.25641481 14.2542142,5.25285926 C14.2500515,5.25096296 14.2461489,5.25001481 14.2430268,5.24811852 C14.2287174,5.24077037 14.2125867,5.23437037 14.1972366,5.22868148 C14.1870899,5.22488889 14.1779838,5.22133333 14.1678371,5.21754074 C14.152487,5.21303704 14.1363563,5.21019259 14.1210062,5.20734815 C14.1098188,5.20545185 14.0986314,5.20284444 14.087444,5.2018963 C14.0856228,5.2018963 14.0825007,5.20094815 14.0804193,5.20094815 L10.1463585,4.92124444 L10.1463585,4.66666667 C10.1463585,3.19632593 8.83327036,2 7.21942342,2 C5.66541604,2 4.39421563,3.11028148 4.3015944,4.50453333 L1.59112246,4.31205926 C1.5200955,4.30731852 1.44984906,4.31940741 1.38584675,4.34808889 L0.995588745,4.52586667 C0.992466681,4.52776296 0.989604789,4.52965926 0.986482725,4.53155556 C0.975295328,4.53700741 0.96514862,4.54340741 0.955001912,4.55004444 C0.943814516,4.55644444 0.931586432,4.56379259 0.921439724,4.57137778 C0.919358348,4.57303704 0.916236283,4.57398519 0.914415079,4.57588148 C0.908170951,4.58157037 0.903227683,4.58702222 0.896983555,4.59271111 C0.886836847,4.60195556 0.876690139,4.6112 0.867584119,4.62139259 C0.860559475,4.62874074 0.855356035,4.63798519 0.84833139,4.64628148 C0.840005886,4.65742222 0.831940554,4.66761481 0.825956598,4.6797037 C0.820753158,4.68894815 0.816850578,4.69819259 0.812687826,4.70743704 C0.807484386,4.71952593 0.80150043,4.73137778 0.797337678,4.74346667 C0.794475786,4.75271111 0.79239441,4.7629037 0.790313034,4.7730963 C0.787190969,4.78613333 0.784329077,4.79917037 0.783288389,4.81197037 C0.783288389,4.81576296 0.781207013,4.81955556 0.781207013,4.82311111 L0.000691001491,16.3786667 C-0.0115370827,16.5675852 0.139883024,16.7332741 0.347240111,16.7536593 L12.6403673,17.9981037 C12.6546768,17.9990519 12.668726,18 12.6830355,18 C12.6830355,18 12.6830355,18 12.6830355,18 C12.7054103,18 12.7267444,17.9981037 12.7491192,17.9945481 C12.7540625,17.9936 12.7603066,17.9917037 12.7652499,17.9907556 C12.7816407,17.9879111 12.7977714,17.9843556 12.8131215,17.9796148 C12.8201462,17.9767704 12.827431,17.9732148 12.8354963,17.9703704 C12.8477244,17.9656296 12.8609932,17.9611259 12.8729611,17.9547259 C12.883368,17.949037 12.8935147,17.942637 12.9026207,17.9369481 C12.910686,17.9324444 12.9187513,17.9277037 12.9260362,17.9222519 L12.9309794,17.9184593 C12.9309794,17.9184593 12.9309794,17.9184593 12.9309794,17.9184593 C12.9309794,17.9184593 12.9309794,17.9184593 12.9309794,17.9184593 L15.8519305,15.7889185 C15.9617231,15.7102222 16.0155787,15.5850667 15.9960658,15.4610963 Z M7.21942342,2.71111111 C8.40242553,2.71111111 9.36584246,3.58885926 9.36584246,4.66666667 L9.36584246,4.86577778 L5.07898835,4.56118519 C5.14012877,3.5314963 6.07518695,2.71111111 7.21942342,2.71111111 Z M1.53518548,5.22678519 L4.29248838,5.42305185 L4.29248838,6.26666667 C4.29248838,6.46293333 4.46732397,6.62222222 4.68274638,6.62222222 C4.8981688,6.62222222 5.07300439,6.46293333 5.07300439,6.26666667 L5.07300439,5.47875556 L9.36584246,5.7842963 L9.36584246,6.8 C9.36584246,6.99626667 9.54067804,7.15555556 9.75610046,7.15555556 C9.97152288,7.15555556 10.1463585,6.99626667 10.1463585,6.8 L10.1463585,5.83976296 L13.2411045,6.06020741 L12.3242583,17.2500148 L0.802541118,16.0833185 L1.53518548,5.22678519 Z M13.1393772,16.8565333 L13.9248365,7.27122963 L15.193175,15.3591704 L13.1393772,16.8565333 Z" id="Page-1"></path>
            </g>
        </g>
    </g>
</svg>