<?xml version="1.0" encoding="UTF-8"?>
<svg width="99px" height="18px" viewBox="0 0 99 18" version="1.1" xmlns="http://www.w3.org/2000/svg" xmlns:xlink="http://www.w3.org/1999/xlink">
    <!-- Generator: Sketch 49.3 (51167) - http://www.bohemiancoding.com/sketch -->
    <title>LOGO</title>
    <desc>Created with Sketch.</desc>
    <defs>
        <linearGradient x1="50%" y1="0.797193878%" x2="50%" y2="100%" id="linearGradient-1">
            <stop stop-color="#2C2934" stop-opacity="0" offset="0%"></stop>
            <stop stop-color="#FFFFFF" offset="100%"></stop>
        </linearGradient>
        <linearGradient x1="50%" y1="100%" x2="50%" y2="0.797193878%" id="linearGradient-2">
            <stop stop-color="#2C2934" stop-opacity="0" offset="0%"></stop>
            <stop stop-color="#FFFFFF" offset="100%"></stop>
        </linearGradient>
        <linearGradient x1="97.3465764%" y1="49.841992%" x2="2.6534236%" y2="49.841992%" id="linearGradient-3">
            <stop stop-color="#FFFFFF" stop-opacity="0" offset="0%"></stop>
            <stop stop-color="#2F2C37" offset="100%"></stop>
        </linearGradient>
        <linearGradient x1="1.80431272%" y1="48.9928812%" x2="98.1956873%" y2="48.9928812%" id="linearGradient-4">
            <stop stop-color="#FFFFFF" stop-opacity="0" offset="0%"></stop>
            <stop stop-color="#2F2C37" offset="100%"></stop>
        </linearGradient>
    </defs>
    <g id="LOGO" stroke="none" stroke-width="1" fill="none" fill-rule="evenodd">
        <g>
            <path d="M31.0043369,3.75 L32.7521357,3.75 L32.7521357,14.25 L31.0043369,14.25 L31.0043369,9.879375 L25.7477989,9.879375 L25.7477989,14.25 L24,14.25 L24,9.879375 L25.7477989,8.120625 L31.0043369,8.120625 L31.0043369,3.75 Z M39.125688,10.75875 L38.2583593,12.49125 L37.3647478,14.25 L35.4198288,14.25 L40.6763667,3.75 L44.1851059,10.75875 L42.2139041,10.75875 L40.6763667,7.674375 L39.125688,10.75875 Z M45.0524346,12.504375 L45.9329047,14.25 L43.9748443,14.25 L43.1075156,12.504375 L45.0524346,12.504375 Z M51.6625311,9.879375 L49.0474035,9.879375 C48.1932161,9.879375 47.4704421,9.5775 46.8790816,8.986875 C46.287721,8.383125 45.9854701,7.66125 45.9854701,6.808125 C45.9854701,5.968125 46.287721,5.259375 46.8790816,4.655625 C47.4704421,4.051875 48.1932161,3.75 49.0474035,3.75 L49.0474035,5.50875 C48.8634247,5.50875 48.6925872,5.535 48.534891,5.600625 C48.3640535,5.66625 48.2326401,5.758125 48.1012267,5.889375 C47.9829545,6.0075 47.8909651,6.151875 47.8252584,6.309375 C47.7595517,6.466875 47.733269,6.6375 47.733269,6.808125 C47.733269,7.175625 47.8515411,7.4775 48.1012267,7.74 C48.3640535,8.0025 48.6663045,8.13375 49.0474035,8.13375 L51.6625311,8.13375 C52.5167186,8.13375 53.2394925,8.435625 53.8308531,9.02625 C54.4353549,9.63 54.7376059,10.351875 54.7376059,11.191875 C54.7376059,12.031875 54.4353549,12.75375 53.8308531,13.3575 C53.2394925,13.948125 52.5167186,14.25 51.6625311,14.25 L51.6625311,12.49125 C51.84651,12.49125 52.0173474,12.465 52.1750436,12.399375 C52.3458811,12.33375 52.4904359,12.241875 52.608708,12.12375 C52.7269801,12.005625 52.8189695,11.874375 52.8846762,11.70375 C52.9503829,11.54625 52.989807,11.375625 52.989807,11.191875 C52.989807,10.8375 52.8452522,10.535625 52.5955666,10.273125 C52.3327397,10.010625 52.0304888,9.879375 51.6625311,9.879375 Z M64.4622011,3.75 L66.21,3.75 L66.21,14.25 L64.4622011,14.25 L64.4622011,9.879375 L59.2056631,9.879375 L59.2056631,14.25 L57.4578643,14.25 L57.4578643,9.879375 L59.2056631,8.120625 L64.4622011,8.120625 L64.4622011,3.75 Z" id="HASH-Copy" fill="#2F2C37"></path>
            <path d="M24,3.75 L25.68,3.75 L25.68,7.11 L24,8.79 L24,3.75 Z M57.39,3.75 L59.07,3.75 L59.07,7.11 L57.39,8.79 L57.39,3.75 Z" id="Combined-Shape" fill="#00C6BC"></path>
            <path d="M68.1,14.25 L68.1,12.78 L69.57,12.78 L69.57,14.25 L68.1,14.25 Z M78.4316216,4.963275 C79.1038739,5.6449875 79.44,6.455325 79.44,7.3942875 C79.44,8.33325 79.1168018,9.15645 78.4316216,9.8253 C77.7593694,10.49415 76.9449099,10.828575 76.0011712,10.828575 L72.5494144,10.828575 L72.5494144,14.25 L70.83,14.25 L70.83,9.105 L76.0011712,9.105 C76.4665766,9.105 76.8673423,8.9377875 77.2034685,8.6033625 C77.5395946,8.2689375 77.7205856,7.8702 77.7205856,7.3942875 C77.7205856,6.9312375 77.5525225,6.5196375 77.2034685,6.1852125 C76.8673423,5.8507875 76.4665766,5.683575 76.0011712,5.683575 L70.83,5.683575 L70.83,3.96 L76.0011712,3.96 C76.9449099,3.96 77.7593694,4.294425 78.4316216,4.963275 Z M85.7621232,9.3236625 C85.3611831,9.902475 84.8567747,10.314075 84.2488979,10.5584625 L86.37,14.25 L84.3911669,14.25 L81.3905835,9.0921375 L82.9296759,9.105 C83.3952836,9.105 83.7962237,8.9377875 84.1324959,8.6033625 C84.4817018,8.2689375 84.6498379,7.8573375 84.6498379,7.381425 C84.6498379,6.918375 84.4817018,6.5196375 84.1324959,6.1852125 C83.7962237,5.8507875 83.3952836,5.683575 82.9296759,5.683575 L79.4764182,5.683575 L79.2824149,5.4906375 L78.39,3.96 L82.9296759,3.96 C83.873825,3.96 84.6886386,4.294425 85.3611831,4.963275 C86.0337277,5.6449875 86.37,6.4424625 86.37,7.381425 C86.37,8.101725 86.1759968,8.74485 85.7621232,9.3236625 Z M93.3985768,3.96 C94.8245318,3.96 96.0192509,4.4745 97.0212734,5.477775 C98.0361423,6.48105 98.55,7.690125 98.55,9.105 C98.55,10.5327375 98.0361423,11.7418125 97.0212734,12.732225 C96.0192509,13.7355 94.8245318,14.25 93.3985768,14.25 C91.9726217,14.25 90.7779026,13.7355 89.7758801,12.732225 C88.7738577,11.72895 88.26,10.5327375 88.26,9.105 C88.26,7.690125 88.7738577,6.48105 89.7758801,5.477775 C90.7650562,4.4745 91.9726217,3.96 93.3985768,3.96 Z M93.405,5.64 C92.4540789,5.64 91.6334211,5.96565789 90.9430263,6.65605263 C90.2656579,7.33342105 89.94,8.15407895 89.94,9.105 C89.94,10.0559211 90.2656579,10.8896053 90.9430263,11.5669737 C91.6203947,12.2443421 92.4540789,12.57 93.405,12.57 C94.3559211,12.57 95.1765789,12.2443421 95.8539474,11.5669737 C96.5443421,10.8765789 96.87,10.0559211 96.87,9.105 C96.87,8.15407895 96.5313158,7.33342105 95.8539474,6.65605263 C95.1765789,5.97868421 94.3559211,5.64 93.405,5.64 Z" id=".PRO" fill="#2F2C37"></path>
            <g id="Group-4">
                <path d="M4.90909091,18 L0,18 L0,13.5 L4.90909091,13.5 L4.90909091,18 Z M7.36363636,18 L7.36363636,13.5 L11.0454545,13.5 C12.4010626,13.5 13.5,12.4010626 13.5,11.0454545 L13.5,7.36363636 L18,7.36363636 L18,18 L7.36363636,18 Z M4.90909091,7.36363636 L4.90909091,11.0454545 L0,11.0454545 L0,0 L11.0454545,0 L11.0454545,4.90909091 L7.36363636,4.90909091 C6.00802834,4.90909091 4.90909091,6.00802834 4.90909091,7.36363636 Z M7.36363636,7.36363636 L11.0454545,7.36363636 L11.0454545,11.0454545 L7.36363636,11.0454545 L7.36363636,7.36363636 Z M18,4.90909091 L13.5,4.90909091 L13.5,8.70414851e-14 L18,0 L18,4.90909091 Z" id="Combined-Shape-Copy-5" fill="#2F2C37" transform="translate(9.000000, 9.000000) rotate(-360.000000) translate(-9.000000, -9.000000) "></path>
                <rect id="Rectangle-5-Copy-5" fill="url(#linearGradient-1)" x="11.0454545" y="13.5" width="2.45454545" height="4.5"></rect>
                <rect id="Rectangle-5-Copy-6" fill="url(#linearGradient-2)" x="4.90909091" y="0" width="2.45454545" height="4.5"></rect>
                <polygon id="Rectangle-5-Copy-7" fill="url(#linearGradient-3)" points="7.36363636 13.5 7.36363636 11.0454545 11.0454545 11.0454545 11.0454545 13.5"></polygon>
                <polygon id="Rectangle-5-Copy-8" fill="url(#linearGradient-4)" points="7.36363636 7.36363636 7.36363636 4.90909091 11.0454545 4.90909091 11.0454545 7.36363636"></polygon>
            </g>
        </g>
    </g>
</svg>